%TF.GenerationSoftware,KiCad,Pcbnew,9.0.9-9.0.9~ubuntu25.10.1*%
%TF.CreationDate,2026-06-08T18:02:11-04:00*%
%TF.ProjectId,Macropad,4d616372-6f70-4616-942e-6b696361645f,rev?*%
%TF.SameCoordinates,Original*%
%TF.FileFunction,Copper,L2,Bot*%
%TF.FilePolarity,Positive*%
%FSLAX46Y46*%
G04 Gerber Fmt 4.6, Leading zero omitted, Abs format (unit mm)*
G04 Created by KiCad (PCBNEW 9.0.9-9.0.9~ubuntu25.10.1) date 2026-06-08 18:02:11*
%MOMM*%
%LPD*%
G01*
G04 APERTURE LIST*
G04 Aperture macros list*
%AMRoundRect*
0 Rectangle with rounded corners*
0 $1 Rounding radius*
0 $2 $3 $4 $5 $6 $7 $8 $9 X,Y pos of 4 corners*
0 Add a 4 corners polygon primitive as box body*
4,1,4,$2,$3,$4,$5,$6,$7,$8,$9,$2,$3,0*
0 Add four circle primitives for the rounded corners*
1,1,$1+$1,$2,$3*
1,1,$1+$1,$4,$5*
1,1,$1+$1,$6,$7*
1,1,$1+$1,$8,$9*
0 Add four rect primitives between the rounded corners*
20,1,$1+$1,$2,$3,$4,$5,0*
20,1,$1+$1,$4,$5,$6,$7,0*
20,1,$1+$1,$6,$7,$8,$9,0*
20,1,$1+$1,$8,$9,$2,$3,0*%
G04 Aperture macros list end*
%TA.AperFunction,ComponentPad*%
%ADD10C,1.600000*%
%TD*%
%TA.AperFunction,ComponentPad*%
%ADD11RoundRect,0.250000X0.550000X0.550000X-0.550000X0.550000X-0.550000X-0.550000X0.550000X-0.550000X0*%
%TD*%
%TA.AperFunction,ComponentPad*%
%ADD12C,2.200000*%
%TD*%
%TA.AperFunction,ComponentPad*%
%ADD13R,2.000000X2.000000*%
%TD*%
%TA.AperFunction,ComponentPad*%
%ADD14C,2.000000*%
%TD*%
%TA.AperFunction,ComponentPad*%
%ADD15R,3.200000X2.000000*%
%TD*%
%TA.AperFunction,ComponentPad*%
%ADD16R,1.508000X1.508000*%
%TD*%
%TA.AperFunction,ComponentPad*%
%ADD17C,1.508000*%
%TD*%
%TA.AperFunction,ComponentPad*%
%ADD18C,3.000000*%
%TD*%
%TA.AperFunction,ComponentPad*%
%ADD19C,1.524000*%
%TD*%
%TA.AperFunction,SMDPad,CuDef*%
%ADD20RoundRect,0.140000X0.560000X0.660000X-0.560000X0.660000X-0.560000X-0.660000X0.560000X-0.660000X0*%
%TD*%
%TA.AperFunction,SMDPad,CuDef*%
%ADD21RoundRect,0.110000X-0.440000X0.690000X-0.440000X-0.690000X0.440000X-0.690000X0.440000X0.690000X0*%
%TD*%
%TA.AperFunction,ComponentPad*%
%ADD22C,1.100000*%
%TD*%
%TA.AperFunction,ComponentPad*%
%ADD23RoundRect,0.250000X0.550000X-0.550000X0.550000X0.550000X-0.550000X0.550000X-0.550000X-0.550000X0*%
%TD*%
%TA.AperFunction,ComponentPad*%
%ADD24RoundRect,0.250000X-0.550000X0.550000X-0.550000X-0.550000X0.550000X-0.550000X0.550000X0.550000X0*%
%TD*%
%TA.AperFunction,ViaPad*%
%ADD25C,0.610210*%
%TD*%
%TA.AperFunction,Conductor*%
%ADD26C,0.152552*%
%TD*%
G04 APERTURE END LIST*
D10*
%TO.P,C1,1*%
%TO.N,+5V*%
X125000000Y-53250000D03*
%TO.P,C1,2*%
%TO.N,GND*%
X125000000Y-55750000D03*
%TD*%
D11*
%TO.P,D5,1,K*%
%TO.N,ROW1*%
X152000000Y-109500000D03*
D10*
%TO.P,D5,2,A*%
%TO.N,Net-(D5-A)*%
X144380000Y-109500000D03*
%TD*%
D12*
%TO.P,SW6,1,1*%
%TO.N,COL2*%
X185040000Y-92420000D03*
%TO.P,SW6,2,2*%
%TO.N,Net-(D6-A)*%
X178690000Y-94960000D03*
%TD*%
D11*
%TO.P,D4,1,K*%
%TO.N,ROW1*%
X186620000Y-140000000D03*
D10*
%TO.P,D4,2,A*%
%TO.N,Net-(D4-A)*%
X179000000Y-140000000D03*
%TD*%
D13*
%TO.P,SW7,A,A*%
%TO.N,Net-(U1-P1_D7_RX)*%
X106405787Y-130436124D03*
D14*
%TO.P,SW7,B,B*%
%TO.N,Net-(U1-P0_D6_TX)*%
X106405787Y-135436124D03*
%TO.P,SW7,C,C*%
%TO.N,GND*%
X106405787Y-132936124D03*
D15*
%TO.P,SW7,MP*%
%TO.N,N/C*%
X113905787Y-127336124D03*
X113905787Y-138536124D03*
D14*
%TO.P,SW7,S1,S1*%
%TO.N,COL2*%
X120905787Y-135436124D03*
%TO.P,SW7,S2,S2*%
%TO.N,ROTENCS2*%
X120905787Y-130436124D03*
%TD*%
D10*
%TO.P,C7,1*%
%TO.N,+5V*%
X167000000Y-59000000D03*
%TO.P,C7,2*%
%TO.N,GND*%
X164500000Y-59000000D03*
%TD*%
%TO.P,R1,1*%
%TO.N,Net-(U1-P6_SDA_D4)*%
X127000000Y-77500000D03*
%TO.P,R1,2*%
%TO.N,+5V*%
X119380000Y-77500000D03*
%TD*%
D12*
%TO.P,SW4,1,1*%
%TO.N,COL0*%
X185040000Y-122920000D03*
%TO.P,SW4,2,2*%
%TO.N,Net-(D4-A)*%
X178690000Y-125460000D03*
%TD*%
D11*
%TO.P,D6,1,K*%
%TO.N,ROW1*%
X186810000Y-109500000D03*
D10*
%TO.P,D6,2,A*%
%TO.N,Net-(D6-A)*%
X179190000Y-109500000D03*
%TD*%
%TO.P,C9,1*%
%TO.N,+5V*%
X167000000Y-90000000D03*
%TO.P,C9,2*%
%TO.N,GND*%
X164500000Y-90000000D03*
%TD*%
%TO.P,C4,1*%
%TO.N,+5V*%
X114000000Y-84000000D03*
%TO.P,C4,2*%
%TO.N,GND*%
X111500000Y-84000000D03*
%TD*%
D16*
%TO.P,U2,1,GND*%
%TO.N,GND*%
X111690000Y-89500000D03*
D17*
%TO.P,U2,2,VCC*%
%TO.N,+5V*%
X114230000Y-89500000D03*
%TO.P,U2,3,SCL*%
%TO.N,Net-(U1-P7_SCL_D5)*%
X116770000Y-89500000D03*
%TO.P,U2,4,SDA*%
%TO.N,Net-(U1-P6_SDA_D4)*%
X119310000Y-89500000D03*
D18*
%TO.P,U2,S1*%
%TO.N,N/C*%
X104500000Y-90000000D03*
%TO.P,U2,S2*%
X126500000Y-90000000D03*
%TO.P,U2,S3*%
X126500000Y-112000000D03*
%TO.P,U2,S4*%
X104500000Y-112000000D03*
%TD*%
D10*
%TO.P,C5,1*%
%TO.N,+5V*%
X118500000Y-84000000D03*
%TO.P,C5,2*%
%TO.N,GND*%
X123500000Y-84000000D03*
%TD*%
D12*
%TO.P,SW5,1,1*%
%TO.N,COL1*%
X150960000Y-92420000D03*
%TO.P,SW5,2,2*%
%TO.N,Net-(D5-A)*%
X144610000Y-94960000D03*
%TD*%
%TO.P,SW1,1,1*%
%TO.N,COL2*%
X150710000Y-61920000D03*
%TO.P,SW1,2,2*%
%TO.N,Net-(D1-A)*%
X144360000Y-64460000D03*
%TD*%
D19*
%TO.P,U1,1,P26_A0_D0*%
%TO.N,unconnected-(U1-P26_A0_D0-Pad1)*%
X105879006Y-53190000D03*
%TO.P,U1,2,P27_A1_D1*%
%TO.N,COL2*%
X105879006Y-55730000D03*
%TO.P,U1,3,P28_A2_D2*%
%TO.N,COL1*%
X105879006Y-58270000D03*
%TO.P,U1,4,P29_A3_D3*%
%TO.N,COL0*%
X105879006Y-60810000D03*
%TO.P,U1,5,P6_SDA_D4*%
%TO.N,Net-(U1-P6_SDA_D4)*%
X105879006Y-63350000D03*
%TO.P,U1,6,P7_SCL_D5*%
%TO.N,Net-(U1-P7_SCL_D5)*%
X105879006Y-65890000D03*
%TO.P,U1,7,P0_D6_TX*%
%TO.N,Net-(U1-P0_D6_TX)*%
X105879006Y-68430000D03*
%TO.P,U1,8,P1_D7_RX*%
%TO.N,Net-(U1-P1_D7_RX)*%
X121119006Y-68430000D03*
%TO.P,U1,9,P2_D8_SCK*%
%TO.N,NEOIN*%
X121119006Y-65890000D03*
%TO.P,U1,10,P4_D9_MISO*%
%TO.N,ROW0*%
X121119006Y-63350000D03*
%TO.P,U1,11,P3_D10_MOSI*%
%TO.N,ROW1*%
X121119006Y-60810000D03*
%TO.P,U1,12,3V3*%
%TO.N,unconnected-(U1-3V3-Pad12)*%
X121119006Y-58270000D03*
%TO.P,U1,13,GND*%
%TO.N,GND*%
X121119006Y-55730000D03*
%TO.P,U1,14,VBUS*%
%TO.N,+5V*%
X121119006Y-53190000D03*
D10*
%TO.P,U1,15*%
%TO.N,N/C*%
X118500000Y-57000000D03*
D20*
X119199006Y-57000000D03*
D10*
%TO.P,U1,16*%
X118500000Y-59540000D03*
D20*
X119199006Y-59540000D03*
D10*
%TO.P,U1,17*%
X118500000Y-62080000D03*
D20*
X119199006Y-62080000D03*
D10*
%TO.P,U1,18*%
X118500000Y-64620000D03*
D20*
X119199006Y-64620000D03*
%TO.P,U1,19*%
X107640000Y-64620000D03*
D10*
X108340000Y-64620000D03*
D20*
%TO.P,U1,20*%
X107640000Y-62080000D03*
D10*
X108340000Y-62080000D03*
D20*
%TO.P,U1,21*%
X107640000Y-59540000D03*
D10*
X108340000Y-59540000D03*
D20*
%TO.P,U1,22*%
X107640000Y-57000000D03*
D10*
X108340000Y-57000000D03*
D21*
%TO.P,U1,23*%
X112499006Y-67140000D03*
D22*
X112499006Y-66384811D03*
D21*
%TO.P,U1,24*%
X114499006Y-67140000D03*
D22*
X114499006Y-66384811D03*
%TD*%
D12*
%TO.P,SW3,1,1*%
%TO.N,COL0*%
X185040000Y-61920000D03*
%TO.P,SW3,2,2*%
%TO.N,Net-(D3-A)*%
X178690000Y-64460000D03*
%TD*%
D11*
%TO.P,D1,1,K*%
%TO.N,ROW0*%
X152000000Y-79000000D03*
D10*
%TO.P,D1,2,A*%
%TO.N,Net-(D1-A)*%
X144380000Y-79000000D03*
%TD*%
%TO.P,R2,1*%
%TO.N,Net-(U1-P7_SCL_D5)*%
X104880000Y-77500000D03*
%TO.P,R2,2*%
%TO.N,+5V*%
X112500000Y-77500000D03*
%TD*%
D11*
%TO.P,D2,1,K*%
%TO.N,ROW0*%
X151310000Y-140000000D03*
D10*
%TO.P,D2,2,A*%
%TO.N,Net-(D2-A)*%
X143690000Y-140000000D03*
%TD*%
D12*
%TO.P,SW2,1,1*%
%TO.N,COL1*%
X150460000Y-122920000D03*
%TO.P,SW2,2,2*%
%TO.N,Net-(D2-A)*%
X144110000Y-125460000D03*
%TD*%
D23*
%TO.P,C6,1*%
%TO.N,+5V*%
X131000000Y-85500000D03*
D10*
%TO.P,C6,2*%
%TO.N,GND*%
X131000000Y-83000000D03*
%TD*%
D11*
%TO.P,D3,1,K*%
%TO.N,ROW0*%
X186120000Y-79000000D03*
D10*
%TO.P,D3,2,A*%
%TO.N,Net-(D3-A)*%
X178500000Y-79000000D03*
%TD*%
D24*
%TO.P,C2,1*%
%TO.N,+5V*%
X138500000Y-53500000D03*
D10*
%TO.P,C2,2*%
%TO.N,GND*%
X138500000Y-56000000D03*
%TD*%
D11*
%TO.P,D10,1,K*%
%TO.N,ROW0*%
X129007416Y-118649325D03*
D10*
%TO.P,D10,2,A*%
%TO.N,ROTENCS2*%
X121387416Y-118649325D03*
%TD*%
%TO.P,C3,1*%
%TO.N,+5V*%
X131500000Y-53000000D03*
%TO.P,C3,2*%
%TO.N,GND*%
X131500000Y-58000000D03*
%TD*%
%TO.P,C8,1*%
%TO.N,+5V*%
X167000000Y-121000000D03*
%TO.P,C8,2*%
%TO.N,GND*%
X164500000Y-121000000D03*
%TD*%
D25*
%TO.N,GND*%
X162124211Y-120404565D03*
X198875689Y-111218757D03*
X106857893Y-103386805D03*
X111763736Y-140078175D03*
X142918309Y-78434083D03*
X146104000Y-125903471D03*
X126300928Y-148875689D03*
X198875689Y-131260883D03*
X148601263Y-69735490D03*
X131226890Y-92387234D03*
X198875689Y-81155568D03*
X126955901Y-62730888D03*
X198875689Y-61113442D03*
X131226890Y-102408297D03*
X146343054Y-148875689D03*
X198875689Y-91176631D03*
X198843757Y-51124311D03*
X198875689Y-141281946D03*
X162124211Y-98033485D03*
X198875689Y-101197694D03*
X136321991Y-148875689D03*
X164185448Y-57114202D03*
X104629753Y-132351726D03*
X172278378Y-69896061D03*
X168965150Y-129169863D03*
X198875689Y-121239820D03*
X142298536Y-98737853D03*
X177847148Y-134319199D03*
X181094916Y-74156398D03*
X104328411Y-122418334D03*
X188822694Y-51124311D03*
X101838436Y-66965558D03*
X150117148Y-109386282D03*
X121961852Y-89948580D03*
X106857893Y-113407868D03*
X133141459Y-82778541D03*
X122730398Y-132419629D03*
X156364117Y-148875689D03*
X174206511Y-57114202D03*
X183446020Y-121948416D03*
X131953043Y-71189760D03*
X132912594Y-113720090D03*
X145953727Y-52653414D03*
X176406243Y-148875689D03*
X121961852Y-99969643D03*
X181094916Y-94412875D03*
X129816360Y-125333667D03*
X166385180Y-148875689D03*
X139180342Y-61847699D03*
X121961852Y-76577709D03*
X187864403Y-135044271D03*
X164029289Y-129387009D03*
X112621578Y-82906105D03*
X153888243Y-78454967D03*
X184006289Y-109129564D03*
X106258802Y-148875689D03*
X162124211Y-72883487D03*
X162124211Y-110383502D03*
X168539770Y-89704956D03*
X185882852Y-66081415D03*
X116279865Y-148875689D03*
X165652422Y-61277384D03*
X107215689Y-52444229D03*
X103698575Y-76266244D03*
X118132091Y-118462579D03*
X106857893Y-93365742D03*
X198875689Y-71134505D03*
X155499774Y-53890289D03*
X186427306Y-148875689D03*
X127551281Y-52403414D03*
X181153376Y-84450272D03*
X118500000Y-67509122D03*
X143002676Y-135077452D03*
X121961852Y-109990706D03*
X151498442Y-90630860D03*
X173754137Y-111260030D03*
%TO.N,COL0*%
X109438661Y-69403154D03*
X128024692Y-62690551D03*
%TO.N,NEOIN*%
X167657935Y-67428454D03*
%TO.N,Net-(D8-DOUT)*%
X163435408Y-124980297D03*
X166111051Y-104937023D03*
%TO.N,Net-(U1-P6_SDA_D4)*%
X124470177Y-81243616D03*
%TO.N,Net-(U1-P7_SCL_D5)*%
X103449253Y-66073346D03*
%TO.N,ROW0*%
X144312956Y-75306719D03*
X134557847Y-108231534D03*
X125514959Y-65943649D03*
X182835819Y-83607420D03*
%TO.N,COL2*%
X131629276Y-77922386D03*
X121886786Y-72913154D03*
%TO.N,COL1*%
X125456820Y-69180700D03*
%TD*%
D26*
%TO.N,Net-(D1-A)*%
X144360000Y-66006303D02*
X144360000Y-65567000D01*
X145046446Y-77089251D02*
X145046446Y-66692749D01*
X145046446Y-66692749D02*
X144360000Y-66006303D01*
X144380000Y-78195000D02*
X144380000Y-77755697D01*
X144360000Y-65567000D02*
X144360000Y-64460000D01*
X144380000Y-79000000D02*
X144380000Y-78195000D01*
X144380000Y-77755697D02*
X145046446Y-77089251D01*
%TO.N,COL0*%
X128024692Y-62690551D02*
X143717301Y-62690551D01*
X179530751Y-57957054D02*
X183493697Y-61920000D01*
X183493697Y-61920000D02*
X183933000Y-61920000D01*
X148450798Y-57957054D02*
X179530751Y-57957054D01*
X107396606Y-67361100D02*
X109438661Y-69403154D01*
X105879000Y-60810000D02*
X105607750Y-61081250D01*
X143717301Y-62690551D02*
X148450798Y-57957054D01*
X105266982Y-67361100D02*
X107396606Y-67361100D01*
X183933000Y-61920000D02*
X185040000Y-61920000D01*
X104232955Y-62456045D02*
X104232955Y-66327072D01*
X105607750Y-61081250D02*
X105025866Y-61663134D01*
X105025866Y-61663134D02*
X104232955Y-62456045D01*
X104232955Y-66327072D02*
X105266982Y-67361100D01*
%TO.N,ROW1*%
X120133040Y-63750540D02*
X120126000Y-63743500D01*
X185568697Y-109500000D02*
X186008000Y-109500000D01*
X132298607Y-77821225D02*
X121590841Y-67113459D01*
X120133040Y-65489460D02*
X120133040Y-63750540D01*
X152000000Y-109500000D02*
X152802000Y-109500000D01*
X152802000Y-109500000D02*
X153241303Y-109500000D01*
X158374808Y-104366495D02*
X180435192Y-104366495D01*
X120126000Y-63743500D02*
X120072516Y-63350000D01*
X120265866Y-62409737D02*
X120265866Y-61663134D01*
X186008000Y-109500000D02*
X186810000Y-109500000D01*
X132298607Y-84731607D02*
X132298607Y-77821225D01*
X153241303Y-109500000D02*
X158374808Y-104366495D01*
X120265866Y-61663134D02*
X120847750Y-61081250D01*
X180435192Y-104366495D02*
X185568697Y-109500000D01*
X120126000Y-62956500D02*
X120265866Y-62409737D01*
X120117099Y-65505401D02*
X120133040Y-65489460D01*
X120117099Y-66308827D02*
X120117099Y-65505401D01*
X149088205Y-105346902D02*
X149088205Y-101521205D01*
X149088205Y-101521205D02*
X132298607Y-84731607D01*
X152000000Y-108698000D02*
X152000000Y-108258697D01*
X120921732Y-67113459D02*
X120117099Y-66308827D01*
X152000000Y-108258697D02*
X149088205Y-105346902D01*
X152000000Y-109500000D02*
X152000000Y-108698000D01*
X121590841Y-67113459D02*
X120921732Y-67113459D01*
X120847750Y-61081250D02*
X121119000Y-60810000D01*
X120072516Y-63350000D02*
X120126000Y-62956500D01*
%TO.N,NEOIN*%
X150539721Y-64195973D02*
X149462227Y-63118479D01*
X164425454Y-64195973D02*
X150539721Y-64195973D01*
X167657935Y-67428454D02*
X164425454Y-64195973D01*
X123774948Y-64440356D02*
X122325303Y-65890000D01*
X149462227Y-63118479D02*
X142518604Y-63118479D01*
X121886000Y-65890000D02*
X121119000Y-65890000D01*
X141196728Y-64440356D02*
X123774948Y-64440356D01*
X122325303Y-65890000D02*
X121886000Y-65890000D01*
X142518604Y-63118479D02*
X141196728Y-64440356D01*
%TO.N,Net-(D8-DOUT)*%
X166111051Y-104937023D02*
X163435408Y-107612666D01*
X163435408Y-107612666D02*
X163435408Y-124980297D01*
%TO.N,Net-(U1-P6_SDA_D4)*%
X107714784Y-66908471D02*
X105375719Y-66908471D01*
X116029510Y-75223197D02*
X107714784Y-66908471D01*
X124470177Y-81243616D02*
X124470177Y-80029823D01*
X119310000Y-89500000D02*
X119310000Y-88741000D01*
X105607750Y-63621250D02*
X105879000Y-63350000D01*
X104877619Y-64351381D02*
X105025866Y-64203134D01*
X105375719Y-66908471D02*
X104877619Y-66410371D01*
X118066662Y-86148172D02*
X116029510Y-84111021D01*
X126133383Y-78366617D02*
X126715250Y-77784750D01*
X105025866Y-64203134D02*
X105607750Y-63621250D01*
X116029510Y-84111021D02*
X116029510Y-75223197D01*
X126715250Y-77784750D02*
X127000000Y-77500000D01*
X119310000Y-88301697D02*
X118066662Y-87058359D01*
X118066662Y-87058359D02*
X118066662Y-86148172D01*
X119310000Y-88741000D02*
X119310000Y-88301697D01*
X104877619Y-66410371D02*
X104877619Y-64351381D01*
X124470177Y-80029823D02*
X126133383Y-78366617D01*
%TO.N,Net-(U1-P7_SCL_D5)*%
X104880000Y-77500000D02*
X104880000Y-76695000D01*
X104880000Y-77500000D02*
X105164750Y-77784750D01*
X116770000Y-88301697D02*
X116770000Y-88741000D01*
X116770000Y-88741000D02*
X116770000Y-89500000D01*
X104880000Y-76255697D02*
X103449253Y-74824949D01*
X109994278Y-78380134D02*
X115005132Y-83390988D01*
X115005132Y-83542644D02*
X116770000Y-85307513D01*
X103449253Y-74824949D02*
X103449253Y-66073346D01*
X105760134Y-78380134D02*
X109994278Y-78380134D01*
X116770000Y-85307513D02*
X116770000Y-88301697D01*
X104880000Y-76695000D02*
X104880000Y-76255697D01*
X105164750Y-77784750D02*
X105760134Y-78380134D01*
X115005132Y-83390988D02*
X115005132Y-83542644D01*
%TO.N,ROW0*%
X129007500Y-113781881D02*
X129007500Y-117408697D01*
X129007500Y-118649500D02*
X129007500Y-119451000D01*
X157848723Y-83607420D02*
X182835819Y-83607420D01*
X150106930Y-140000000D02*
X150508000Y-140000000D01*
X152000000Y-79000000D02*
X152802000Y-79000000D01*
X153241303Y-79000000D02*
X157848723Y-83607420D01*
X129007500Y-119451000D02*
X129007500Y-119890303D01*
X134557847Y-108231534D02*
X129007500Y-113781881D01*
X129007500Y-117848000D02*
X129007500Y-118649500D01*
X134878029Y-75306719D02*
X144312956Y-75306719D01*
X125514959Y-65943649D02*
X134878029Y-75306719D01*
X149117197Y-140000000D02*
X150106930Y-140000000D01*
X152802000Y-79000000D02*
X153241303Y-79000000D01*
X129007500Y-119890303D02*
X149117197Y-140000000D01*
X129007500Y-117408697D02*
X129007500Y-117848000D01*
X150508000Y-140000000D02*
X151310000Y-140000000D01*
%TO.N,COL2*%
X152256303Y-61920000D02*
X151817000Y-61920000D01*
X185040000Y-92420000D02*
X185040000Y-91313000D01*
X185040000Y-91313000D02*
X185040000Y-90873697D01*
X151817000Y-61920000D02*
X150710000Y-61920000D01*
X126620044Y-72913154D02*
X131629276Y-77922386D01*
X185040000Y-83849656D02*
X163110344Y-61920000D01*
X121886786Y-72913154D02*
X126620044Y-72913154D01*
X185040000Y-90873697D02*
X185040000Y-83849656D01*
X163110344Y-61920000D02*
X152256303Y-61920000D01*
%TO.N,COL1*%
X150568500Y-92028500D02*
X150960000Y-92420000D01*
X149866366Y-91326366D02*
X150568500Y-92028500D01*
X125456820Y-69180700D02*
X127720700Y-69180700D01*
X127720700Y-69180700D02*
X149866366Y-91326366D01*
%TO.N,Net-(U1-P1_D7_RX)*%
X106406000Y-129436000D02*
X106406000Y-128996697D01*
X121119000Y-114283697D02*
X121119000Y-69636303D01*
X106406000Y-130436000D02*
X106406000Y-129436000D01*
X121119000Y-69197000D02*
X121119000Y-68430000D01*
X106406000Y-128996697D02*
X121119000Y-114283697D01*
X121119000Y-69636303D02*
X121119000Y-69197000D01*
%TD*%
%TA.AperFunction,Conductor*%
%TO.N,GND*%
G36*
X199480442Y-50519558D02*
G01*
X199483869Y-50527831D01*
X199483869Y-149472169D01*
X199480442Y-149480442D01*
X199472169Y-149483869D01*
X100527831Y-149483869D01*
X100519558Y-149480442D01*
X100516131Y-149472169D01*
X100516131Y-139906148D01*
X142737100Y-139906148D01*
X142737100Y-140093851D01*
X142773719Y-140277951D01*
X142845550Y-140451366D01*
X142845554Y-140451374D01*
X142949833Y-140607438D01*
X142949836Y-140607442D01*
X143082557Y-140740163D01*
X143082561Y-140740166D01*
X143238625Y-140844445D01*
X143238629Y-140844447D01*
X143238632Y-140844449D01*
X143412049Y-140916281D01*
X143596148Y-140952900D01*
X143596149Y-140952900D01*
X143783851Y-140952900D01*
X143783852Y-140952900D01*
X143967951Y-140916281D01*
X144141368Y-140844449D01*
X144297439Y-140740166D01*
X144430166Y-140607439D01*
X144534449Y-140451368D01*
X144606281Y-140277951D01*
X144642900Y-140093852D01*
X144642900Y-139906148D01*
X144606281Y-139722049D01*
X144534449Y-139548632D01*
X144534447Y-139548629D01*
X144534445Y-139548625D01*
X144430166Y-139392561D01*
X144430163Y-139392557D01*
X144297442Y-139259836D01*
X144297438Y-139259833D01*
X144141374Y-139155554D01*
X144141366Y-139155550D01*
X143967951Y-139083719D01*
X143783852Y-139047100D01*
X143596148Y-139047100D01*
X143521023Y-139062043D01*
X143412048Y-139083719D01*
X143238633Y-139155550D01*
X143238625Y-139155554D01*
X143082561Y-139259833D01*
X143082557Y-139259836D01*
X142949836Y-139392557D01*
X142949833Y-139392561D01*
X142845554Y-139548625D01*
X142845550Y-139548633D01*
X142773719Y-139722048D01*
X142737100Y-139906148D01*
X100516131Y-139906148D01*
X100516131Y-137521067D01*
X112152887Y-137521067D01*
X112152887Y-139551180D01*
X112161758Y-139595781D01*
X112161759Y-139595782D01*
X112195553Y-139646358D01*
X112246129Y-139680152D01*
X112290730Y-139689024D01*
X115520843Y-139689023D01*
X115565445Y-139680152D01*
X115616021Y-139646358D01*
X115649815Y-139595782D01*
X115658687Y-139551181D01*
X115658686Y-137521068D01*
X115649815Y-137476466D01*
X115616021Y-137425890D01*
X115565445Y-137392096D01*
X115520844Y-137383224D01*
X115520843Y-137383224D01*
X112290730Y-137383224D01*
X112246129Y-137392095D01*
X112246128Y-137392096D01*
X112195553Y-137425889D01*
X112195552Y-137425890D01*
X112161759Y-137476465D01*
X112152887Y-137521067D01*
X100516131Y-137521067D01*
X100516131Y-135345388D01*
X105252887Y-135345388D01*
X105252887Y-135526859D01*
X105281273Y-135706087D01*
X105281275Y-135706095D01*
X105337353Y-135878684D01*
X105411957Y-136025105D01*
X105419741Y-136040381D01*
X105526396Y-136187178D01*
X105526400Y-136187182D01*
X105526404Y-136187188D01*
X105654723Y-136315507D01*
X105654728Y-136315511D01*
X105654732Y-136315514D01*
X105801529Y-136422169D01*
X105801534Y-136422171D01*
X105801536Y-136422173D01*
X105963227Y-136504558D01*
X106135816Y-136560636D01*
X106208760Y-136572189D01*
X106315051Y-136589024D01*
X106315052Y-136589024D01*
X106496522Y-136589024D01*
X106675758Y-136560636D01*
X106848347Y-136504558D01*
X107010038Y-136422173D01*
X107156851Y-136315507D01*
X107285170Y-136187188D01*
X107391836Y-136040375D01*
X107474221Y-135878684D01*
X107530299Y-135706095D01*
X107558687Y-135526859D01*
X107558687Y-135345389D01*
X107558687Y-135345388D01*
X119752887Y-135345388D01*
X119752887Y-135526859D01*
X119781273Y-135706087D01*
X119781275Y-135706095D01*
X119837353Y-135878684D01*
X119911957Y-136025105D01*
X119919741Y-136040381D01*
X120026396Y-136187178D01*
X120026400Y-136187182D01*
X120026404Y-136187188D01*
X120154723Y-136315507D01*
X120154728Y-136315511D01*
X120154732Y-136315514D01*
X120301529Y-136422169D01*
X120301534Y-136422171D01*
X120301536Y-136422173D01*
X120463227Y-136504558D01*
X120635816Y-136560636D01*
X120708760Y-136572189D01*
X120815051Y-136589024D01*
X120815052Y-136589024D01*
X120996522Y-136589024D01*
X121175758Y-136560636D01*
X121348347Y-136504558D01*
X121510038Y-136422173D01*
X121656851Y-136315507D01*
X121785170Y-136187188D01*
X121891836Y-136040375D01*
X121974221Y-135878684D01*
X122030299Y-135706095D01*
X122058687Y-135526859D01*
X122058687Y-135345389D01*
X122030299Y-135166153D01*
X121974221Y-134993564D01*
X121891836Y-134831873D01*
X121891834Y-134831871D01*
X121891832Y-134831866D01*
X121785177Y-134685069D01*
X121785174Y-134685065D01*
X121785170Y-134685060D01*
X121656851Y-134556741D01*
X121656845Y-134556737D01*
X121656841Y-134556733D01*
X121510044Y-134450078D01*
X121494768Y-134442294D01*
X121348347Y-134367690D01*
X121348344Y-134367689D01*
X121348342Y-134367688D01*
X121175762Y-134311613D01*
X121175750Y-134311610D01*
X120996523Y-134283224D01*
X120996522Y-134283224D01*
X120815052Y-134283224D01*
X120815051Y-134283224D01*
X120635823Y-134311610D01*
X120635811Y-134311613D01*
X120463231Y-134367688D01*
X120301529Y-134450078D01*
X120154732Y-134556733D01*
X120154716Y-134556747D01*
X120026410Y-134685053D01*
X120026396Y-134685069D01*
X119919741Y-134831866D01*
X119837351Y-134993568D01*
X119781276Y-135166148D01*
X119781273Y-135166160D01*
X119752887Y-135345388D01*
X107558687Y-135345388D01*
X107530299Y-135166153D01*
X107474221Y-134993564D01*
X107391836Y-134831873D01*
X107391834Y-134831871D01*
X107391832Y-134831866D01*
X107285177Y-134685069D01*
X107285174Y-134685065D01*
X107285170Y-134685060D01*
X107156851Y-134556741D01*
X107156845Y-134556737D01*
X107156841Y-134556733D01*
X107010044Y-134450078D01*
X106994768Y-134442294D01*
X106848347Y-134367690D01*
X106848344Y-134367689D01*
X106848342Y-134367688D01*
X106675762Y-134311613D01*
X106675750Y-134311610D01*
X106496523Y-134283224D01*
X106496522Y-134283224D01*
X106315052Y-134283224D01*
X106315051Y-134283224D01*
X106135823Y-134311610D01*
X106135811Y-134311613D01*
X105963231Y-134367688D01*
X105801529Y-134450078D01*
X105654732Y-134556733D01*
X105654716Y-134556747D01*
X105526410Y-134685053D01*
X105526396Y-134685069D01*
X105419741Y-134831866D01*
X105337351Y-134993568D01*
X105281276Y-135166148D01*
X105281273Y-135166160D01*
X105252887Y-135345388D01*
X100516131Y-135345388D01*
X100516131Y-132835131D01*
X105380387Y-132835131D01*
X105380387Y-133037116D01*
X105419793Y-133235222D01*
X105497089Y-133421831D01*
X105497093Y-133421839D01*
X105609306Y-133589777D01*
X105609309Y-133589781D01*
X105626837Y-133607309D01*
X106000317Y-133233829D01*
X106005688Y-133243131D01*
X106098780Y-133336223D01*
X106108080Y-133341592D01*
X105734601Y-133715072D01*
X105752129Y-133732601D01*
X105752133Y-133732604D01*
X105920071Y-133844817D01*
X105920079Y-133844821D01*
X106106688Y-133922117D01*
X106304795Y-133961524D01*
X106506779Y-133961524D01*
X106704885Y-133922117D01*
X106891494Y-133844821D01*
X106891502Y-133844817D01*
X107059438Y-133732606D01*
X107076972Y-133715072D01*
X106703492Y-133341592D01*
X106712794Y-133336223D01*
X106805886Y-133243131D01*
X106811255Y-133233829D01*
X107184735Y-133607309D01*
X107202269Y-133589775D01*
X107314480Y-133421839D01*
X107314484Y-133421831D01*
X107391780Y-133235222D01*
X107431187Y-133037116D01*
X107431187Y-132835131D01*
X107391780Y-132637025D01*
X107314484Y-132450416D01*
X107314480Y-132450408D01*
X107202267Y-132282470D01*
X107202264Y-132282466D01*
X107184735Y-132264938D01*
X106811255Y-132638417D01*
X106805886Y-132629117D01*
X106712794Y-132536025D01*
X106703491Y-132530654D01*
X107076972Y-132157175D01*
X107076972Y-132157174D01*
X107059444Y-132139646D01*
X107059440Y-132139643D01*
X106891502Y-132027430D01*
X106891494Y-132027426D01*
X106704885Y-131950130D01*
X106506779Y-131910724D01*
X106304795Y-131910724D01*
X106106688Y-131950130D01*
X105920079Y-132027426D01*
X105920071Y-132027430D01*
X105752133Y-132139643D01*
X105752129Y-132139646D01*
X105734601Y-132157174D01*
X106108081Y-132530654D01*
X106098780Y-132536025D01*
X106005688Y-132629117D01*
X106000318Y-132638418D01*
X105626838Y-132264938D01*
X105626837Y-132264938D01*
X105609309Y-132282466D01*
X105609306Y-132282470D01*
X105497093Y-132450408D01*
X105497089Y-132450416D01*
X105419793Y-132637025D01*
X105380387Y-132835131D01*
X100516131Y-132835131D01*
X100516131Y-129421067D01*
X105252887Y-129421067D01*
X105252887Y-131451180D01*
X105261758Y-131495781D01*
X105261759Y-131495782D01*
X105295553Y-131546358D01*
X105346129Y-131580152D01*
X105390730Y-131589024D01*
X107420843Y-131589023D01*
X107465445Y-131580152D01*
X107516021Y-131546358D01*
X107549815Y-131495782D01*
X107558687Y-131451181D01*
X107558686Y-130345388D01*
X119752887Y-130345388D01*
X119752887Y-130526859D01*
X119781273Y-130706087D01*
X119781275Y-130706095D01*
X119837353Y-130878684D01*
X119911957Y-131025105D01*
X119919741Y-131040381D01*
X120026396Y-131187178D01*
X120026400Y-131187182D01*
X120026404Y-131187188D01*
X120154723Y-131315507D01*
X120154728Y-131315511D01*
X120154732Y-131315514D01*
X120301529Y-131422169D01*
X120301534Y-131422171D01*
X120301536Y-131422173D01*
X120463227Y-131504558D01*
X120635816Y-131560636D01*
X120708760Y-131572189D01*
X120815051Y-131589024D01*
X120815052Y-131589024D01*
X120996522Y-131589024D01*
X121175758Y-131560636D01*
X121348347Y-131504558D01*
X121510038Y-131422173D01*
X121656851Y-131315507D01*
X121785170Y-131187188D01*
X121891836Y-131040375D01*
X121974221Y-130878684D01*
X122030299Y-130706095D01*
X122058687Y-130526859D01*
X122058687Y-130345389D01*
X122030299Y-130166153D01*
X121974221Y-129993564D01*
X121891836Y-129831873D01*
X121891834Y-129831871D01*
X121891832Y-129831866D01*
X121785177Y-129685069D01*
X121785174Y-129685065D01*
X121785170Y-129685060D01*
X121656851Y-129556741D01*
X121656845Y-129556737D01*
X121656841Y-129556733D01*
X121510044Y-129450078D01*
X121456028Y-129422556D01*
X121348347Y-129367690D01*
X121348344Y-129367689D01*
X121348342Y-129367688D01*
X121175762Y-129311613D01*
X121175750Y-129311610D01*
X120996523Y-129283224D01*
X120996522Y-129283224D01*
X120815052Y-129283224D01*
X120815051Y-129283224D01*
X120635823Y-129311610D01*
X120635811Y-129311613D01*
X120463231Y-129367688D01*
X120301529Y-129450078D01*
X120154732Y-129556733D01*
X120154716Y-129556747D01*
X120026410Y-129685053D01*
X120026396Y-129685069D01*
X119919741Y-129831866D01*
X119837351Y-129993568D01*
X119781276Y-130166148D01*
X119781273Y-130166160D01*
X119752887Y-130345388D01*
X107558686Y-130345388D01*
X107558686Y-129421068D01*
X107549815Y-129376466D01*
X107516021Y-129325890D01*
X107465445Y-129292096D01*
X107420844Y-129283224D01*
X107420843Y-129283224D01*
X106646876Y-129283224D01*
X106638603Y-129279797D01*
X106635176Y-129271524D01*
X106635176Y-129096471D01*
X106638603Y-129088198D01*
X109405734Y-126321067D01*
X112152887Y-126321067D01*
X112152887Y-128351180D01*
X112161758Y-128395781D01*
X112161759Y-128395782D01*
X112195553Y-128446358D01*
X112246129Y-128480152D01*
X112290730Y-128489024D01*
X115520843Y-128489023D01*
X115565445Y-128480152D01*
X115616021Y-128446358D01*
X115649815Y-128395782D01*
X115658687Y-128351181D01*
X115658686Y-126321068D01*
X115649815Y-126276466D01*
X115616021Y-126225890D01*
X115565445Y-126192096D01*
X115520844Y-126183224D01*
X115520843Y-126183224D01*
X112290730Y-126183224D01*
X112246129Y-126192095D01*
X112246128Y-126192096D01*
X112195553Y-126225889D01*
X112195552Y-126225890D01*
X112161759Y-126276465D01*
X112152887Y-126321067D01*
X109405734Y-126321067D01*
X117171328Y-118555473D01*
X120434516Y-118555473D01*
X120434516Y-118743176D01*
X120471135Y-118927276D01*
X120542966Y-119100691D01*
X120542970Y-119100699D01*
X120647249Y-119256763D01*
X120647252Y-119256767D01*
X120779973Y-119389488D01*
X120779977Y-119389491D01*
X120936041Y-119493770D01*
X120936045Y-119493772D01*
X120936048Y-119493774D01*
X121109465Y-119565606D01*
X121293564Y-119602225D01*
X121293565Y-119602225D01*
X121481267Y-119602225D01*
X121481268Y-119602225D01*
X121665367Y-119565606D01*
X121838784Y-119493774D01*
X121994855Y-119389491D01*
X122127582Y-119256764D01*
X122231865Y-119100693D01*
X122303697Y-118927276D01*
X122340316Y-118743177D01*
X122340316Y-118555473D01*
X122303697Y-118371374D01*
X122231865Y-118197957D01*
X122231863Y-118197954D01*
X122231861Y-118197950D01*
X122148811Y-118073657D01*
X122144774Y-118067616D01*
X128054516Y-118067616D01*
X128054516Y-119231033D01*
X128069458Y-119325378D01*
X128069458Y-119325379D01*
X128069459Y-119325380D01*
X128127400Y-119439096D01*
X128217645Y-119529341D01*
X128331361Y-119587282D01*
X128378534Y-119594753D01*
X128425707Y-119602225D01*
X128425708Y-119602225D01*
X128766624Y-119602225D01*
X128774897Y-119605652D01*
X128778324Y-119613925D01*
X128778324Y-119935891D01*
X128813213Y-120020119D01*
X128813214Y-120020121D01*
X148987379Y-140194286D01*
X149040494Y-140216287D01*
X149071608Y-140229175D01*
X149071609Y-140229175D01*
X149071611Y-140229176D01*
X149162783Y-140229176D01*
X150061344Y-140229176D01*
X150345400Y-140229176D01*
X150353673Y-140232603D01*
X150357100Y-140240876D01*
X150357100Y-140581708D01*
X150372042Y-140676053D01*
X150372042Y-140676054D01*
X150372043Y-140676055D01*
X150429984Y-140789771D01*
X150520229Y-140880016D01*
X150633945Y-140937957D01*
X150681118Y-140945428D01*
X150728291Y-140952900D01*
X150728292Y-140952900D01*
X151891708Y-140952900D01*
X151986055Y-140937957D01*
X152099771Y-140880016D01*
X152190016Y-140789771D01*
X152247957Y-140676055D01*
X152262900Y-140581708D01*
X152262900Y-139906148D01*
X178047100Y-139906148D01*
X178047100Y-140093851D01*
X178083719Y-140277951D01*
X178155550Y-140451366D01*
X178155554Y-140451374D01*
X178259833Y-140607438D01*
X178259836Y-140607442D01*
X178392557Y-140740163D01*
X178392561Y-140740166D01*
X178548625Y-140844445D01*
X178548629Y-140844447D01*
X178548632Y-140844449D01*
X178722049Y-140916281D01*
X178906148Y-140952900D01*
X178906149Y-140952900D01*
X179093851Y-140952900D01*
X179093852Y-140952900D01*
X179277951Y-140916281D01*
X179451368Y-140844449D01*
X179607439Y-140740166D01*
X179740166Y-140607439D01*
X179844449Y-140451368D01*
X179916281Y-140277951D01*
X179952900Y-140093852D01*
X179952900Y-139906148D01*
X179916281Y-139722049D01*
X179844449Y-139548632D01*
X179844447Y-139548629D01*
X179844445Y-139548625D01*
X179761395Y-139424332D01*
X179757358Y-139418291D01*
X185667100Y-139418291D01*
X185667100Y-140581708D01*
X185682042Y-140676053D01*
X185682042Y-140676054D01*
X185682043Y-140676055D01*
X185739984Y-140789771D01*
X185830229Y-140880016D01*
X185943945Y-140937957D01*
X185991118Y-140945428D01*
X186038291Y-140952900D01*
X186038292Y-140952900D01*
X187201708Y-140952900D01*
X187296055Y-140937957D01*
X187409771Y-140880016D01*
X187500016Y-140789771D01*
X187557957Y-140676055D01*
X187572900Y-140581708D01*
X187572900Y-139418292D01*
X187557957Y-139323945D01*
X187500016Y-139210229D01*
X187409771Y-139119984D01*
X187296055Y-139062043D01*
X187296054Y-139062042D01*
X187296053Y-139062042D01*
X187201709Y-139047100D01*
X187201708Y-139047100D01*
X186038292Y-139047100D01*
X186038291Y-139047100D01*
X185943946Y-139062042D01*
X185830228Y-139119984D01*
X185739984Y-139210228D01*
X185682042Y-139323946D01*
X185667100Y-139418291D01*
X179757358Y-139418291D01*
X179740166Y-139392561D01*
X179740163Y-139392557D01*
X179607442Y-139259836D01*
X179607438Y-139259833D01*
X179451374Y-139155554D01*
X179451366Y-139155550D01*
X179277951Y-139083719D01*
X179093852Y-139047100D01*
X178906148Y-139047100D01*
X178831023Y-139062043D01*
X178722048Y-139083719D01*
X178548633Y-139155550D01*
X178548625Y-139155554D01*
X178392561Y-139259833D01*
X178392557Y-139259836D01*
X178259836Y-139392557D01*
X178259833Y-139392561D01*
X178155554Y-139548625D01*
X178155550Y-139548633D01*
X178083719Y-139722048D01*
X178047100Y-139906148D01*
X152262900Y-139906148D01*
X152262900Y-139418292D01*
X152247957Y-139323945D01*
X152190016Y-139210229D01*
X152099771Y-139119984D01*
X151986055Y-139062043D01*
X151986054Y-139062042D01*
X151986053Y-139062042D01*
X151891709Y-139047100D01*
X151891708Y-139047100D01*
X150728292Y-139047100D01*
X150728291Y-139047100D01*
X150633946Y-139062042D01*
X150520228Y-139119984D01*
X150429984Y-139210228D01*
X150372042Y-139323946D01*
X150357100Y-139418291D01*
X150357100Y-139759124D01*
X150353673Y-139767397D01*
X150345400Y-139770824D01*
X149216971Y-139770824D01*
X149208698Y-139767397D01*
X137342524Y-127901223D01*
X141837100Y-127901223D01*
X141837100Y-128098776D01*
X141875641Y-128292535D01*
X141951240Y-128475049D01*
X141951244Y-128475057D01*
X142060995Y-128639311D01*
X142060998Y-128639315D01*
X142200684Y-128779001D01*
X142200688Y-128779004D01*
X142364942Y-128888755D01*
X142364946Y-128888757D01*
X142364949Y-128888759D01*
X142547465Y-128964359D01*
X142741223Y-129002900D01*
X142741224Y-129002900D01*
X142938776Y-129002900D01*
X142938777Y-129002900D01*
X143132535Y-128964359D01*
X143315051Y-128888759D01*
X143479312Y-128779004D01*
X143619004Y-128639312D01*
X143728759Y-128475051D01*
X143804359Y-128292535D01*
X143842900Y-128098777D01*
X143842900Y-127901223D01*
X143834480Y-127858892D01*
X145767100Y-127858892D01*
X145767100Y-128141107D01*
X145803936Y-128420909D01*
X145876979Y-128693510D01*
X145876983Y-128693521D01*
X145984977Y-128954241D01*
X145984980Y-128954246D01*
X146126081Y-129198641D01*
X146126095Y-129198661D01*
X146188353Y-129279797D01*
X146297891Y-129422551D01*
X146497449Y-129622109D01*
X146721347Y-129793911D01*
X146721352Y-129793914D01*
X146721358Y-129793918D01*
X146869376Y-129879376D01*
X146965754Y-129935020D01*
X146965756Y-129935020D01*
X146965758Y-129935022D01*
X147226478Y-130043016D01*
X147226488Y-130043020D01*
X147499089Y-130116063D01*
X147778892Y-130152900D01*
X148061108Y-130152900D01*
X148340911Y-130116063D01*
X148613512Y-130043020D01*
X148874246Y-129935020D01*
X149118653Y-129793911D01*
X149342551Y-129622109D01*
X149542109Y-129422551D01*
X149713911Y-129198653D01*
X149855020Y-128954246D01*
X149963020Y-128693512D01*
X150036063Y-128420911D01*
X150072900Y-128141108D01*
X150072900Y-127901223D01*
X151997100Y-127901223D01*
X151997100Y-128098776D01*
X152035641Y-128292535D01*
X152111240Y-128475049D01*
X152111244Y-128475057D01*
X152220995Y-128639311D01*
X152220998Y-128639315D01*
X152360684Y-128779001D01*
X152360688Y-128779004D01*
X152524942Y-128888755D01*
X152524946Y-128888757D01*
X152524949Y-128888759D01*
X152707465Y-128964359D01*
X152901223Y-129002900D01*
X152901224Y-129002900D01*
X153098776Y-129002900D01*
X153098777Y-129002900D01*
X153292535Y-128964359D01*
X153475051Y-128888759D01*
X153639312Y-128779004D01*
X153779004Y-128639312D01*
X153888759Y-128475051D01*
X153964359Y-128292535D01*
X154002900Y-128098777D01*
X154002900Y-127901223D01*
X176417100Y-127901223D01*
X176417100Y-128098776D01*
X176455641Y-128292535D01*
X176531240Y-128475049D01*
X176531244Y-128475057D01*
X176640995Y-128639311D01*
X176640998Y-128639315D01*
X176780684Y-128779001D01*
X176780688Y-128779004D01*
X176944942Y-128888755D01*
X176944946Y-128888757D01*
X176944949Y-128888759D01*
X177127465Y-128964359D01*
X177321223Y-129002900D01*
X177321224Y-129002900D01*
X177518776Y-129002900D01*
X177518777Y-129002900D01*
X177712535Y-128964359D01*
X177895051Y-128888759D01*
X178059312Y-128779004D01*
X178199004Y-128639312D01*
X178308759Y-128475051D01*
X178384359Y-128292535D01*
X178422900Y-128098777D01*
X178422900Y-127901223D01*
X178414480Y-127858892D01*
X180347100Y-127858892D01*
X180347100Y-128141107D01*
X180383936Y-128420909D01*
X180456979Y-128693510D01*
X180456983Y-128693521D01*
X180564977Y-128954241D01*
X180564980Y-128954246D01*
X180706081Y-129198641D01*
X180706095Y-129198661D01*
X180768353Y-129279797D01*
X180877891Y-129422551D01*
X181077449Y-129622109D01*
X181301347Y-129793911D01*
X181301352Y-129793914D01*
X181301358Y-129793918D01*
X181449376Y-129879376D01*
X181545754Y-129935020D01*
X181545756Y-129935020D01*
X181545758Y-129935022D01*
X181806478Y-130043016D01*
X181806488Y-130043020D01*
X182079089Y-130116063D01*
X182358892Y-130152900D01*
X182641108Y-130152900D01*
X182920911Y-130116063D01*
X183193512Y-130043020D01*
X183454246Y-129935020D01*
X183698653Y-129793911D01*
X183922551Y-129622109D01*
X184122109Y-129422551D01*
X184293911Y-129198653D01*
X184435020Y-128954246D01*
X184543020Y-128693512D01*
X184616063Y-128420911D01*
X184652900Y-128141108D01*
X184652900Y-127901223D01*
X186577100Y-127901223D01*
X186577100Y-128098776D01*
X186615641Y-128292535D01*
X186691240Y-128475049D01*
X186691244Y-128475057D01*
X186800995Y-128639311D01*
X186800998Y-128639315D01*
X186940684Y-128779001D01*
X186940688Y-128779004D01*
X187104942Y-128888755D01*
X187104946Y-128888757D01*
X187104949Y-128888759D01*
X187287465Y-128964359D01*
X187481223Y-129002900D01*
X187481224Y-129002900D01*
X187678776Y-129002900D01*
X187678777Y-129002900D01*
X187872535Y-128964359D01*
X188055051Y-128888759D01*
X188219312Y-128779004D01*
X188359004Y-128639312D01*
X188468759Y-128475051D01*
X188544359Y-128292535D01*
X188582900Y-128098777D01*
X188582900Y-127901223D01*
X188544359Y-127707465D01*
X188468759Y-127524949D01*
X188468757Y-127524946D01*
X188468755Y-127524942D01*
X188359004Y-127360688D01*
X188359001Y-127360684D01*
X188219315Y-127220998D01*
X188219311Y-127220995D01*
X188055057Y-127111244D01*
X188055049Y-127111240D01*
X187872535Y-127035641D01*
X187678777Y-126997100D01*
X187481223Y-126997100D01*
X187384344Y-127016370D01*
X187287464Y-127035641D01*
X187104950Y-127111240D01*
X187104942Y-127111244D01*
X186940688Y-127220995D01*
X186940684Y-127220998D01*
X186800998Y-127360684D01*
X186800995Y-127360688D01*
X186691244Y-127524942D01*
X186691240Y-127524950D01*
X186615641Y-127707464D01*
X186577100Y-127901223D01*
X184652900Y-127901223D01*
X184652900Y-127858892D01*
X184616063Y-127579089D01*
X184543020Y-127306488D01*
X184507608Y-127220996D01*
X184435022Y-127045758D01*
X184435019Y-127045753D01*
X184293918Y-126801358D01*
X184293914Y-126801352D01*
X184293911Y-126801347D01*
X184122109Y-126577449D01*
X183922551Y-126377891D01*
X183922542Y-126377884D01*
X183698661Y-126206095D01*
X183698658Y-126206093D01*
X183698653Y-126206089D01*
X183698649Y-126206087D01*
X183698641Y-126206081D01*
X183454246Y-126064980D01*
X183454241Y-126064977D01*
X183193521Y-125956983D01*
X183193510Y-125956979D01*
X182920909Y-125883936D01*
X182641108Y-125847100D01*
X182358892Y-125847100D01*
X182079090Y-125883936D01*
X181806489Y-125956979D01*
X181806478Y-125956983D01*
X181545758Y-126064977D01*
X181545753Y-126064980D01*
X181301358Y-126206081D01*
X181301338Y-126206095D01*
X181077457Y-126377884D01*
X181077443Y-126377896D01*
X180877896Y-126577443D01*
X180877884Y-126577457D01*
X180706095Y-126801338D01*
X180706081Y-126801358D01*
X180564980Y-127045753D01*
X180564977Y-127045758D01*
X180456983Y-127306478D01*
X180456979Y-127306489D01*
X180383936Y-127579090D01*
X180347100Y-127858892D01*
X178414480Y-127858892D01*
X178384359Y-127707465D01*
X178308759Y-127524949D01*
X178308757Y-127524946D01*
X178308755Y-127524942D01*
X178199004Y-127360688D01*
X178199001Y-127360684D01*
X178059315Y-127220998D01*
X178059311Y-127220995D01*
X177895057Y-127111244D01*
X177895049Y-127111240D01*
X177712535Y-127035641D01*
X177518777Y-126997100D01*
X177321223Y-126997100D01*
X177224344Y-127016370D01*
X177127464Y-127035641D01*
X176944950Y-127111240D01*
X176944942Y-127111244D01*
X176780688Y-127220995D01*
X176780684Y-127220998D01*
X176640998Y-127360684D01*
X176640995Y-127360688D01*
X176531244Y-127524942D01*
X176531240Y-127524950D01*
X176455641Y-127707464D01*
X176417100Y-127901223D01*
X154002900Y-127901223D01*
X153964359Y-127707465D01*
X153888759Y-127524949D01*
X153888757Y-127524946D01*
X153888755Y-127524942D01*
X153779004Y-127360688D01*
X153779001Y-127360684D01*
X153639315Y-127220998D01*
X153639311Y-127220995D01*
X153475057Y-127111244D01*
X153475049Y-127111240D01*
X153292535Y-127035641D01*
X153098777Y-126997100D01*
X152901223Y-126997100D01*
X152804344Y-127016370D01*
X152707464Y-127035641D01*
X152524950Y-127111240D01*
X152524942Y-127111244D01*
X152360688Y-127220995D01*
X152360684Y-127220998D01*
X152220998Y-127360684D01*
X152220995Y-127360688D01*
X152111244Y-127524942D01*
X152111240Y-127524950D01*
X152035641Y-127707464D01*
X151997100Y-127901223D01*
X150072900Y-127901223D01*
X150072900Y-127858892D01*
X150036063Y-127579089D01*
X149963020Y-127306488D01*
X149927608Y-127220996D01*
X149855022Y-127045758D01*
X149855019Y-127045753D01*
X149713918Y-126801358D01*
X149713914Y-126801352D01*
X149713911Y-126801347D01*
X149542109Y-126577449D01*
X149342551Y-126377891D01*
X149342542Y-126377884D01*
X149118661Y-126206095D01*
X149118658Y-126206093D01*
X149118653Y-126206089D01*
X149118649Y-126206087D01*
X149118641Y-126206081D01*
X148874246Y-126064980D01*
X148874241Y-126064977D01*
X148613521Y-125956983D01*
X148613510Y-125956979D01*
X148340909Y-125883936D01*
X148061108Y-125847100D01*
X147778892Y-125847100D01*
X147499090Y-125883936D01*
X147226489Y-125956979D01*
X147226478Y-125956983D01*
X146965758Y-126064977D01*
X146965753Y-126064980D01*
X146721358Y-126206081D01*
X146721338Y-126206095D01*
X146497457Y-126377884D01*
X146497443Y-126377896D01*
X146297896Y-126577443D01*
X146297884Y-126577457D01*
X146126095Y-126801338D01*
X146126081Y-126801358D01*
X145984980Y-127045753D01*
X145984977Y-127045758D01*
X145876983Y-127306478D01*
X145876979Y-127306489D01*
X145803936Y-127579090D01*
X145767100Y-127858892D01*
X143834480Y-127858892D01*
X143804359Y-127707465D01*
X143728759Y-127524949D01*
X143728757Y-127524946D01*
X143728755Y-127524942D01*
X143619004Y-127360688D01*
X143619001Y-127360684D01*
X143479315Y-127220998D01*
X143479311Y-127220995D01*
X143315057Y-127111244D01*
X143315049Y-127111240D01*
X143132535Y-127035641D01*
X142938777Y-126997100D01*
X142741223Y-126997100D01*
X142644344Y-127016370D01*
X142547464Y-127035641D01*
X142364950Y-127111240D01*
X142364942Y-127111244D01*
X142200688Y-127220995D01*
X142200684Y-127220998D01*
X142060998Y-127360684D01*
X142060995Y-127360688D01*
X141951244Y-127524942D01*
X141951240Y-127524950D01*
X141875641Y-127707464D01*
X141837100Y-127901223D01*
X137342524Y-127901223D01*
X134802695Y-125361394D01*
X142857100Y-125361394D01*
X142857100Y-125558605D01*
X142887949Y-125753380D01*
X142887953Y-125753396D01*
X142948888Y-125940938D01*
X142948890Y-125940942D01*
X142948892Y-125940947D01*
X142957063Y-125956983D01*
X143038427Y-126116669D01*
X143154334Y-126276199D01*
X143154338Y-126276203D01*
X143154342Y-126276209D01*
X143293791Y-126415658D01*
X143293796Y-126415662D01*
X143293800Y-126415665D01*
X143453330Y-126531572D01*
X143453335Y-126531574D01*
X143453337Y-126531576D01*
X143629053Y-126621108D01*
X143629058Y-126621109D01*
X143629061Y-126621111D01*
X143786783Y-126672357D01*
X143816612Y-126682049D01*
X143895891Y-126694605D01*
X144011394Y-126712900D01*
X144011395Y-126712900D01*
X144208605Y-126712900D01*
X144403388Y-126682049D01*
X144590947Y-126621108D01*
X144766663Y-126531576D01*
X144926209Y-126415658D01*
X145065658Y-126276209D01*
X145126771Y-126192095D01*
X145181572Y-126116669D01*
X145181572Y-126116667D01*
X145181576Y-126116663D01*
X145271108Y-125940947D01*
X145332049Y-125753388D01*
X145362900Y-125558605D01*
X145362900Y-125361395D01*
X145360587Y-125346794D01*
X145332050Y-125166619D01*
X145332049Y-125166612D01*
X145322357Y-125136783D01*
X145271111Y-124979061D01*
X145271109Y-124979057D01*
X145271108Y-124979053D01*
X145181576Y-124803337D01*
X145181574Y-124803335D01*
X145181572Y-124803330D01*
X145065665Y-124643800D01*
X145065662Y-124643796D01*
X145065658Y-124643791D01*
X144926209Y-124504342D01*
X144926203Y-124504338D01*
X144926199Y-124504334D01*
X144766669Y-124388427D01*
X144750060Y-124379964D01*
X144590947Y-124298892D01*
X144590944Y-124298891D01*
X144590942Y-124298890D01*
X144590938Y-124298888D01*
X144403396Y-124237953D01*
X144403380Y-124237949D01*
X144208606Y-124207100D01*
X144208605Y-124207100D01*
X144011395Y-124207100D01*
X144011394Y-124207100D01*
X143816619Y-124237949D01*
X143816603Y-124237953D01*
X143629061Y-124298888D01*
X143629057Y-124298890D01*
X143453330Y-124388427D01*
X143293800Y-124504334D01*
X143293784Y-124504348D01*
X143154348Y-124643784D01*
X143154334Y-124643800D01*
X143038427Y-124803330D01*
X142948890Y-124979057D01*
X142948888Y-124979061D01*
X142887953Y-125166603D01*
X142887949Y-125166619D01*
X142857100Y-125361394D01*
X134802695Y-125361394D01*
X132262695Y-122821394D01*
X149207100Y-122821394D01*
X149207100Y-123018605D01*
X149237949Y-123213380D01*
X149237953Y-123213396D01*
X149298888Y-123400938D01*
X149298890Y-123400942D01*
X149298892Y-123400947D01*
X149379964Y-123560060D01*
X149388427Y-123576669D01*
X149504334Y-123736199D01*
X149504338Y-123736203D01*
X149504342Y-123736209D01*
X149643791Y-123875658D01*
X149643796Y-123875662D01*
X149643800Y-123875665D01*
X149803330Y-123991572D01*
X149803335Y-123991574D01*
X149803337Y-123991576D01*
X149979053Y-124081108D01*
X149979058Y-124081109D01*
X149979061Y-124081111D01*
X150136783Y-124132357D01*
X150166612Y-124142049D01*
X150245891Y-124154605D01*
X150361394Y-124172900D01*
X150361395Y-124172900D01*
X150558605Y-124172900D01*
X150753388Y-124142049D01*
X150940947Y-124081108D01*
X151116663Y-123991576D01*
X151276209Y-123875658D01*
X151415658Y-123736209D01*
X151531576Y-123576663D01*
X151621108Y-123400947D01*
X151682049Y-123213388D01*
X151712900Y-123018605D01*
X151712900Y-122821395D01*
X151682049Y-122626612D01*
X151621108Y-122439053D01*
X151531576Y-122263337D01*
X151531574Y-122263335D01*
X151531572Y-122263330D01*
X151415665Y-122103800D01*
X151415662Y-122103796D01*
X151415658Y-122103791D01*
X151276209Y-121964342D01*
X151276203Y-121964338D01*
X151276199Y-121964334D01*
X151116669Y-121848427D01*
X151009222Y-121793680D01*
X150940947Y-121758892D01*
X150940944Y-121758891D01*
X150940942Y-121758890D01*
X150940938Y-121758888D01*
X150753396Y-121697953D01*
X150753380Y-121697949D01*
X150558606Y-121667100D01*
X150558605Y-121667100D01*
X150361395Y-121667100D01*
X150361394Y-121667100D01*
X150166619Y-121697949D01*
X150166603Y-121697953D01*
X149979061Y-121758888D01*
X149979057Y-121758890D01*
X149803330Y-121848427D01*
X149643800Y-121964334D01*
X149643784Y-121964348D01*
X149504348Y-122103784D01*
X149504334Y-122103800D01*
X149388427Y-122263330D01*
X149298890Y-122439057D01*
X149298888Y-122439061D01*
X149237953Y-122626603D01*
X149237949Y-122626619D01*
X149207100Y-122821394D01*
X132262695Y-122821394D01*
X129240103Y-119798802D01*
X129236676Y-119790529D01*
X129236676Y-119613925D01*
X129240103Y-119605652D01*
X129248376Y-119602225D01*
X129589124Y-119602225D01*
X129683471Y-119587282D01*
X129797187Y-119529341D01*
X129887432Y-119439096D01*
X129945373Y-119325380D01*
X129960316Y-119231033D01*
X129960316Y-118067617D01*
X129945373Y-117973270D01*
X129887432Y-117859554D01*
X129797187Y-117769309D01*
X129683471Y-117711368D01*
X129683470Y-117711367D01*
X129683469Y-117711367D01*
X129589125Y-117696425D01*
X129589124Y-117696425D01*
X129248376Y-117696425D01*
X129240103Y-117692998D01*
X129236676Y-117684725D01*
X129236676Y-113881654D01*
X129240102Y-113873382D01*
X133707335Y-109406148D01*
X143427100Y-109406148D01*
X143427100Y-109593851D01*
X143463719Y-109777951D01*
X143535550Y-109951366D01*
X143535554Y-109951374D01*
X143639833Y-110107438D01*
X143639836Y-110107442D01*
X143772557Y-110240163D01*
X143772561Y-110240166D01*
X143928625Y-110344445D01*
X143928629Y-110344447D01*
X143928632Y-110344449D01*
X144102049Y-110416281D01*
X144286148Y-110452900D01*
X144286149Y-110452900D01*
X144473851Y-110452900D01*
X144473852Y-110452900D01*
X144657951Y-110416281D01*
X144831368Y-110344449D01*
X144987439Y-110240166D01*
X145120166Y-110107439D01*
X145224449Y-109951368D01*
X145296281Y-109777951D01*
X145332900Y-109593852D01*
X145332900Y-109406148D01*
X145296281Y-109222049D01*
X145224449Y-109048632D01*
X145224447Y-109048629D01*
X145224445Y-109048625D01*
X145120166Y-108892561D01*
X145120163Y-108892557D01*
X144987442Y-108759836D01*
X144987438Y-108759833D01*
X144831374Y-108655554D01*
X144831366Y-108655550D01*
X144657951Y-108583719D01*
X144473852Y-108547100D01*
X144286148Y-108547100D01*
X144211023Y-108562043D01*
X144102048Y-108583719D01*
X143928633Y-108655550D01*
X143928625Y-108655554D01*
X143772561Y-108759833D01*
X143772557Y-108759836D01*
X143639836Y-108892557D01*
X143639833Y-108892561D01*
X143535554Y-109048625D01*
X143535550Y-109048633D01*
X143463719Y-109222048D01*
X143427100Y-109406148D01*
X133707335Y-109406148D01*
X134434724Y-108678759D01*
X134442996Y-108675333D01*
X134446022Y-108675731D01*
X134497547Y-108689538D01*
X134497548Y-108689539D01*
X134497550Y-108689539D01*
X134618145Y-108689539D01*
X134618145Y-108689538D01*
X134676387Y-108673933D01*
X134734628Y-108658328D01*
X134734632Y-108658326D01*
X134801042Y-108619984D01*
X134839069Y-108598029D01*
X134924342Y-108512756D01*
X134984640Y-108408317D01*
X135015852Y-108291831D01*
X135015852Y-108171237D01*
X135004502Y-108128878D01*
X134984641Y-108054752D01*
X134984639Y-108054748D01*
X134924344Y-107950315D01*
X134924340Y-107950310D01*
X134839070Y-107865040D01*
X134839065Y-107865036D01*
X134734632Y-107804741D01*
X134734628Y-107804739D01*
X134618146Y-107773529D01*
X134618144Y-107773529D01*
X134497550Y-107773529D01*
X134497547Y-107773529D01*
X134381065Y-107804739D01*
X134381061Y-107804741D01*
X134276628Y-107865036D01*
X134276623Y-107865040D01*
X134191353Y-107950310D01*
X134191349Y-107950315D01*
X134131054Y-108054748D01*
X134131052Y-108054752D01*
X134099842Y-108171234D01*
X134099842Y-108291833D01*
X134113647Y-108343355D01*
X134112478Y-108352233D01*
X134110619Y-108354656D01*
X128877682Y-113587595D01*
X128813213Y-113652064D01*
X128778324Y-113736292D01*
X128778324Y-117684725D01*
X128774897Y-117692998D01*
X128766624Y-117696425D01*
X128425707Y-117696425D01*
X128331362Y-117711367D01*
X128217644Y-117769309D01*
X128127400Y-117859553D01*
X128069458Y-117973271D01*
X128054516Y-118067616D01*
X122144774Y-118067616D01*
X122127582Y-118041886D01*
X122127579Y-118041882D01*
X121994858Y-117909161D01*
X121994854Y-117909158D01*
X121838790Y-117804879D01*
X121838782Y-117804875D01*
X121665367Y-117733044D01*
X121481268Y-117696425D01*
X121293564Y-117696425D01*
X121218439Y-117711368D01*
X121109464Y-117733044D01*
X120936049Y-117804875D01*
X120936041Y-117804879D01*
X120779977Y-117909158D01*
X120779973Y-117909161D01*
X120647252Y-118041882D01*
X120647249Y-118041886D01*
X120542970Y-118197950D01*
X120542966Y-118197958D01*
X120471135Y-118371373D01*
X120434516Y-118555473D01*
X117171328Y-118555473D01*
X121313285Y-114413516D01*
X121313286Y-114413515D01*
X121348176Y-114329283D01*
X121348176Y-114238111D01*
X121348176Y-111869913D01*
X124847100Y-111869913D01*
X124847100Y-112130086D01*
X124887798Y-112387047D01*
X124887800Y-112387055D01*
X124968198Y-112634493D01*
X125075156Y-112844411D01*
X125086316Y-112866314D01*
X125239231Y-113076782D01*
X125239235Y-113076786D01*
X125239239Y-113076792D01*
X125423208Y-113260761D01*
X125423213Y-113260765D01*
X125423217Y-113260768D01*
X125633685Y-113413683D01*
X125633690Y-113413685D01*
X125633692Y-113413687D01*
X125865507Y-113531802D01*
X126112945Y-113612200D01*
X126217528Y-113628764D01*
X126369913Y-113652900D01*
X126369914Y-113652900D01*
X126630086Y-113652900D01*
X126887055Y-113612200D01*
X127134493Y-113531802D01*
X127366308Y-113413687D01*
X127576792Y-113260761D01*
X127760761Y-113076792D01*
X127913687Y-112866308D01*
X128031802Y-112634493D01*
X128112200Y-112387055D01*
X128152900Y-112130086D01*
X128152900Y-111869914D01*
X128112200Y-111612945D01*
X128031802Y-111365507D01*
X127913687Y-111133692D01*
X127913685Y-111133690D01*
X127913683Y-111133685D01*
X127760768Y-110923217D01*
X127760765Y-110923213D01*
X127760761Y-110923208D01*
X127576792Y-110739239D01*
X127576786Y-110739235D01*
X127576782Y-110739231D01*
X127366314Y-110586316D01*
X127344411Y-110575156D01*
X127134493Y-110468198D01*
X127134490Y-110468197D01*
X127134488Y-110468196D01*
X126887059Y-110387801D01*
X126887047Y-110387798D01*
X126630087Y-110347100D01*
X126630086Y-110347100D01*
X126369914Y-110347100D01*
X126369913Y-110347100D01*
X126112952Y-110387798D01*
X126112940Y-110387801D01*
X125865511Y-110468196D01*
X125633685Y-110586316D01*
X125423217Y-110739231D01*
X125423201Y-110739245D01*
X125239245Y-110923201D01*
X125239231Y-110923217D01*
X125086316Y-111133685D01*
X124968196Y-111365511D01*
X124887801Y-111612940D01*
X124887798Y-111612952D01*
X124847100Y-111869913D01*
X121348176Y-111869913D01*
X121348176Y-89869913D01*
X124847100Y-89869913D01*
X124847100Y-90130086D01*
X124887798Y-90387047D01*
X124887801Y-90387059D01*
X124959408Y-90607442D01*
X124968198Y-90634493D01*
X125065469Y-90825400D01*
X125086316Y-90866314D01*
X125239231Y-91076782D01*
X125239235Y-91076786D01*
X125239239Y-91076792D01*
X125423208Y-91260761D01*
X125423213Y-91260765D01*
X125423217Y-91260768D01*
X125633685Y-91413683D01*
X125633690Y-91413685D01*
X125633692Y-91413687D01*
X125865507Y-91531802D01*
X126112945Y-91612200D01*
X126217528Y-91628764D01*
X126369913Y-91652900D01*
X126369914Y-91652900D01*
X126630086Y-91652900D01*
X126887055Y-91612200D01*
X127134493Y-91531802D01*
X127366308Y-91413687D01*
X127408748Y-91382853D01*
X127576782Y-91260768D01*
X127576792Y-91260761D01*
X127760761Y-91076792D01*
X127850774Y-90952900D01*
X127913683Y-90866314D01*
X127913683Y-90866312D01*
X127913687Y-90866308D01*
X128031802Y-90634493D01*
X128112200Y-90387055D01*
X128152900Y-90130086D01*
X128152900Y-89869914D01*
X128142936Y-89807007D01*
X128112201Y-89612952D01*
X128112200Y-89612945D01*
X128031802Y-89365507D01*
X127913687Y-89133692D01*
X127913685Y-89133690D01*
X127913683Y-89133685D01*
X127760768Y-88923217D01*
X127760765Y-88923213D01*
X127760761Y-88923208D01*
X127576792Y-88739239D01*
X127576786Y-88739235D01*
X127576782Y-88739231D01*
X127366314Y-88586316D01*
X127344411Y-88575156D01*
X127134493Y-88468198D01*
X127134490Y-88468197D01*
X127134488Y-88468196D01*
X126887059Y-88387801D01*
X126887047Y-88387798D01*
X126630087Y-88347100D01*
X126630086Y-88347100D01*
X126369914Y-88347100D01*
X126369913Y-88347100D01*
X126112952Y-88387798D01*
X126112940Y-88387801D01*
X125865511Y-88468196D01*
X125633685Y-88586316D01*
X125423217Y-88739231D01*
X125423201Y-88739245D01*
X125239245Y-88923201D01*
X125239231Y-88923217D01*
X125086316Y-89133685D01*
X124968196Y-89365511D01*
X124887801Y-89612940D01*
X124887798Y-89612952D01*
X124847100Y-89869913D01*
X121348176Y-89869913D01*
X121348176Y-84918291D01*
X130047100Y-84918291D01*
X130047100Y-86081708D01*
X130062042Y-86176053D01*
X130062042Y-86176054D01*
X130062043Y-86176055D01*
X130119984Y-86289771D01*
X130210229Y-86380016D01*
X130323945Y-86437957D01*
X130371118Y-86445428D01*
X130418291Y-86452900D01*
X130418292Y-86452900D01*
X131581708Y-86452900D01*
X131676055Y-86437957D01*
X131789771Y-86380016D01*
X131880016Y-86289771D01*
X131937957Y-86176055D01*
X131952900Y-86081708D01*
X131952900Y-84918292D01*
X131952581Y-84916281D01*
X131937957Y-84823946D01*
X131937957Y-84823945D01*
X131880016Y-84710229D01*
X131789771Y-84619984D01*
X131676055Y-84562043D01*
X131676054Y-84562042D01*
X131676053Y-84562042D01*
X131581709Y-84547100D01*
X131581708Y-84547100D01*
X130418292Y-84547100D01*
X130418291Y-84547100D01*
X130323946Y-84562042D01*
X130210228Y-84619984D01*
X130119984Y-84710228D01*
X130062042Y-84823946D01*
X130047100Y-84918291D01*
X121348176Y-84918291D01*
X121348176Y-83918705D01*
X122674600Y-83918705D01*
X122674600Y-84081294D01*
X122706319Y-84240760D01*
X122768539Y-84390972D01*
X122768543Y-84390980D01*
X122858868Y-84526160D01*
X122862472Y-84529763D01*
X123167734Y-84224500D01*
X123179920Y-84245606D01*
X123254394Y-84320080D01*
X123275497Y-84332264D01*
X122970235Y-84637526D01*
X122973839Y-84641131D01*
X123109019Y-84731456D01*
X123109027Y-84731460D01*
X123259239Y-84793680D01*
X123418706Y-84825400D01*
X123581294Y-84825400D01*
X123740760Y-84793680D01*
X123890972Y-84731460D01*
X123890980Y-84731456D01*
X124026162Y-84641130D01*
X124026164Y-84641128D01*
X124029764Y-84637527D01*
X124029764Y-84637526D01*
X123724501Y-84332264D01*
X123745606Y-84320080D01*
X123820080Y-84245606D01*
X123832264Y-84224501D01*
X124137526Y-84529764D01*
X124137527Y-84529764D01*
X124141128Y-84526164D01*
X124141130Y-84526162D01*
X124231456Y-84390980D01*
X124231460Y-84390972D01*
X124293680Y-84240760D01*
X124325400Y-84081294D01*
X124325400Y-83918705D01*
X124293680Y-83759239D01*
X124243113Y-83637158D01*
X124231458Y-83609024D01*
X124231456Y-83609019D01*
X124141131Y-83473839D01*
X124137526Y-83470235D01*
X123832264Y-83775497D01*
X123820080Y-83754394D01*
X123745606Y-83679920D01*
X123724500Y-83667734D01*
X124029764Y-83362472D01*
X124026160Y-83358868D01*
X123890980Y-83268543D01*
X123890972Y-83268539D01*
X123740760Y-83206319D01*
X123581294Y-83174600D01*
X123418706Y-83174600D01*
X123259239Y-83206319D01*
X123109027Y-83268539D01*
X123109019Y-83268543D01*
X122973841Y-83358867D01*
X122973836Y-83358871D01*
X122970235Y-83362471D01*
X123275498Y-83667735D01*
X123254394Y-83679920D01*
X123179920Y-83754394D01*
X123167735Y-83775498D01*
X122862472Y-83470235D01*
X122862471Y-83470235D01*
X122858871Y-83473836D01*
X122858867Y-83473841D01*
X122768543Y-83609019D01*
X122768539Y-83609027D01*
X122706319Y-83759239D01*
X122674600Y-83918705D01*
X121348176Y-83918705D01*
X121348176Y-82918705D01*
X130174600Y-82918705D01*
X130174600Y-83081294D01*
X130206319Y-83240760D01*
X130268539Y-83390972D01*
X130268543Y-83390980D01*
X130358868Y-83526160D01*
X130362472Y-83529763D01*
X130667734Y-83224500D01*
X130679920Y-83245606D01*
X130754394Y-83320080D01*
X130775497Y-83332264D01*
X130470235Y-83637526D01*
X130473839Y-83641131D01*
X130609019Y-83731456D01*
X130609027Y-83731460D01*
X130759239Y-83793680D01*
X130918706Y-83825400D01*
X131081294Y-83825400D01*
X131240760Y-83793680D01*
X131390972Y-83731460D01*
X131390980Y-83731456D01*
X131526162Y-83641130D01*
X131526164Y-83641128D01*
X131529764Y-83637527D01*
X131529764Y-83637526D01*
X131224501Y-83332264D01*
X131245606Y-83320080D01*
X131320080Y-83245606D01*
X131332264Y-83224501D01*
X131637526Y-83529764D01*
X131637527Y-83529764D01*
X131641128Y-83526164D01*
X131641130Y-83526162D01*
X131731456Y-83390980D01*
X131731460Y-83390972D01*
X131793680Y-83240760D01*
X131825400Y-83081294D01*
X131825400Y-82918705D01*
X131793680Y-82759239D01*
X131731460Y-82609027D01*
X131731456Y-82609019D01*
X131641131Y-82473839D01*
X131637526Y-82470235D01*
X131332264Y-82775497D01*
X131320080Y-82754394D01*
X131245606Y-82679920D01*
X131224500Y-82667734D01*
X131529764Y-82362472D01*
X131526160Y-82358868D01*
X131390980Y-82268543D01*
X131390972Y-82268539D01*
X131240760Y-82206319D01*
X131081294Y-82174600D01*
X130918706Y-82174600D01*
X130759239Y-82206319D01*
X130609027Y-82268539D01*
X130609019Y-82268543D01*
X130473841Y-82358867D01*
X130473836Y-82358871D01*
X130470235Y-82362471D01*
X130775498Y-82667735D01*
X130754394Y-82679920D01*
X130679920Y-82754394D01*
X130667735Y-82775498D01*
X130362472Y-82470235D01*
X130362471Y-82470235D01*
X130358871Y-82473836D01*
X130358867Y-82473841D01*
X130268543Y-82609019D01*
X130268539Y-82609027D01*
X130206319Y-82759239D01*
X130174600Y-82918705D01*
X121348176Y-82918705D01*
X121348176Y-81183316D01*
X124012172Y-81183316D01*
X124012172Y-81303915D01*
X124043382Y-81420397D01*
X124043384Y-81420401D01*
X124103679Y-81524834D01*
X124103681Y-81524837D01*
X124103682Y-81524838D01*
X124188955Y-81610111D01*
X124188956Y-81610112D01*
X124188958Y-81610113D01*
X124293391Y-81670408D01*
X124293395Y-81670410D01*
X124385260Y-81695024D01*
X124409877Y-81701620D01*
X124409879Y-81701621D01*
X124409880Y-81701621D01*
X124530475Y-81701621D01*
X124530475Y-81701620D01*
X124588717Y-81686015D01*
X124646958Y-81670410D01*
X124646962Y-81670408D01*
X124681773Y-81650309D01*
X124751399Y-81610111D01*
X124836672Y-81524838D01*
X124896970Y-81420399D01*
X124928182Y-81303913D01*
X124928182Y-81183319D01*
X124921585Y-81158699D01*
X124896971Y-81066834D01*
X124896969Y-81066830D01*
X124836674Y-80962397D01*
X124836670Y-80962392D01*
X124751400Y-80877122D01*
X124751395Y-80877118D01*
X124705203Y-80850449D01*
X124699752Y-80843345D01*
X124699353Y-80840317D01*
X124699353Y-80129597D01*
X124702780Y-80121324D01*
X126327669Y-78496435D01*
X126500494Y-78323608D01*
X126508766Y-78320182D01*
X126515265Y-78322153D01*
X126548632Y-78344449D01*
X126722049Y-78416281D01*
X126906148Y-78452900D01*
X126906149Y-78452900D01*
X127093851Y-78452900D01*
X127093852Y-78452900D01*
X127277951Y-78416281D01*
X127451368Y-78344449D01*
X127607439Y-78240166D01*
X127740166Y-78107439D01*
X127844449Y-77951368D01*
X127916281Y-77777951D01*
X127952900Y-77593852D01*
X127952900Y-77406148D01*
X127916281Y-77222049D01*
X127844449Y-77048632D01*
X127844447Y-77048629D01*
X127844445Y-77048625D01*
X127740166Y-76892561D01*
X127740163Y-76892557D01*
X127607442Y-76759836D01*
X127607438Y-76759833D01*
X127451374Y-76655554D01*
X127451366Y-76655550D01*
X127277951Y-76583719D01*
X127229175Y-76574017D01*
X127093852Y-76547100D01*
X126906148Y-76547100D01*
X126819098Y-76564415D01*
X126722048Y-76583719D01*
X126548633Y-76655550D01*
X126548625Y-76655554D01*
X126392561Y-76759833D01*
X126392557Y-76759836D01*
X126259836Y-76892557D01*
X126259833Y-76892561D01*
X126155554Y-77048625D01*
X126155550Y-77048633D01*
X126084954Y-77219067D01*
X126083719Y-77222049D01*
X126047100Y-77406148D01*
X126047100Y-77593852D01*
X126053471Y-77625880D01*
X126083719Y-77777951D01*
X126155550Y-77951366D01*
X126155554Y-77951374D01*
X126177844Y-77984732D01*
X126179591Y-77993514D01*
X126176389Y-77999505D01*
X126003565Y-78172331D01*
X124275890Y-79900006D01*
X124241001Y-79984234D01*
X124241001Y-80840317D01*
X124237574Y-80848590D01*
X124235151Y-80850449D01*
X124188958Y-80877118D01*
X124188953Y-80877122D01*
X124103683Y-80962392D01*
X124103679Y-80962397D01*
X124043384Y-81066830D01*
X124043382Y-81066834D01*
X124012172Y-81183316D01*
X121348176Y-81183316D01*
X121348176Y-69590717D01*
X121348176Y-69326840D01*
X121351603Y-69318567D01*
X121357591Y-69315366D01*
X121385873Y-69309741D01*
X121552374Y-69240774D01*
X121702221Y-69140649D01*
X121829655Y-69013215D01*
X121929780Y-68863368D01*
X121998747Y-68696867D01*
X122033906Y-68520110D01*
X122033906Y-68339890D01*
X121998747Y-68163133D01*
X121929780Y-67996632D01*
X121929778Y-67996629D01*
X121929776Y-67996625D01*
X121829655Y-67846785D01*
X121829652Y-67846781D01*
X121702224Y-67719353D01*
X121702220Y-67719350D01*
X121552380Y-67619229D01*
X121552372Y-67619225D01*
X121385873Y-67550259D01*
X121209116Y-67515100D01*
X121028896Y-67515100D01*
X120940517Y-67532679D01*
X120852138Y-67550259D01*
X120685639Y-67619225D01*
X120685631Y-67619229D01*
X120535791Y-67719350D01*
X120535787Y-67719353D01*
X120408359Y-67846781D01*
X120408356Y-67846785D01*
X120308235Y-67996625D01*
X120308231Y-67996633D01*
X120239265Y-68163132D01*
X120204106Y-68339890D01*
X120204106Y-68520109D01*
X120239265Y-68696867D01*
X120308231Y-68863366D01*
X120308235Y-68863374D01*
X120408356Y-69013214D01*
X120408359Y-69013218D01*
X120535787Y-69140646D01*
X120535791Y-69140649D01*
X120685631Y-69240770D01*
X120685635Y-69240772D01*
X120685638Y-69240774D01*
X120852139Y-69309741D01*
X120880407Y-69315363D01*
X120887852Y-69320336D01*
X120889824Y-69326837D01*
X120889824Y-114183923D01*
X120886397Y-114192196D01*
X106211713Y-128866880D01*
X106176824Y-128951108D01*
X106176824Y-129271524D01*
X106173397Y-129279797D01*
X106165124Y-129283224D01*
X105390730Y-129283224D01*
X105346129Y-129292095D01*
X105346128Y-129292096D01*
X105295553Y-129325889D01*
X105295552Y-129325890D01*
X105261759Y-129376465D01*
X105252887Y-129421067D01*
X100516131Y-129421067D01*
X100516131Y-111869913D01*
X102847100Y-111869913D01*
X102847100Y-112130086D01*
X102887798Y-112387047D01*
X102887800Y-112387055D01*
X102968198Y-112634493D01*
X103075156Y-112844411D01*
X103086316Y-112866314D01*
X103239231Y-113076782D01*
X103239235Y-113076786D01*
X103239239Y-113076792D01*
X103423208Y-113260761D01*
X103423213Y-113260765D01*
X103423217Y-113260768D01*
X103633685Y-113413683D01*
X103633690Y-113413685D01*
X103633692Y-113413687D01*
X103865507Y-113531802D01*
X104112945Y-113612200D01*
X104217528Y-113628764D01*
X104369913Y-113652900D01*
X104369914Y-113652900D01*
X104630086Y-113652900D01*
X104887055Y-113612200D01*
X105134493Y-113531802D01*
X105366308Y-113413687D01*
X105576792Y-113260761D01*
X105760761Y-113076792D01*
X105913687Y-112866308D01*
X106031802Y-112634493D01*
X106112200Y-112387055D01*
X106152900Y-112130086D01*
X106152900Y-111869914D01*
X106112200Y-111612945D01*
X106031802Y-111365507D01*
X105913687Y-111133692D01*
X105913685Y-111133690D01*
X105913683Y-111133685D01*
X105760768Y-110923217D01*
X105760765Y-110923213D01*
X105760761Y-110923208D01*
X105576792Y-110739239D01*
X105576786Y-110739235D01*
X105576782Y-110739231D01*
X105366314Y-110586316D01*
X105344411Y-110575156D01*
X105134493Y-110468198D01*
X105134490Y-110468197D01*
X105134488Y-110468196D01*
X104887059Y-110387801D01*
X104887047Y-110387798D01*
X104630087Y-110347100D01*
X104630086Y-110347100D01*
X104369914Y-110347100D01*
X104369913Y-110347100D01*
X104112952Y-110387798D01*
X104112940Y-110387801D01*
X103865511Y-110468196D01*
X103633685Y-110586316D01*
X103423217Y-110739231D01*
X103423201Y-110739245D01*
X103239245Y-110923201D01*
X103239231Y-110923217D01*
X103086316Y-111133685D01*
X102968196Y-111365511D01*
X102887801Y-111612940D01*
X102887798Y-111612952D01*
X102847100Y-111869913D01*
X100516131Y-111869913D01*
X100516131Y-89869913D01*
X102847100Y-89869913D01*
X102847100Y-90130086D01*
X102887798Y-90387047D01*
X102887801Y-90387059D01*
X102959408Y-90607442D01*
X102968198Y-90634493D01*
X103065469Y-90825400D01*
X103086316Y-90866314D01*
X103239231Y-91076782D01*
X103239235Y-91076786D01*
X103239239Y-91076792D01*
X103423208Y-91260761D01*
X103423213Y-91260765D01*
X103423217Y-91260768D01*
X103633685Y-91413683D01*
X103633690Y-91413685D01*
X103633692Y-91413687D01*
X103865507Y-91531802D01*
X104112945Y-91612200D01*
X104217528Y-91628764D01*
X104369913Y-91652900D01*
X104369914Y-91652900D01*
X104630086Y-91652900D01*
X104887055Y-91612200D01*
X105134493Y-91531802D01*
X105366308Y-91413687D01*
X105408748Y-91382853D01*
X105576782Y-91260768D01*
X105576792Y-91260761D01*
X105760761Y-91076792D01*
X105850774Y-90952900D01*
X105913683Y-90866314D01*
X105913683Y-90866312D01*
X105913687Y-90866308D01*
X106031802Y-90634493D01*
X106112200Y-90387055D01*
X106152900Y-90130086D01*
X106152900Y-89869914D01*
X106142936Y-89807007D01*
X106112201Y-89612952D01*
X106112200Y-89612945D01*
X106031802Y-89365507D01*
X105913687Y-89133692D01*
X105913685Y-89133690D01*
X105913683Y-89133685D01*
X105760768Y-88923217D01*
X105760765Y-88923213D01*
X105760761Y-88923208D01*
X105581053Y-88743500D01*
X110910600Y-88743500D01*
X110910600Y-89423800D01*
X111192780Y-89423800D01*
X111190000Y-89434174D01*
X111190000Y-89565826D01*
X111192780Y-89576200D01*
X110910600Y-89576200D01*
X110910600Y-90256499D01*
X110912073Y-90263911D01*
X110917686Y-90272312D01*
X110917687Y-90272313D01*
X110926088Y-90277926D01*
X110933501Y-90279400D01*
X111613800Y-90279400D01*
X111613800Y-89997220D01*
X111624174Y-90000000D01*
X111755826Y-90000000D01*
X111766200Y-89997220D01*
X111766200Y-90279400D01*
X112446499Y-90279400D01*
X112453911Y-90277926D01*
X112462312Y-90272313D01*
X112462313Y-90272312D01*
X112467926Y-90263911D01*
X112469400Y-90256499D01*
X112469400Y-89576200D01*
X112187220Y-89576200D01*
X112190000Y-89565826D01*
X112190000Y-89434174D01*
X112187220Y-89423800D01*
X112469400Y-89423800D01*
X112469400Y-89410678D01*
X113323100Y-89410678D01*
X113323100Y-89589322D01*
X113330646Y-89627259D01*
X113357952Y-89764533D01*
X113426315Y-89929576D01*
X113426319Y-89929584D01*
X113525564Y-90078114D01*
X113525567Y-90078118D01*
X113651881Y-90204432D01*
X113651885Y-90204435D01*
X113800415Y-90303680D01*
X113800419Y-90303682D01*
X113800422Y-90303684D01*
X113965467Y-90372048D01*
X114140678Y-90406900D01*
X114140679Y-90406900D01*
X114319321Y-90406900D01*
X114319322Y-90406900D01*
X114494533Y-90372048D01*
X114659578Y-90303684D01*
X114808115Y-90204435D01*
X114934435Y-90078115D01*
X115033684Y-89929578D01*
X115102048Y-89764533D01*
X115136900Y-89589322D01*
X115136900Y-89410678D01*
X115102048Y-89235467D01*
X115033684Y-89070422D01*
X115033682Y-89070419D01*
X115033680Y-89070415D01*
X114934435Y-88921885D01*
X114934432Y-88921881D01*
X114808118Y-88795567D01*
X114808114Y-88795564D01*
X114659584Y-88696319D01*
X114659576Y-88696315D01*
X114494533Y-88627952D01*
X114410899Y-88611316D01*
X114319322Y-88593100D01*
X114140678Y-88593100D01*
X114053072Y-88610526D01*
X113965466Y-88627952D01*
X113800423Y-88696315D01*
X113800415Y-88696319D01*
X113651885Y-88795564D01*
X113651881Y-88795567D01*
X113525567Y-88921881D01*
X113525564Y-88921885D01*
X113426319Y-89070415D01*
X113426315Y-89070423D01*
X113357952Y-89235466D01*
X113351373Y-89268543D01*
X113323100Y-89410678D01*
X112469400Y-89410678D01*
X112469400Y-88743500D01*
X112467926Y-88736088D01*
X112462313Y-88727687D01*
X112462312Y-88727686D01*
X112453911Y-88722073D01*
X112446499Y-88720600D01*
X111766200Y-88720600D01*
X111766200Y-89002779D01*
X111755826Y-89000000D01*
X111624174Y-89000000D01*
X111613800Y-89002779D01*
X111613800Y-88720600D01*
X110933501Y-88720600D01*
X110926088Y-88722073D01*
X110917687Y-88727686D01*
X110917686Y-88727687D01*
X110912073Y-88736088D01*
X110910600Y-88743500D01*
X105581053Y-88743500D01*
X105576792Y-88739239D01*
X105576786Y-88739235D01*
X105576782Y-88739231D01*
X105366314Y-88586316D01*
X105344411Y-88575156D01*
X105134493Y-88468198D01*
X105134490Y-88468197D01*
X105134488Y-88468196D01*
X104887059Y-88387801D01*
X104887047Y-88387798D01*
X104630087Y-88347100D01*
X104630086Y-88347100D01*
X104369914Y-88347100D01*
X104369913Y-88347100D01*
X104112952Y-88387798D01*
X104112940Y-88387801D01*
X103865511Y-88468196D01*
X103633685Y-88586316D01*
X103423217Y-88739231D01*
X103423201Y-88739245D01*
X103239245Y-88923201D01*
X103239231Y-88923217D01*
X103086316Y-89133685D01*
X102968196Y-89365511D01*
X102887801Y-89612940D01*
X102887798Y-89612952D01*
X102847100Y-89869913D01*
X100516131Y-89869913D01*
X100516131Y-83918705D01*
X110674600Y-83918705D01*
X110674600Y-84081294D01*
X110706319Y-84240760D01*
X110768539Y-84390972D01*
X110768543Y-84390980D01*
X110858868Y-84526160D01*
X110862472Y-84529763D01*
X111167734Y-84224500D01*
X111179920Y-84245606D01*
X111254394Y-84320080D01*
X111275497Y-84332264D01*
X110970235Y-84637526D01*
X110973839Y-84641131D01*
X111109019Y-84731456D01*
X111109027Y-84731460D01*
X111259239Y-84793680D01*
X111418706Y-84825400D01*
X111581294Y-84825400D01*
X111740760Y-84793680D01*
X111890972Y-84731460D01*
X111890980Y-84731456D01*
X112026162Y-84641130D01*
X112026164Y-84641128D01*
X112029764Y-84637527D01*
X112029764Y-84637526D01*
X111724501Y-84332264D01*
X111745606Y-84320080D01*
X111820080Y-84245606D01*
X111832264Y-84224501D01*
X112137526Y-84529764D01*
X112137527Y-84529764D01*
X112141128Y-84526164D01*
X112141130Y-84526162D01*
X112231456Y-84390980D01*
X112231460Y-84390972D01*
X112293680Y-84240760D01*
X112325400Y-84081294D01*
X112325400Y-83918705D01*
X112293680Y-83759239D01*
X112231460Y-83609027D01*
X112231456Y-83609019D01*
X112141131Y-83473839D01*
X112137526Y-83470235D01*
X111832264Y-83775497D01*
X111820080Y-83754394D01*
X111745606Y-83679920D01*
X111724500Y-83667734D01*
X112029764Y-83362472D01*
X112026160Y-83358868D01*
X111890980Y-83268543D01*
X111890972Y-83268539D01*
X111740760Y-83206319D01*
X111581294Y-83174600D01*
X111418706Y-83174600D01*
X111259239Y-83206319D01*
X111109027Y-83268539D01*
X111109019Y-83268543D01*
X110973841Y-83358867D01*
X110973836Y-83358871D01*
X110970235Y-83362471D01*
X111275498Y-83667735D01*
X111254394Y-83679920D01*
X111179920Y-83754394D01*
X111167735Y-83775498D01*
X110862472Y-83470235D01*
X110862471Y-83470235D01*
X110858871Y-83473836D01*
X110858867Y-83473841D01*
X110768543Y-83609019D01*
X110768539Y-83609027D01*
X110706319Y-83759239D01*
X110674600Y-83918705D01*
X100516131Y-83918705D01*
X100516131Y-66013046D01*
X102991248Y-66013046D01*
X102991248Y-66133645D01*
X103022458Y-66250127D01*
X103022460Y-66250131D01*
X103082755Y-66354564D01*
X103082757Y-66354567D01*
X103082758Y-66354568D01*
X103168031Y-66439841D01*
X103214227Y-66466512D01*
X103219678Y-66473616D01*
X103220077Y-66476644D01*
X103220077Y-74870537D01*
X103254966Y-74954765D01*
X103254968Y-74954768D01*
X104647397Y-76347197D01*
X104650824Y-76355470D01*
X104650824Y-76564415D01*
X104647397Y-76572688D01*
X104641407Y-76575890D01*
X104602048Y-76583719D01*
X104428633Y-76655550D01*
X104428625Y-76655554D01*
X104272561Y-76759833D01*
X104272557Y-76759836D01*
X104139836Y-76892557D01*
X104139833Y-76892561D01*
X104035554Y-77048625D01*
X104035550Y-77048633D01*
X103964954Y-77219067D01*
X103963719Y-77222049D01*
X103927100Y-77406148D01*
X103927100Y-77593852D01*
X103933471Y-77625880D01*
X103963719Y-77777951D01*
X104035550Y-77951366D01*
X104035554Y-77951374D01*
X104139833Y-78107438D01*
X104139836Y-78107442D01*
X104272557Y-78240163D01*
X104272561Y-78240166D01*
X104428625Y-78344445D01*
X104428629Y-78344447D01*
X104428632Y-78344449D01*
X104602049Y-78416281D01*
X104786148Y-78452900D01*
X104786149Y-78452900D01*
X104973851Y-78452900D01*
X104973852Y-78452900D01*
X105157951Y-78416281D01*
X105331368Y-78344449D01*
X105364734Y-78322153D01*
X105373514Y-78320407D01*
X105379505Y-78323609D01*
X105630316Y-78574420D01*
X105683431Y-78596421D01*
X105714545Y-78609309D01*
X105714546Y-78609309D01*
X105714548Y-78609310D01*
X105805720Y-78609310D01*
X109894504Y-78609310D01*
X109902777Y-78612737D01*
X114399915Y-83109875D01*
X114403342Y-83118148D01*
X114399915Y-83126421D01*
X114391642Y-83129848D01*
X114387165Y-83128957D01*
X114277951Y-83083719D01*
X114093852Y-83047100D01*
X113906148Y-83047100D01*
X113878191Y-83052661D01*
X113722048Y-83083719D01*
X113548633Y-83155550D01*
X113548625Y-83155554D01*
X113392561Y-83259833D01*
X113392557Y-83259836D01*
X113259836Y-83392557D01*
X113259833Y-83392561D01*
X113155554Y-83548625D01*
X113155550Y-83548633D01*
X113083719Y-83722048D01*
X113047100Y-83906148D01*
X113047100Y-84093851D01*
X113083719Y-84277951D01*
X113155550Y-84451366D01*
X113155554Y-84451374D01*
X113259833Y-84607438D01*
X113259836Y-84607442D01*
X113392557Y-84740163D01*
X113392561Y-84740166D01*
X113548625Y-84844445D01*
X113548629Y-84844447D01*
X113548632Y-84844449D01*
X113722049Y-84916281D01*
X113906148Y-84952900D01*
X113906149Y-84952900D01*
X114093851Y-84952900D01*
X114093852Y-84952900D01*
X114277951Y-84916281D01*
X114451368Y-84844449D01*
X114607439Y-84740166D01*
X114740166Y-84607439D01*
X114844449Y-84451368D01*
X114916281Y-84277951D01*
X114952900Y-84093852D01*
X114952900Y-83906148D01*
X114937671Y-83829590D01*
X114939418Y-83820809D01*
X114946863Y-83815834D01*
X114955646Y-83817581D01*
X114957419Y-83819036D01*
X116537397Y-85399013D01*
X116540824Y-85407286D01*
X116540824Y-88611316D01*
X116537397Y-88619589D01*
X116531407Y-88622791D01*
X116505467Y-88627951D01*
X116340423Y-88696315D01*
X116340415Y-88696319D01*
X116191885Y-88795564D01*
X116191881Y-88795567D01*
X116065567Y-88921881D01*
X116065564Y-88921885D01*
X115966319Y-89070415D01*
X115966315Y-89070423D01*
X115897952Y-89235466D01*
X115891373Y-89268543D01*
X115863100Y-89410678D01*
X115863100Y-89589322D01*
X115870646Y-89627259D01*
X115897952Y-89764533D01*
X115966315Y-89929576D01*
X115966319Y-89929584D01*
X116065564Y-90078114D01*
X116065567Y-90078118D01*
X116191881Y-90204432D01*
X116191885Y-90204435D01*
X116340415Y-90303680D01*
X116340419Y-90303682D01*
X116340422Y-90303684D01*
X116505467Y-90372048D01*
X116680678Y-90406900D01*
X116680679Y-90406900D01*
X116859321Y-90406900D01*
X116859322Y-90406900D01*
X117034533Y-90372048D01*
X117199578Y-90303684D01*
X117348115Y-90204435D01*
X117474435Y-90078115D01*
X117573684Y-89929578D01*
X117642048Y-89764533D01*
X117676900Y-89589322D01*
X117676900Y-89410678D01*
X117642048Y-89235467D01*
X117573684Y-89070422D01*
X117573682Y-89070419D01*
X117573680Y-89070415D01*
X117474435Y-88921885D01*
X117474432Y-88921881D01*
X117348118Y-88795567D01*
X117348114Y-88795564D01*
X117199584Y-88696319D01*
X117199576Y-88696315D01*
X117034532Y-88627951D01*
X117008593Y-88622791D01*
X117001148Y-88617816D01*
X116999176Y-88611316D01*
X116999176Y-85433036D01*
X117002603Y-85424763D01*
X117010876Y-85421336D01*
X117019149Y-85424763D01*
X117834059Y-86239673D01*
X117837486Y-86247946D01*
X117837486Y-87103947D01*
X117872375Y-87188175D01*
X117872377Y-87188178D01*
X119077397Y-88393198D01*
X119080824Y-88401471D01*
X119080824Y-88611316D01*
X119077397Y-88619589D01*
X119071407Y-88622791D01*
X119045467Y-88627951D01*
X118880423Y-88696315D01*
X118880415Y-88696319D01*
X118731885Y-88795564D01*
X118731881Y-88795567D01*
X118605567Y-88921881D01*
X118605564Y-88921885D01*
X118506319Y-89070415D01*
X118506315Y-89070423D01*
X118437952Y-89235466D01*
X118431373Y-89268543D01*
X118403100Y-89410678D01*
X118403100Y-89589322D01*
X118410646Y-89627259D01*
X118437952Y-89764533D01*
X118506315Y-89929576D01*
X118506319Y-89929584D01*
X118605564Y-90078114D01*
X118605567Y-90078118D01*
X118731881Y-90204432D01*
X118731885Y-90204435D01*
X118880415Y-90303680D01*
X118880419Y-90303682D01*
X118880422Y-90303684D01*
X119045467Y-90372048D01*
X119220678Y-90406900D01*
X119220679Y-90406900D01*
X119399321Y-90406900D01*
X119399322Y-90406900D01*
X119574533Y-90372048D01*
X119739578Y-90303684D01*
X119888115Y-90204435D01*
X120014435Y-90078115D01*
X120113684Y-89929578D01*
X120182048Y-89764533D01*
X120216900Y-89589322D01*
X120216900Y-89410678D01*
X120182048Y-89235467D01*
X120113684Y-89070422D01*
X120113682Y-89070419D01*
X120113680Y-89070415D01*
X120014435Y-88921885D01*
X120014432Y-88921881D01*
X119888118Y-88795567D01*
X119888114Y-88795564D01*
X119739584Y-88696319D01*
X119739576Y-88696315D01*
X119574532Y-88627951D01*
X119548593Y-88622791D01*
X119541148Y-88617816D01*
X119539176Y-88611316D01*
X119539176Y-88256112D01*
X119539175Y-88256108D01*
X119504286Y-88171880D01*
X119504285Y-88171878D01*
X118299265Y-86966858D01*
X118295838Y-86958585D01*
X118295838Y-86102587D01*
X118295837Y-86102583D01*
X118260948Y-86018355D01*
X118260947Y-86018353D01*
X116262113Y-84019519D01*
X116258686Y-84011246D01*
X116258686Y-83906148D01*
X117547100Y-83906148D01*
X117547100Y-84093851D01*
X117583719Y-84277951D01*
X117655550Y-84451366D01*
X117655554Y-84451374D01*
X117759833Y-84607438D01*
X117759836Y-84607442D01*
X117892557Y-84740163D01*
X117892561Y-84740166D01*
X118048625Y-84844445D01*
X118048629Y-84844447D01*
X118048632Y-84844449D01*
X118222049Y-84916281D01*
X118406148Y-84952900D01*
X118406149Y-84952900D01*
X118593851Y-84952900D01*
X118593852Y-84952900D01*
X118777951Y-84916281D01*
X118951368Y-84844449D01*
X119107439Y-84740166D01*
X119240166Y-84607439D01*
X119344449Y-84451368D01*
X119416281Y-84277951D01*
X119452900Y-84093852D01*
X119452900Y-83906148D01*
X119416281Y-83722049D01*
X119344449Y-83548632D01*
X119344447Y-83548629D01*
X119344445Y-83548625D01*
X119240166Y-83392561D01*
X119240163Y-83392557D01*
X119107442Y-83259836D01*
X119107438Y-83259833D01*
X118951374Y-83155554D01*
X118951366Y-83155550D01*
X118777951Y-83083719D01*
X118593852Y-83047100D01*
X118406148Y-83047100D01*
X118378191Y-83052661D01*
X118222048Y-83083719D01*
X118048633Y-83155550D01*
X118048625Y-83155554D01*
X117892561Y-83259833D01*
X117892557Y-83259836D01*
X117759836Y-83392557D01*
X117759833Y-83392561D01*
X117655554Y-83548625D01*
X117655550Y-83548633D01*
X117583719Y-83722048D01*
X117547100Y-83906148D01*
X116258686Y-83906148D01*
X116258686Y-77406148D01*
X118427100Y-77406148D01*
X118427100Y-77593852D01*
X118433471Y-77625880D01*
X118463719Y-77777951D01*
X118535550Y-77951366D01*
X118535554Y-77951374D01*
X118639833Y-78107438D01*
X118639836Y-78107442D01*
X118772557Y-78240163D01*
X118772561Y-78240166D01*
X118928625Y-78344445D01*
X118928629Y-78344447D01*
X118928632Y-78344449D01*
X119102049Y-78416281D01*
X119286148Y-78452900D01*
X119286149Y-78452900D01*
X119473851Y-78452900D01*
X119473852Y-78452900D01*
X119657951Y-78416281D01*
X119831368Y-78344449D01*
X119987439Y-78240166D01*
X120120166Y-78107439D01*
X120224449Y-77951368D01*
X120296281Y-77777951D01*
X120332900Y-77593852D01*
X120332900Y-77406148D01*
X120296281Y-77222049D01*
X120224449Y-77048632D01*
X120224447Y-77048629D01*
X120224445Y-77048625D01*
X120120166Y-76892561D01*
X120120163Y-76892557D01*
X119987442Y-76759836D01*
X119987438Y-76759833D01*
X119831374Y-76655554D01*
X119831366Y-76655550D01*
X119657951Y-76583719D01*
X119609175Y-76574017D01*
X119473852Y-76547100D01*
X119286148Y-76547100D01*
X119199098Y-76564415D01*
X119102048Y-76583719D01*
X118928633Y-76655550D01*
X118928625Y-76655554D01*
X118772561Y-76759833D01*
X118772557Y-76759836D01*
X118639836Y-76892557D01*
X118639833Y-76892561D01*
X118535554Y-77048625D01*
X118535550Y-77048633D01*
X118464954Y-77219067D01*
X118463719Y-77222049D01*
X118427100Y-77406148D01*
X116258686Y-77406148D01*
X116258686Y-75177612D01*
X116258685Y-75177608D01*
X116223796Y-75093380D01*
X116223795Y-75093378D01*
X107844603Y-66714186D01*
X107844602Y-66714185D01*
X107844600Y-66714184D01*
X107760372Y-66679295D01*
X107760370Y-66679295D01*
X106383088Y-66679295D01*
X106374815Y-66675868D01*
X106371388Y-66667595D01*
X106374815Y-66659322D01*
X106376588Y-66657867D01*
X106392612Y-66647160D01*
X106462221Y-66600649D01*
X106589655Y-66473215D01*
X106689780Y-66323368D01*
X106758747Y-66156867D01*
X106793906Y-65980110D01*
X106793906Y-65799890D01*
X106758747Y-65623133D01*
X106689780Y-65456632D01*
X106689778Y-65456629D01*
X106689776Y-65456625D01*
X106589655Y-65306785D01*
X106589652Y-65306781D01*
X106462224Y-65179353D01*
X106462220Y-65179350D01*
X106312380Y-65079229D01*
X106312372Y-65079225D01*
X106145873Y-65010259D01*
X105969116Y-64975100D01*
X105788896Y-64975100D01*
X105700517Y-64992679D01*
X105612138Y-65010259D01*
X105445639Y-65079225D01*
X105445631Y-65079229D01*
X105295791Y-65179350D01*
X105295787Y-65179353D01*
X105168359Y-65306781D01*
X105168356Y-65306785D01*
X105128223Y-65366848D01*
X105120777Y-65371823D01*
X105111995Y-65370076D01*
X105107020Y-65362630D01*
X105106795Y-65360348D01*
X105106795Y-64451155D01*
X105110222Y-64442882D01*
X105220152Y-64332952D01*
X105247312Y-64305792D01*
X105406893Y-64146209D01*
X105415165Y-64142783D01*
X105421664Y-64144754D01*
X105445638Y-64160774D01*
X105612139Y-64229741D01*
X105788896Y-64264900D01*
X105788897Y-64264900D01*
X105969115Y-64264900D01*
X105969116Y-64264900D01*
X106145873Y-64229741D01*
X106312374Y-64160774D01*
X106462221Y-64060649D01*
X106589655Y-63933215D01*
X106689780Y-63783368D01*
X106758747Y-63616867D01*
X106793906Y-63440110D01*
X106793906Y-63259890D01*
X106758747Y-63083133D01*
X106689780Y-62916632D01*
X106689778Y-62916629D01*
X106689776Y-62916625D01*
X106589655Y-62766785D01*
X106589652Y-62766781D01*
X106462224Y-62639353D01*
X106462220Y-62639350D01*
X106312380Y-62539229D01*
X106312372Y-62539225D01*
X106145873Y-62470259D01*
X106083981Y-62457948D01*
X105969116Y-62435100D01*
X105788896Y-62435100D01*
X105700517Y-62452679D01*
X105612138Y-62470259D01*
X105445639Y-62539225D01*
X105445631Y-62539229D01*
X105295791Y-62639350D01*
X105295787Y-62639353D01*
X105168359Y-62766781D01*
X105168356Y-62766785D01*
X105068235Y-62916625D01*
X105068231Y-62916633D01*
X104999265Y-63083132D01*
X104964106Y-63259890D01*
X104964106Y-63440110D01*
X104976884Y-63504348D01*
X104999265Y-63616867D01*
X105068231Y-63783366D01*
X105068235Y-63783374D01*
X105084244Y-63807332D01*
X105085991Y-63816114D01*
X105082789Y-63822105D01*
X104896048Y-64008848D01*
X104683332Y-64221564D01*
X104648443Y-64305792D01*
X104648443Y-66390210D01*
X104645016Y-66398483D01*
X104636743Y-66401910D01*
X104628470Y-66398483D01*
X104465558Y-66235571D01*
X104462131Y-66227298D01*
X104462131Y-62555819D01*
X104465558Y-62547546D01*
X105220152Y-61792952D01*
X105258470Y-61754634D01*
X105406893Y-61606209D01*
X105415165Y-61602783D01*
X105421664Y-61604754D01*
X105445638Y-61620774D01*
X105612139Y-61689741D01*
X105788896Y-61724900D01*
X105788897Y-61724900D01*
X105969115Y-61724900D01*
X105969116Y-61724900D01*
X106145873Y-61689741D01*
X106312374Y-61620774D01*
X106462221Y-61520649D01*
X106589655Y-61393215D01*
X106689780Y-61243368D01*
X106758747Y-61076867D01*
X106793906Y-60900110D01*
X106793906Y-60719890D01*
X106758747Y-60543133D01*
X106689780Y-60376632D01*
X106689778Y-60376629D01*
X106689776Y-60376625D01*
X106589655Y-60226785D01*
X106589652Y-60226781D01*
X106462224Y-60099353D01*
X106462220Y-60099350D01*
X106312380Y-59999229D01*
X106312372Y-59999225D01*
X106145873Y-59930259D01*
X105969116Y-59895100D01*
X105788896Y-59895100D01*
X105700517Y-59912679D01*
X105612138Y-59930259D01*
X105445639Y-59999225D01*
X105445631Y-59999229D01*
X105295791Y-60099350D01*
X105295787Y-60099353D01*
X105168359Y-60226781D01*
X105168356Y-60226785D01*
X105068235Y-60376625D01*
X105068231Y-60376633D01*
X104999265Y-60543132D01*
X104964106Y-60719890D01*
X104964106Y-60900110D01*
X104976884Y-60964348D01*
X104999265Y-61076867D01*
X105068231Y-61243366D01*
X105068235Y-61243374D01*
X105084244Y-61267332D01*
X105085991Y-61276114D01*
X105082789Y-61282105D01*
X104896048Y-61468848D01*
X104038668Y-62326228D01*
X104003779Y-62410456D01*
X104003779Y-66372660D01*
X104031606Y-66439839D01*
X104038669Y-66456890D01*
X105137164Y-67555386D01*
X105190279Y-67577387D01*
X105221393Y-67590275D01*
X105221394Y-67590275D01*
X105221396Y-67590276D01*
X105312568Y-67590276D01*
X105456711Y-67590276D01*
X105464984Y-67593703D01*
X105468411Y-67601976D01*
X105464984Y-67610249D01*
X105461188Y-67612785D01*
X105445639Y-67619225D01*
X105445631Y-67619229D01*
X105295791Y-67719350D01*
X105295787Y-67719353D01*
X105168359Y-67846781D01*
X105168356Y-67846785D01*
X105068235Y-67996625D01*
X105068231Y-67996633D01*
X104999265Y-68163132D01*
X104964106Y-68339890D01*
X104964106Y-68520109D01*
X104999265Y-68696867D01*
X105068231Y-68863366D01*
X105068235Y-68863374D01*
X105168356Y-69013214D01*
X105168359Y-69013218D01*
X105295787Y-69140646D01*
X105295791Y-69140649D01*
X105445631Y-69240770D01*
X105445635Y-69240772D01*
X105445638Y-69240774D01*
X105612139Y-69309741D01*
X105788896Y-69344900D01*
X105788897Y-69344900D01*
X105969115Y-69344900D01*
X105969116Y-69344900D01*
X106145873Y-69309741D01*
X106312374Y-69240774D01*
X106462221Y-69140649D01*
X106589655Y-69013215D01*
X106689780Y-68863368D01*
X106758747Y-68696867D01*
X106793906Y-68520110D01*
X106793906Y-68339890D01*
X106758747Y-68163133D01*
X106689780Y-67996632D01*
X106689778Y-67996629D01*
X106689776Y-67996625D01*
X106589655Y-67846785D01*
X106589652Y-67846781D01*
X106462224Y-67719353D01*
X106462220Y-67719350D01*
X106312380Y-67619229D01*
X106312372Y-67619225D01*
X106296824Y-67612785D01*
X106290492Y-67606453D01*
X106290492Y-67597499D01*
X106296824Y-67591167D01*
X106301301Y-67590276D01*
X107296832Y-67590276D01*
X107305105Y-67593703D01*
X108991433Y-69280030D01*
X108994860Y-69288303D01*
X108994461Y-69291331D01*
X108980656Y-69342854D01*
X108980656Y-69463453D01*
X109011866Y-69579935D01*
X109011868Y-69579939D01*
X109072163Y-69684372D01*
X109072165Y-69684375D01*
X109072166Y-69684376D01*
X109157439Y-69769649D01*
X109157440Y-69769650D01*
X109157442Y-69769651D01*
X109261875Y-69829946D01*
X109261879Y-69829948D01*
X109353744Y-69854562D01*
X109378361Y-69861158D01*
X109378363Y-69861159D01*
X109378364Y-69861159D01*
X109498959Y-69861159D01*
X109498959Y-69861158D01*
X109557201Y-69845553D01*
X109615442Y-69829948D01*
X109615446Y-69829946D01*
X109650257Y-69809847D01*
X109719883Y-69769649D01*
X109805156Y-69684376D01*
X109865454Y-69579937D01*
X109896666Y-69463451D01*
X109896666Y-69442703D01*
X109900093Y-69434430D01*
X109908366Y-69431003D01*
X109916639Y-69434430D01*
X115796907Y-75314698D01*
X115800334Y-75322971D01*
X115800334Y-83985496D01*
X115796907Y-83993769D01*
X115788634Y-83997196D01*
X115780361Y-83993769D01*
X115237735Y-83451143D01*
X115234308Y-83442870D01*
X115234308Y-83345403D01*
X115234307Y-83345399D01*
X115199418Y-83261171D01*
X115199417Y-83261169D01*
X110124097Y-78185849D01*
X110124096Y-78185848D01*
X110124094Y-78185847D01*
X110039866Y-78150958D01*
X110039864Y-78150958D01*
X105859908Y-78150958D01*
X105851635Y-78147531D01*
X105703609Y-77999505D01*
X105700182Y-77991232D01*
X105702153Y-77984734D01*
X105724449Y-77951368D01*
X105796281Y-77777951D01*
X105832900Y-77593852D01*
X105832900Y-77406148D01*
X111547100Y-77406148D01*
X111547100Y-77593852D01*
X111553471Y-77625880D01*
X111583719Y-77777951D01*
X111655550Y-77951366D01*
X111655554Y-77951374D01*
X111759833Y-78107438D01*
X111759836Y-78107442D01*
X111892557Y-78240163D01*
X111892561Y-78240166D01*
X112048625Y-78344445D01*
X112048629Y-78344447D01*
X112048632Y-78344449D01*
X112222049Y-78416281D01*
X112406148Y-78452900D01*
X112406149Y-78452900D01*
X112593851Y-78452900D01*
X112593852Y-78452900D01*
X112777951Y-78416281D01*
X112951368Y-78344449D01*
X113107439Y-78240166D01*
X113240166Y-78107439D01*
X113344449Y-77951368D01*
X113416281Y-77777951D01*
X113452900Y-77593852D01*
X113452900Y-77406148D01*
X113416281Y-77222049D01*
X113344449Y-77048632D01*
X113344447Y-77048629D01*
X113344445Y-77048625D01*
X113240166Y-76892561D01*
X113240163Y-76892557D01*
X113107442Y-76759836D01*
X113107438Y-76759833D01*
X112951374Y-76655554D01*
X112951366Y-76655550D01*
X112777951Y-76583719D01*
X112729175Y-76574017D01*
X112593852Y-76547100D01*
X112406148Y-76547100D01*
X112319098Y-76564415D01*
X112222048Y-76583719D01*
X112048633Y-76655550D01*
X112048625Y-76655554D01*
X111892561Y-76759833D01*
X111892557Y-76759836D01*
X111759836Y-76892557D01*
X111759833Y-76892561D01*
X111655554Y-77048625D01*
X111655550Y-77048633D01*
X111584954Y-77219067D01*
X111583719Y-77222049D01*
X111547100Y-77406148D01*
X105832900Y-77406148D01*
X105796281Y-77222049D01*
X105724449Y-77048632D01*
X105724447Y-77048629D01*
X105724445Y-77048625D01*
X105620166Y-76892561D01*
X105620163Y-76892557D01*
X105487442Y-76759836D01*
X105487438Y-76759833D01*
X105331374Y-76655554D01*
X105331366Y-76655550D01*
X105157951Y-76583719D01*
X105118593Y-76575890D01*
X105111148Y-76570915D01*
X105109176Y-76564415D01*
X105109176Y-76210112D01*
X105109175Y-76210108D01*
X105074286Y-76125880D01*
X105074285Y-76125878D01*
X105009154Y-76060747D01*
X105009147Y-76060741D01*
X103681856Y-74733448D01*
X103678429Y-74725175D01*
X103678429Y-66476644D01*
X103681856Y-66468371D01*
X103684275Y-66466513D01*
X103730475Y-66439841D01*
X103815748Y-66354568D01*
X103876046Y-66250129D01*
X103882164Y-66227298D01*
X103901035Y-66156867D01*
X103907258Y-66133643D01*
X103907258Y-66013049D01*
X103893236Y-65960717D01*
X103876047Y-65896564D01*
X103876045Y-65896560D01*
X103815750Y-65792127D01*
X103815746Y-65792122D01*
X103730476Y-65706852D01*
X103730471Y-65706848D01*
X103626038Y-65646553D01*
X103626034Y-65646551D01*
X103509552Y-65615341D01*
X103509550Y-65615341D01*
X103388956Y-65615341D01*
X103388953Y-65615341D01*
X103272471Y-65646551D01*
X103272467Y-65646553D01*
X103168034Y-65706848D01*
X103168029Y-65706852D01*
X103082759Y-65792122D01*
X103082755Y-65792127D01*
X103022460Y-65896560D01*
X103022458Y-65896564D01*
X102991248Y-66013046D01*
X100516131Y-66013046D01*
X100516131Y-58179890D01*
X104964106Y-58179890D01*
X104964106Y-58360110D01*
X104970560Y-58392557D01*
X104999265Y-58536867D01*
X105068231Y-58703366D01*
X105068235Y-58703374D01*
X105168356Y-58853214D01*
X105168359Y-58853218D01*
X105295787Y-58980646D01*
X105295791Y-58980649D01*
X105445631Y-59080770D01*
X105445635Y-59080772D01*
X105445638Y-59080774D01*
X105612139Y-59149741D01*
X105788896Y-59184900D01*
X105788897Y-59184900D01*
X105969115Y-59184900D01*
X105969116Y-59184900D01*
X106145873Y-59149741D01*
X106312374Y-59080774D01*
X106462221Y-58980649D01*
X106589655Y-58853215D01*
X106689780Y-58703368D01*
X106758747Y-58536867D01*
X106793906Y-58360110D01*
X106793906Y-58179890D01*
X106758747Y-58003133D01*
X106689780Y-57836632D01*
X106689778Y-57836629D01*
X106689776Y-57836625D01*
X106589655Y-57686785D01*
X106589652Y-57686781D01*
X106462224Y-57559353D01*
X106462220Y-57559350D01*
X106312380Y-57459229D01*
X106312372Y-57459225D01*
X106145873Y-57390259D01*
X105969116Y-57355100D01*
X105788896Y-57355100D01*
X105718518Y-57369099D01*
X105612138Y-57390259D01*
X105445639Y-57459225D01*
X105445631Y-57459229D01*
X105295791Y-57559350D01*
X105295787Y-57559353D01*
X105168359Y-57686781D01*
X105168356Y-57686785D01*
X105068235Y-57836625D01*
X105068231Y-57836633D01*
X104999265Y-58003132D01*
X104999265Y-58003133D01*
X104964106Y-58179890D01*
X100516131Y-58179890D01*
X100516131Y-55639890D01*
X104964106Y-55639890D01*
X104964106Y-55820110D01*
X104971596Y-55857763D01*
X104999265Y-55996867D01*
X105068231Y-56163366D01*
X105068235Y-56163374D01*
X105168356Y-56313214D01*
X105168359Y-56313218D01*
X105295787Y-56440646D01*
X105295791Y-56440649D01*
X105445631Y-56540770D01*
X105445635Y-56540772D01*
X105445638Y-56540774D01*
X105612139Y-56609741D01*
X105788896Y-56644900D01*
X105788897Y-56644900D01*
X105969115Y-56644900D01*
X105969116Y-56644900D01*
X106145873Y-56609741D01*
X106312374Y-56540774D01*
X106462221Y-56440649D01*
X106589655Y-56313215D01*
X106600975Y-56296274D01*
X106787100Y-56296274D01*
X106787100Y-57703725D01*
X106787101Y-57703744D01*
X106789940Y-57728217D01*
X106789941Y-57728224D01*
X106834172Y-57828396D01*
X106834173Y-57828398D01*
X106911601Y-57905826D01*
X106911603Y-57905827D01*
X106911604Y-57905828D01*
X106940768Y-57918705D01*
X107011775Y-57950058D01*
X107011777Y-57950058D01*
X107011779Y-57950059D01*
X107036266Y-57952900D01*
X107819800Y-57952900D01*
X107828073Y-57956327D01*
X107831500Y-57964600D01*
X107831500Y-58575400D01*
X107828073Y-58583673D01*
X107819800Y-58587100D01*
X107036266Y-58587100D01*
X107036259Y-58587100D01*
X107036255Y-58587101D01*
X107011782Y-58589940D01*
X107011775Y-58589941D01*
X106911603Y-58634172D01*
X106911601Y-58634173D01*
X106834173Y-58711601D01*
X106834172Y-58711603D01*
X106789941Y-58811775D01*
X106789940Y-58811782D01*
X106787101Y-58836255D01*
X106787100Y-58836274D01*
X106787100Y-60243725D01*
X106787101Y-60243744D01*
X106789940Y-60268217D01*
X106789941Y-60268224D01*
X106834172Y-60368396D01*
X106834173Y-60368398D01*
X106911601Y-60445826D01*
X106911603Y-60445827D01*
X106911604Y-60445828D01*
X106953835Y-60464475D01*
X107011775Y-60490058D01*
X107011777Y-60490058D01*
X107011779Y-60490059D01*
X107036266Y-60492900D01*
X107819800Y-60492900D01*
X107828073Y-60496327D01*
X107831500Y-60504600D01*
X107831500Y-61115400D01*
X107828073Y-61123673D01*
X107819800Y-61127100D01*
X107036266Y-61127100D01*
X107036259Y-61127100D01*
X107036255Y-61127101D01*
X107011782Y-61129940D01*
X107011775Y-61129941D01*
X106911603Y-61174172D01*
X106911601Y-61174173D01*
X106834173Y-61251601D01*
X106834172Y-61251603D01*
X106789941Y-61351775D01*
X106789940Y-61351782D01*
X106787101Y-61376255D01*
X106787100Y-61376274D01*
X106787100Y-62783725D01*
X106787101Y-62783744D01*
X106789940Y-62808217D01*
X106789941Y-62808224D01*
X106834172Y-62908396D01*
X106834173Y-62908398D01*
X106911601Y-62985826D01*
X106911603Y-62985827D01*
X106911604Y-62985828D01*
X106953835Y-63004475D01*
X107011775Y-63030058D01*
X107011777Y-63030058D01*
X107011779Y-63030059D01*
X107036266Y-63032900D01*
X107819800Y-63032900D01*
X107828073Y-63036327D01*
X107831500Y-63044600D01*
X107831500Y-63655400D01*
X107828073Y-63663673D01*
X107819800Y-63667100D01*
X107036266Y-63667100D01*
X107036259Y-63667100D01*
X107036255Y-63667101D01*
X107011782Y-63669940D01*
X107011775Y-63669941D01*
X106911603Y-63714172D01*
X106911601Y-63714173D01*
X106834173Y-63791601D01*
X106834172Y-63791603D01*
X106789941Y-63891775D01*
X106789940Y-63891782D01*
X106787101Y-63916255D01*
X106787100Y-63916274D01*
X106787100Y-65323725D01*
X106787101Y-65323744D01*
X106789940Y-65348217D01*
X106789941Y-65348224D01*
X106834172Y-65448396D01*
X106834173Y-65448398D01*
X106911601Y-65525826D01*
X106911603Y-65525827D01*
X106911604Y-65525828D01*
X106951082Y-65543259D01*
X107011775Y-65570058D01*
X107011777Y-65570058D01*
X107011779Y-65570059D01*
X107036266Y-65572900D01*
X107819800Y-65572900D01*
X107828073Y-65576327D01*
X107831500Y-65584600D01*
X107831500Y-66451758D01*
X107866151Y-66581083D01*
X107866153Y-66581087D01*
X107933096Y-66697033D01*
X107933098Y-66697036D01*
X107933099Y-66697037D01*
X108027774Y-66791712D01*
X108027775Y-66791713D01*
X108027777Y-66791714D01*
X108143723Y-66858657D01*
X108143727Y-66858659D01*
X108239361Y-66884283D01*
X108273052Y-66893310D01*
X108273054Y-66893311D01*
X108273055Y-66893311D01*
X111784406Y-66893311D01*
X111792679Y-66896738D01*
X111796106Y-66905011D01*
X111796106Y-67855895D01*
X111811359Y-67932579D01*
X111854157Y-67996632D01*
X111869465Y-68019541D01*
X111956427Y-68077647D01*
X112033110Y-68092900D01*
X112033111Y-68092900D01*
X112964901Y-68092900D01*
X112964902Y-68092900D01*
X113041585Y-68077647D01*
X113128547Y-68019541D01*
X113186653Y-67932579D01*
X113201906Y-67855896D01*
X113201906Y-66905011D01*
X113205333Y-66896738D01*
X113213606Y-66893311D01*
X113784406Y-66893311D01*
X113792679Y-66896738D01*
X113796106Y-66905011D01*
X113796106Y-67855895D01*
X113811359Y-67932579D01*
X113854157Y-67996632D01*
X113869465Y-68019541D01*
X113956427Y-68077647D01*
X114033110Y-68092900D01*
X114033111Y-68092900D01*
X114964901Y-68092900D01*
X114964902Y-68092900D01*
X115041585Y-68077647D01*
X115128547Y-68019541D01*
X115186653Y-67932579D01*
X115201906Y-67855896D01*
X115201906Y-66905011D01*
X115205333Y-66896738D01*
X115213606Y-66893311D01*
X118566946Y-66893311D01*
X118566946Y-66893310D01*
X118631609Y-66875984D01*
X118696272Y-66858659D01*
X118696276Y-66858657D01*
X118789384Y-66804900D01*
X118812226Y-66791712D01*
X118906901Y-66697037D01*
X118973847Y-66581085D01*
X118978712Y-66562931D01*
X119001831Y-66476644D01*
X119008500Y-66451756D01*
X119008500Y-65584600D01*
X119011927Y-65576327D01*
X119020200Y-65572900D01*
X119802732Y-65572900D01*
X119802740Y-65572900D01*
X119827227Y-65570059D01*
X119827228Y-65570058D01*
X119827230Y-65570058D01*
X119847259Y-65561214D01*
X119871498Y-65550510D01*
X119880449Y-65550304D01*
X119886926Y-65556488D01*
X119887923Y-65561214D01*
X119887923Y-66354415D01*
X119914450Y-66418456D01*
X119922813Y-66438645D01*
X120727446Y-67243277D01*
X120791914Y-67307745D01*
X120813367Y-67316631D01*
X120876143Y-67342634D01*
X120876144Y-67342634D01*
X120876146Y-67342635D01*
X121491067Y-67342635D01*
X121499340Y-67346062D01*
X131597686Y-77444408D01*
X131601113Y-77452681D01*
X131597686Y-77460954D01*
X131589413Y-77464381D01*
X131568976Y-77464381D01*
X131517453Y-77478186D01*
X131508575Y-77477017D01*
X131506152Y-77475158D01*
X126749863Y-72718869D01*
X126749862Y-72718868D01*
X126749860Y-72718867D01*
X126665632Y-72683978D01*
X126665630Y-72683978D01*
X122290085Y-72683978D01*
X122281812Y-72680551D01*
X122279953Y-72678128D01*
X122253283Y-72631935D01*
X122253279Y-72631930D01*
X122168009Y-72546660D01*
X122168004Y-72546656D01*
X122063571Y-72486361D01*
X122063567Y-72486359D01*
X121947085Y-72455149D01*
X121947083Y-72455149D01*
X121826489Y-72455149D01*
X121826486Y-72455149D01*
X121710004Y-72486359D01*
X121710000Y-72486361D01*
X121605567Y-72546656D01*
X121605562Y-72546660D01*
X121520292Y-72631930D01*
X121520288Y-72631935D01*
X121459993Y-72736368D01*
X121459991Y-72736372D01*
X121428781Y-72852854D01*
X121428781Y-72973453D01*
X121459991Y-73089935D01*
X121459993Y-73089939D01*
X121520288Y-73194372D01*
X121520290Y-73194375D01*
X121520291Y-73194376D01*
X121605564Y-73279649D01*
X121605565Y-73279650D01*
X121605567Y-73279651D01*
X121710000Y-73339946D01*
X121710004Y-73339948D01*
X121801869Y-73364562D01*
X121826486Y-73371158D01*
X121826488Y-73371159D01*
X121826489Y-73371159D01*
X121947084Y-73371159D01*
X121947084Y-73371158D01*
X122005326Y-73355553D01*
X122063567Y-73339948D01*
X122063571Y-73339946D01*
X122098382Y-73319847D01*
X122168008Y-73279649D01*
X122253281Y-73194376D01*
X122263176Y-73177236D01*
X122279953Y-73148180D01*
X122287057Y-73142729D01*
X122290085Y-73142330D01*
X126520270Y-73142330D01*
X126528543Y-73145757D01*
X131182048Y-77799262D01*
X131185475Y-77807535D01*
X131185076Y-77810563D01*
X131171271Y-77862086D01*
X131171271Y-77982685D01*
X131202481Y-78099167D01*
X131202483Y-78099171D01*
X131262778Y-78203604D01*
X131262780Y-78203607D01*
X131262781Y-78203608D01*
X131348054Y-78288881D01*
X131348055Y-78288882D01*
X131348057Y-78288883D01*
X131452490Y-78349178D01*
X131452494Y-78349180D01*
X131544359Y-78373794D01*
X131568976Y-78380390D01*
X131568978Y-78380391D01*
X131568979Y-78380391D01*
X131689574Y-78380391D01*
X131689574Y-78380390D01*
X131747816Y-78364785D01*
X131806057Y-78349180D01*
X131806061Y-78349178D01*
X131850347Y-78323609D01*
X131910498Y-78288881D01*
X131995771Y-78203608D01*
X132028147Y-78147531D01*
X132047599Y-78113840D01*
X132054703Y-78108389D01*
X132063581Y-78109558D01*
X132069032Y-78116662D01*
X132069431Y-78119690D01*
X132069431Y-84777195D01*
X132104320Y-84861423D01*
X132104322Y-84861426D01*
X143848844Y-96605948D01*
X143852271Y-96614221D01*
X143848844Y-96622494D01*
X143840571Y-96625921D01*
X143834071Y-96623949D01*
X143815057Y-96611244D01*
X143815049Y-96611240D01*
X143632535Y-96535641D01*
X143438777Y-96497100D01*
X143241223Y-96497100D01*
X143144344Y-96516370D01*
X143047464Y-96535641D01*
X142864950Y-96611240D01*
X142864942Y-96611244D01*
X142700688Y-96720995D01*
X142700684Y-96720998D01*
X142560998Y-96860684D01*
X142560995Y-96860688D01*
X142451244Y-97024942D01*
X142451240Y-97024950D01*
X142375641Y-97207464D01*
X142337100Y-97401223D01*
X142337100Y-97598776D01*
X142375641Y-97792535D01*
X142451240Y-97975049D01*
X142451244Y-97975057D01*
X142560995Y-98139311D01*
X142560998Y-98139315D01*
X142700684Y-98279001D01*
X142700688Y-98279004D01*
X142864942Y-98388755D01*
X142864946Y-98388757D01*
X142864949Y-98388759D01*
X143047465Y-98464359D01*
X143241223Y-98502900D01*
X143241224Y-98502900D01*
X143438776Y-98502900D01*
X143438777Y-98502900D01*
X143632535Y-98464359D01*
X143815051Y-98388759D01*
X143979312Y-98279004D01*
X144119004Y-98139312D01*
X144228759Y-97975051D01*
X144304359Y-97792535D01*
X144342900Y-97598777D01*
X144342900Y-97401223D01*
X144304359Y-97207465D01*
X144228759Y-97024949D01*
X144228757Y-97024946D01*
X144228755Y-97024942D01*
X144216050Y-97005928D01*
X144214303Y-96997146D01*
X144219278Y-96989700D01*
X144228060Y-96987953D01*
X144234051Y-96991155D01*
X148855602Y-101612706D01*
X148859029Y-101620979D01*
X148859029Y-105392490D01*
X148893918Y-105476718D01*
X148893920Y-105476721D01*
X151767397Y-108350198D01*
X151770824Y-108358471D01*
X151770824Y-108535400D01*
X151767397Y-108543673D01*
X151759124Y-108547100D01*
X151418291Y-108547100D01*
X151323946Y-108562042D01*
X151210228Y-108619984D01*
X151119984Y-108710228D01*
X151062042Y-108823946D01*
X151047100Y-108918291D01*
X151047100Y-110081708D01*
X151062042Y-110176053D01*
X151062042Y-110176054D01*
X151062043Y-110176055D01*
X151119984Y-110289771D01*
X151210229Y-110380016D01*
X151323945Y-110437957D01*
X151371118Y-110445428D01*
X151418291Y-110452900D01*
X151418292Y-110452900D01*
X152581708Y-110452900D01*
X152676055Y-110437957D01*
X152789771Y-110380016D01*
X152880016Y-110289771D01*
X152937957Y-110176055D01*
X152952900Y-110081708D01*
X152952900Y-109740876D01*
X152956327Y-109732603D01*
X152964600Y-109729176D01*
X153286887Y-109729176D01*
X153286889Y-109729176D01*
X153371121Y-109694286D01*
X158466309Y-104599098D01*
X158474582Y-104595671D01*
X165776440Y-104595671D01*
X165784713Y-104599098D01*
X165788140Y-104607371D01*
X165784713Y-104615644D01*
X165744557Y-104655799D01*
X165744553Y-104655804D01*
X165684258Y-104760237D01*
X165684256Y-104760241D01*
X165653046Y-104876723D01*
X165653046Y-104997322D01*
X165666851Y-105048845D01*
X165665682Y-105057723D01*
X165663823Y-105060146D01*
X163303944Y-107420024D01*
X163303942Y-107420027D01*
X163241123Y-107482846D01*
X163241121Y-107482849D01*
X163206232Y-107567077D01*
X163206232Y-124576998D01*
X163202805Y-124585271D01*
X163200382Y-124587130D01*
X163154189Y-124613799D01*
X163154184Y-124613803D01*
X163068914Y-124699073D01*
X163068910Y-124699078D01*
X163008615Y-124803511D01*
X163008613Y-124803515D01*
X162977403Y-124919997D01*
X162977403Y-125040596D01*
X163008613Y-125157078D01*
X163008615Y-125157082D01*
X163068910Y-125261515D01*
X163068912Y-125261518D01*
X163068913Y-125261519D01*
X163154186Y-125346792D01*
X163154187Y-125346793D01*
X163154189Y-125346794D01*
X163258622Y-125407089D01*
X163258626Y-125407091D01*
X163350491Y-125431705D01*
X163375108Y-125438301D01*
X163375110Y-125438302D01*
X163375111Y-125438302D01*
X163495706Y-125438302D01*
X163495706Y-125438301D01*
X163553948Y-125422696D01*
X163612189Y-125407091D01*
X163612193Y-125407089D01*
X163691337Y-125361395D01*
X163691339Y-125361394D01*
X177437100Y-125361394D01*
X177437100Y-125558605D01*
X177467949Y-125753380D01*
X177467953Y-125753396D01*
X177528888Y-125940938D01*
X177528890Y-125940942D01*
X177528892Y-125940947D01*
X177537063Y-125956983D01*
X177618427Y-126116669D01*
X177734334Y-126276199D01*
X177734338Y-126276203D01*
X177734342Y-126276209D01*
X177873791Y-126415658D01*
X177873796Y-126415662D01*
X177873800Y-126415665D01*
X178033330Y-126531572D01*
X178033335Y-126531574D01*
X178033337Y-126531576D01*
X178209053Y-126621108D01*
X178209058Y-126621109D01*
X178209061Y-126621111D01*
X178366783Y-126672357D01*
X178396612Y-126682049D01*
X178475891Y-126694605D01*
X178591394Y-126712900D01*
X178591395Y-126712900D01*
X178788605Y-126712900D01*
X178983388Y-126682049D01*
X179170947Y-126621108D01*
X179346663Y-126531576D01*
X179506209Y-126415658D01*
X179645658Y-126276209D01*
X179706771Y-126192095D01*
X179761572Y-126116669D01*
X179761572Y-126116667D01*
X179761576Y-126116663D01*
X179851108Y-125940947D01*
X179912049Y-125753388D01*
X179942900Y-125558605D01*
X179942900Y-125361395D01*
X179940587Y-125346794D01*
X179912050Y-125166619D01*
X179912049Y-125166612D01*
X179902357Y-125136783D01*
X179851111Y-124979061D01*
X179851109Y-124979057D01*
X179851108Y-124979053D01*
X179761576Y-124803337D01*
X179761574Y-124803335D01*
X179761572Y-124803330D01*
X179645665Y-124643800D01*
X179645662Y-124643796D01*
X179645658Y-124643791D01*
X179506209Y-124504342D01*
X179506203Y-124504338D01*
X179506199Y-124504334D01*
X179346669Y-124388427D01*
X179330060Y-124379964D01*
X179170947Y-124298892D01*
X179170944Y-124298891D01*
X179170942Y-124298890D01*
X179170938Y-124298888D01*
X178983396Y-124237953D01*
X178983380Y-124237949D01*
X178788606Y-124207100D01*
X178788605Y-124207100D01*
X178591395Y-124207100D01*
X178591394Y-124207100D01*
X178396619Y-124237949D01*
X178396603Y-124237953D01*
X178209061Y-124298888D01*
X178209057Y-124298890D01*
X178033330Y-124388427D01*
X177873800Y-124504334D01*
X177873784Y-124504348D01*
X177734348Y-124643784D01*
X177734334Y-124643800D01*
X177618427Y-124803330D01*
X177528890Y-124979057D01*
X177528888Y-124979061D01*
X177467953Y-125166603D01*
X177467949Y-125166619D01*
X177437100Y-125361394D01*
X163691339Y-125361394D01*
X163716630Y-125346792D01*
X163801903Y-125261519D01*
X163862201Y-125157080D01*
X163893413Y-125040594D01*
X163893413Y-124920000D01*
X163886816Y-124895380D01*
X163862202Y-124803515D01*
X163862200Y-124803511D01*
X163801905Y-124699078D01*
X163801901Y-124699073D01*
X163716631Y-124613803D01*
X163716626Y-124613799D01*
X163670434Y-124587130D01*
X163664983Y-124580026D01*
X163664584Y-124576998D01*
X163664584Y-122821394D01*
X183787100Y-122821394D01*
X183787100Y-123018605D01*
X183817949Y-123213380D01*
X183817953Y-123213396D01*
X183878888Y-123400938D01*
X183878890Y-123400942D01*
X183878892Y-123400947D01*
X183959964Y-123560060D01*
X183968427Y-123576669D01*
X184084334Y-123736199D01*
X184084338Y-123736203D01*
X184084342Y-123736209D01*
X184223791Y-123875658D01*
X184223796Y-123875662D01*
X184223800Y-123875665D01*
X184383330Y-123991572D01*
X184383335Y-123991574D01*
X184383337Y-123991576D01*
X184559053Y-124081108D01*
X184559058Y-124081109D01*
X184559061Y-124081111D01*
X184716783Y-124132357D01*
X184746612Y-124142049D01*
X184825891Y-124154605D01*
X184941394Y-124172900D01*
X184941395Y-124172900D01*
X185138605Y-124172900D01*
X185333388Y-124142049D01*
X185520947Y-124081108D01*
X185696663Y-123991576D01*
X185856209Y-123875658D01*
X185995658Y-123736209D01*
X186111576Y-123576663D01*
X186201108Y-123400947D01*
X186262049Y-123213388D01*
X186292900Y-123018605D01*
X186292900Y-122821395D01*
X186262049Y-122626612D01*
X186201108Y-122439053D01*
X186111576Y-122263337D01*
X186111574Y-122263335D01*
X186111572Y-122263330D01*
X185995665Y-122103800D01*
X185995662Y-122103796D01*
X185995658Y-122103791D01*
X185856209Y-121964342D01*
X185856203Y-121964338D01*
X185856199Y-121964334D01*
X185696669Y-121848427D01*
X185589222Y-121793680D01*
X185520947Y-121758892D01*
X185520944Y-121758891D01*
X185520942Y-121758890D01*
X185520938Y-121758888D01*
X185333396Y-121697953D01*
X185333380Y-121697949D01*
X185138606Y-121667100D01*
X185138605Y-121667100D01*
X184941395Y-121667100D01*
X184941394Y-121667100D01*
X184746619Y-121697949D01*
X184746603Y-121697953D01*
X184559061Y-121758888D01*
X184559057Y-121758890D01*
X184383330Y-121848427D01*
X184223800Y-121964334D01*
X184223784Y-121964348D01*
X184084348Y-122103784D01*
X184084334Y-122103800D01*
X183968427Y-122263330D01*
X183878890Y-122439057D01*
X183878888Y-122439061D01*
X183817953Y-122626603D01*
X183817949Y-122626619D01*
X183787100Y-122821394D01*
X163664584Y-122821394D01*
X163664584Y-121149733D01*
X163668011Y-121141460D01*
X163676284Y-121138033D01*
X163684557Y-121141460D01*
X163687759Y-121147451D01*
X163706318Y-121240759D01*
X163768539Y-121390972D01*
X163768543Y-121390980D01*
X163858868Y-121526160D01*
X163862472Y-121529763D01*
X164167734Y-121224500D01*
X164179920Y-121245606D01*
X164254394Y-121320080D01*
X164275497Y-121332264D01*
X163970235Y-121637526D01*
X163973839Y-121641131D01*
X164109019Y-121731456D01*
X164109027Y-121731460D01*
X164259239Y-121793680D01*
X164418706Y-121825400D01*
X164581294Y-121825400D01*
X164740760Y-121793680D01*
X164890972Y-121731460D01*
X164890980Y-121731456D01*
X165026162Y-121641130D01*
X165026164Y-121641128D01*
X165029764Y-121637527D01*
X165029764Y-121637526D01*
X164724501Y-121332264D01*
X164745606Y-121320080D01*
X164820080Y-121245606D01*
X164832264Y-121224501D01*
X165137526Y-121529764D01*
X165137527Y-121529764D01*
X165141128Y-121526164D01*
X165141130Y-121526162D01*
X165231456Y-121390980D01*
X165231460Y-121390972D01*
X165293680Y-121240760D01*
X165325400Y-121081294D01*
X165325400Y-120918704D01*
X165323242Y-120907855D01*
X165322902Y-120906148D01*
X166047100Y-120906148D01*
X166047100Y-121093851D01*
X166083719Y-121277951D01*
X166155550Y-121451366D01*
X166155554Y-121451374D01*
X166259833Y-121607438D01*
X166259836Y-121607442D01*
X166392557Y-121740163D01*
X166392561Y-121740166D01*
X166548625Y-121844445D01*
X166548629Y-121844447D01*
X166548632Y-121844449D01*
X166722049Y-121916281D01*
X166906148Y-121952900D01*
X166906149Y-121952900D01*
X167093851Y-121952900D01*
X167093852Y-121952900D01*
X167277951Y-121916281D01*
X167451368Y-121844449D01*
X167607439Y-121740166D01*
X167740166Y-121607439D01*
X167844449Y-121451368D01*
X167916281Y-121277951D01*
X167952900Y-121093852D01*
X167952900Y-120906148D01*
X167916281Y-120722049D01*
X167844449Y-120548632D01*
X167844447Y-120548629D01*
X167844445Y-120548625D01*
X167740166Y-120392561D01*
X167740163Y-120392557D01*
X167607442Y-120259836D01*
X167607438Y-120259833D01*
X167451374Y-120155554D01*
X167451366Y-120155550D01*
X167277951Y-120083719D01*
X167093852Y-120047100D01*
X166906148Y-120047100D01*
X166814098Y-120065409D01*
X166722048Y-120083719D01*
X166548633Y-120155550D01*
X166548625Y-120155554D01*
X166392561Y-120259833D01*
X166392557Y-120259836D01*
X166259836Y-120392557D01*
X166259833Y-120392561D01*
X166155554Y-120548625D01*
X166155550Y-120548633D01*
X166083719Y-120722048D01*
X166047100Y-120906148D01*
X165322902Y-120906148D01*
X165293680Y-120759239D01*
X165231460Y-120609027D01*
X165231456Y-120609019D01*
X165141131Y-120473839D01*
X165137526Y-120470235D01*
X164832264Y-120775497D01*
X164820080Y-120754394D01*
X164745606Y-120679920D01*
X164724500Y-120667734D01*
X165029764Y-120362472D01*
X165026160Y-120358868D01*
X164890980Y-120268543D01*
X164890972Y-120268539D01*
X164740760Y-120206319D01*
X164581294Y-120174600D01*
X164418706Y-120174600D01*
X164259239Y-120206319D01*
X164109027Y-120268539D01*
X164109019Y-120268543D01*
X163973841Y-120358867D01*
X163973836Y-120358871D01*
X163970235Y-120362471D01*
X164275498Y-120667735D01*
X164254394Y-120679920D01*
X164179920Y-120754394D01*
X164167735Y-120775498D01*
X163862472Y-120470235D01*
X163862471Y-120470235D01*
X163858871Y-120473836D01*
X163858867Y-120473841D01*
X163768543Y-120609019D01*
X163768539Y-120609027D01*
X163706319Y-120759239D01*
X163687759Y-120852549D01*
X163682784Y-120859994D01*
X163674001Y-120861741D01*
X163666556Y-120856766D01*
X163664584Y-120850266D01*
X163664584Y-109406148D01*
X178237100Y-109406148D01*
X178237100Y-109593851D01*
X178273719Y-109777951D01*
X178345550Y-109951366D01*
X178345554Y-109951374D01*
X178449833Y-110107438D01*
X178449836Y-110107442D01*
X178582557Y-110240163D01*
X178582561Y-110240166D01*
X178738625Y-110344445D01*
X178738629Y-110344447D01*
X178738632Y-110344449D01*
X178912049Y-110416281D01*
X179096148Y-110452900D01*
X179096149Y-110452900D01*
X179283851Y-110452900D01*
X179283852Y-110452900D01*
X179467951Y-110416281D01*
X179641368Y-110344449D01*
X179797439Y-110240166D01*
X179930166Y-110107439D01*
X180034449Y-109951368D01*
X180106281Y-109777951D01*
X180142900Y-109593852D01*
X180142900Y-109406148D01*
X180106281Y-109222049D01*
X180034449Y-109048632D01*
X180034447Y-109048629D01*
X180034445Y-109048625D01*
X179930166Y-108892561D01*
X179930163Y-108892557D01*
X179797442Y-108759836D01*
X179797438Y-108759833D01*
X179641374Y-108655554D01*
X179641366Y-108655550D01*
X179467951Y-108583719D01*
X179283852Y-108547100D01*
X179096148Y-108547100D01*
X179021023Y-108562043D01*
X178912048Y-108583719D01*
X178738633Y-108655550D01*
X178738625Y-108655554D01*
X178582561Y-108759833D01*
X178582557Y-108759836D01*
X178449836Y-108892557D01*
X178449833Y-108892561D01*
X178345554Y-109048625D01*
X178345550Y-109048633D01*
X178273719Y-109222048D01*
X178237100Y-109406148D01*
X163664584Y-109406148D01*
X163664584Y-107712438D01*
X163668010Y-107704166D01*
X165987927Y-105384248D01*
X165996199Y-105380822D01*
X165999226Y-105381220D01*
X166050751Y-105395027D01*
X166050753Y-105395028D01*
X166050754Y-105395028D01*
X166171349Y-105395028D01*
X166171349Y-105395027D01*
X166229591Y-105379422D01*
X166287832Y-105363817D01*
X166287836Y-105363815D01*
X166322647Y-105343716D01*
X166392273Y-105303518D01*
X166477546Y-105218245D01*
X166537844Y-105113806D01*
X166569056Y-104997320D01*
X166569056Y-104876726D01*
X166562459Y-104852106D01*
X166537845Y-104760241D01*
X166537843Y-104760237D01*
X166477548Y-104655804D01*
X166477544Y-104655799D01*
X166437389Y-104615644D01*
X166433962Y-104607371D01*
X166437389Y-104599098D01*
X166445662Y-104595671D01*
X180335418Y-104595671D01*
X180343691Y-104599098D01*
X185438879Y-109694286D01*
X185491994Y-109716287D01*
X185523108Y-109729175D01*
X185523109Y-109729175D01*
X185523111Y-109729176D01*
X185614282Y-109729176D01*
X185845400Y-109729176D01*
X185853673Y-109732603D01*
X185857100Y-109740876D01*
X185857100Y-110081708D01*
X185872042Y-110176053D01*
X185872042Y-110176054D01*
X185872043Y-110176055D01*
X185929984Y-110289771D01*
X186020229Y-110380016D01*
X186133945Y-110437957D01*
X186181118Y-110445428D01*
X186228291Y-110452900D01*
X186228292Y-110452900D01*
X187391708Y-110452900D01*
X187486055Y-110437957D01*
X187599771Y-110380016D01*
X187690016Y-110289771D01*
X187747957Y-110176055D01*
X187762900Y-110081708D01*
X187762900Y-108918292D01*
X187747957Y-108823945D01*
X187690016Y-108710229D01*
X187599771Y-108619984D01*
X187486055Y-108562043D01*
X187486054Y-108562042D01*
X187486053Y-108562042D01*
X187391709Y-108547100D01*
X187391708Y-108547100D01*
X186228292Y-108547100D01*
X186228291Y-108547100D01*
X186133946Y-108562042D01*
X186020228Y-108619984D01*
X185929984Y-108710228D01*
X185872042Y-108823946D01*
X185857100Y-108918291D01*
X185857100Y-109259124D01*
X185853673Y-109267397D01*
X185845400Y-109270824D01*
X185668471Y-109270824D01*
X185660198Y-109267397D01*
X180565011Y-104172210D01*
X180565010Y-104172209D01*
X180565008Y-104172208D01*
X180480780Y-104137319D01*
X180480778Y-104137319D01*
X158420393Y-104137319D01*
X158329222Y-104137319D01*
X158329219Y-104137319D01*
X158244991Y-104172208D01*
X153149802Y-109267397D01*
X153141529Y-109270824D01*
X152964600Y-109270824D01*
X152956327Y-109267397D01*
X152952900Y-109259124D01*
X152952900Y-108918291D01*
X152937957Y-108823946D01*
X152937957Y-108823945D01*
X152880016Y-108710229D01*
X152789771Y-108619984D01*
X152676055Y-108562043D01*
X152676054Y-108562042D01*
X152676053Y-108562042D01*
X152581709Y-108547100D01*
X152581708Y-108547100D01*
X152240876Y-108547100D01*
X152232603Y-108543673D01*
X152229176Y-108535400D01*
X152229176Y-108213112D01*
X152229175Y-108213108D01*
X152194286Y-108128880D01*
X152194285Y-108128878D01*
X149320808Y-105255401D01*
X149317381Y-105247128D01*
X149317381Y-101475620D01*
X149317380Y-101475616D01*
X149282491Y-101391388D01*
X149282490Y-101391386D01*
X147191419Y-99300315D01*
X147187992Y-99292042D01*
X147191419Y-99283769D01*
X147199692Y-99280342D01*
X147206814Y-99282760D01*
X147218911Y-99292042D01*
X147221347Y-99293911D01*
X147221352Y-99293914D01*
X147221358Y-99293918D01*
X147369376Y-99379376D01*
X147465754Y-99435020D01*
X147465756Y-99435020D01*
X147465758Y-99435022D01*
X147726478Y-99543016D01*
X147726488Y-99543020D01*
X147999089Y-99616063D01*
X148278892Y-99652900D01*
X148561108Y-99652900D01*
X148840911Y-99616063D01*
X149113512Y-99543020D01*
X149374246Y-99435020D01*
X149618653Y-99293911D01*
X149842551Y-99122109D01*
X150042109Y-98922551D01*
X150213911Y-98698653D01*
X150355020Y-98454246D01*
X150463020Y-98193512D01*
X150536063Y-97920911D01*
X150572900Y-97641108D01*
X150572900Y-97401223D01*
X152497100Y-97401223D01*
X152497100Y-97598776D01*
X152535641Y-97792535D01*
X152611240Y-97975049D01*
X152611244Y-97975057D01*
X152720995Y-98139311D01*
X152720998Y-98139315D01*
X152860684Y-98279001D01*
X152860688Y-98279004D01*
X153024942Y-98388755D01*
X153024946Y-98388757D01*
X153024949Y-98388759D01*
X153207465Y-98464359D01*
X153401223Y-98502900D01*
X153401224Y-98502900D01*
X153598776Y-98502900D01*
X153598777Y-98502900D01*
X153792535Y-98464359D01*
X153975051Y-98388759D01*
X154139312Y-98279004D01*
X154279004Y-98139312D01*
X154388759Y-97975051D01*
X154464359Y-97792535D01*
X154502900Y-97598777D01*
X154502900Y-97401223D01*
X176417100Y-97401223D01*
X176417100Y-97598776D01*
X176455641Y-97792535D01*
X176531240Y-97975049D01*
X176531244Y-97975057D01*
X176640995Y-98139311D01*
X176640998Y-98139315D01*
X176780684Y-98279001D01*
X176780688Y-98279004D01*
X176944942Y-98388755D01*
X176944946Y-98388757D01*
X176944949Y-98388759D01*
X177127465Y-98464359D01*
X177321223Y-98502900D01*
X177321224Y-98502900D01*
X177518776Y-98502900D01*
X177518777Y-98502900D01*
X177712535Y-98464359D01*
X177895051Y-98388759D01*
X178059312Y-98279004D01*
X178199004Y-98139312D01*
X178308759Y-97975051D01*
X178384359Y-97792535D01*
X178422900Y-97598777D01*
X178422900Y-97401223D01*
X178414480Y-97358892D01*
X180347100Y-97358892D01*
X180347100Y-97641107D01*
X180383936Y-97920909D01*
X180456979Y-98193510D01*
X180456983Y-98193521D01*
X180564977Y-98454241D01*
X180564980Y-98454246D01*
X180706081Y-98698641D01*
X180706095Y-98698661D01*
X180825904Y-98854800D01*
X180877891Y-98922551D01*
X181077449Y-99122109D01*
X181301347Y-99293911D01*
X181301352Y-99293914D01*
X181301358Y-99293918D01*
X181449376Y-99379376D01*
X181545754Y-99435020D01*
X181545756Y-99435020D01*
X181545758Y-99435022D01*
X181806478Y-99543016D01*
X181806488Y-99543020D01*
X182079089Y-99616063D01*
X182358892Y-99652900D01*
X182641108Y-99652900D01*
X182920911Y-99616063D01*
X183193512Y-99543020D01*
X183454246Y-99435020D01*
X183698653Y-99293911D01*
X183922551Y-99122109D01*
X184122109Y-98922551D01*
X184293911Y-98698653D01*
X184435020Y-98454246D01*
X184543020Y-98193512D01*
X184616063Y-97920911D01*
X184652900Y-97641108D01*
X184652900Y-97401223D01*
X186577100Y-97401223D01*
X186577100Y-97598776D01*
X186615641Y-97792535D01*
X186691240Y-97975049D01*
X186691244Y-97975057D01*
X186800995Y-98139311D01*
X186800998Y-98139315D01*
X186940684Y-98279001D01*
X186940688Y-98279004D01*
X187104942Y-98388755D01*
X187104946Y-98388757D01*
X187104949Y-98388759D01*
X187287465Y-98464359D01*
X187481223Y-98502900D01*
X187481224Y-98502900D01*
X187678776Y-98502900D01*
X187678777Y-98502900D01*
X187872535Y-98464359D01*
X188055051Y-98388759D01*
X188219312Y-98279004D01*
X188359004Y-98139312D01*
X188468759Y-97975051D01*
X188544359Y-97792535D01*
X188582900Y-97598777D01*
X188582900Y-97401223D01*
X188544359Y-97207465D01*
X188468759Y-97024949D01*
X188468757Y-97024946D01*
X188468755Y-97024942D01*
X188359004Y-96860688D01*
X188359001Y-96860684D01*
X188219315Y-96720998D01*
X188219311Y-96720995D01*
X188055057Y-96611244D01*
X188055049Y-96611240D01*
X187872535Y-96535641D01*
X187678777Y-96497100D01*
X187481223Y-96497100D01*
X187384344Y-96516370D01*
X187287464Y-96535641D01*
X187104950Y-96611240D01*
X187104942Y-96611244D01*
X186940688Y-96720995D01*
X186940684Y-96720998D01*
X186800998Y-96860684D01*
X186800995Y-96860688D01*
X186691244Y-97024942D01*
X186691240Y-97024950D01*
X186615641Y-97207464D01*
X186577100Y-97401223D01*
X184652900Y-97401223D01*
X184652900Y-97358892D01*
X184616063Y-97079089D01*
X184543020Y-96806488D01*
X184507608Y-96720996D01*
X184435022Y-96545758D01*
X184435019Y-96545753D01*
X184293918Y-96301358D01*
X184293914Y-96301352D01*
X184293911Y-96301347D01*
X184122109Y-96077449D01*
X183922551Y-95877891D01*
X183698653Y-95706089D01*
X183698649Y-95706087D01*
X183698641Y-95706081D01*
X183454246Y-95564980D01*
X183454241Y-95564977D01*
X183193521Y-95456983D01*
X183193510Y-95456979D01*
X182920909Y-95383936D01*
X182641108Y-95347100D01*
X182358892Y-95347100D01*
X182079090Y-95383936D01*
X181806489Y-95456979D01*
X181806478Y-95456983D01*
X181545758Y-95564977D01*
X181545753Y-95564980D01*
X181301358Y-95706081D01*
X181301338Y-95706095D01*
X181077457Y-95877884D01*
X181077443Y-95877896D01*
X180877896Y-96077443D01*
X180877884Y-96077457D01*
X180706095Y-96301338D01*
X180706081Y-96301358D01*
X180564980Y-96545753D01*
X180564977Y-96545758D01*
X180456983Y-96806478D01*
X180456979Y-96806489D01*
X180383936Y-97079090D01*
X180347100Y-97358892D01*
X178414480Y-97358892D01*
X178384359Y-97207465D01*
X178308759Y-97024949D01*
X178308757Y-97024946D01*
X178308755Y-97024942D01*
X178199004Y-96860688D01*
X178199001Y-96860684D01*
X178059315Y-96720998D01*
X178059311Y-96720995D01*
X177895057Y-96611244D01*
X177895049Y-96611240D01*
X177712535Y-96535641D01*
X177518777Y-96497100D01*
X177321223Y-96497100D01*
X177224344Y-96516370D01*
X177127464Y-96535641D01*
X176944950Y-96611240D01*
X176944942Y-96611244D01*
X176780688Y-96720995D01*
X176780684Y-96720998D01*
X176640998Y-96860684D01*
X176640995Y-96860688D01*
X176531244Y-97024942D01*
X176531240Y-97024950D01*
X176455641Y-97207464D01*
X176417100Y-97401223D01*
X154502900Y-97401223D01*
X154464359Y-97207465D01*
X154388759Y-97024949D01*
X154388757Y-97024946D01*
X154388755Y-97024942D01*
X154279004Y-96860688D01*
X154279001Y-96860684D01*
X154139315Y-96720998D01*
X154139311Y-96720995D01*
X153975057Y-96611244D01*
X153975049Y-96611240D01*
X153792535Y-96535641D01*
X153598777Y-96497100D01*
X153401223Y-96497100D01*
X153304344Y-96516370D01*
X153207464Y-96535641D01*
X153024950Y-96611240D01*
X153024942Y-96611244D01*
X152860688Y-96720995D01*
X152860684Y-96720998D01*
X152720998Y-96860684D01*
X152720995Y-96860688D01*
X152611244Y-97024942D01*
X152611240Y-97024950D01*
X152535641Y-97207464D01*
X152497100Y-97401223D01*
X150572900Y-97401223D01*
X150572900Y-97358892D01*
X150536063Y-97079089D01*
X150463020Y-96806488D01*
X150427608Y-96720996D01*
X150355022Y-96545758D01*
X150355019Y-96545753D01*
X150213918Y-96301358D01*
X150213914Y-96301352D01*
X150213911Y-96301347D01*
X150042109Y-96077449D01*
X149842551Y-95877891D01*
X149618653Y-95706089D01*
X149618649Y-95706087D01*
X149618641Y-95706081D01*
X149374246Y-95564980D01*
X149374241Y-95564977D01*
X149113521Y-95456983D01*
X149113510Y-95456979D01*
X148840909Y-95383936D01*
X148561108Y-95347100D01*
X148278892Y-95347100D01*
X147999090Y-95383936D01*
X147726489Y-95456979D01*
X147726478Y-95456983D01*
X147465758Y-95564977D01*
X147465753Y-95564980D01*
X147221358Y-95706081D01*
X147221338Y-95706095D01*
X146997457Y-95877884D01*
X146997443Y-95877896D01*
X146797896Y-96077443D01*
X146797884Y-96077457D01*
X146626095Y-96301338D01*
X146626081Y-96301358D01*
X146484980Y-96545753D01*
X146484977Y-96545758D01*
X146376983Y-96806478D01*
X146376979Y-96806489D01*
X146303936Y-97079090D01*
X146267100Y-97358892D01*
X146267100Y-97641107D01*
X146303936Y-97920909D01*
X146376979Y-98193510D01*
X146376983Y-98193521D01*
X146484977Y-98454241D01*
X146484980Y-98454246D01*
X146626081Y-98698641D01*
X146626095Y-98698661D01*
X146637239Y-98713185D01*
X146639557Y-98721834D01*
X146635079Y-98729589D01*
X146626430Y-98731907D01*
X146619684Y-98728580D01*
X143943065Y-96051961D01*
X143939638Y-96043688D01*
X143943065Y-96035415D01*
X143951338Y-96031988D01*
X143956646Y-96033262D01*
X144129053Y-96121108D01*
X144129058Y-96121109D01*
X144129061Y-96121111D01*
X144286783Y-96172357D01*
X144316612Y-96182049D01*
X144395891Y-96194605D01*
X144511394Y-96212900D01*
X144511395Y-96212900D01*
X144708605Y-96212900D01*
X144903388Y-96182049D01*
X145090947Y-96121108D01*
X145266663Y-96031576D01*
X145426209Y-95915658D01*
X145565658Y-95776209D01*
X145681576Y-95616663D01*
X145771108Y-95440947D01*
X145832049Y-95253388D01*
X145862900Y-95058605D01*
X145862900Y-94861395D01*
X145862900Y-94861394D01*
X177437100Y-94861394D01*
X177437100Y-95058605D01*
X177467949Y-95253380D01*
X177467953Y-95253396D01*
X177528888Y-95440938D01*
X177528890Y-95440942D01*
X177528892Y-95440947D01*
X177537063Y-95456983D01*
X177618427Y-95616669D01*
X177734334Y-95776199D01*
X177734338Y-95776203D01*
X177734342Y-95776209D01*
X177873791Y-95915658D01*
X177873796Y-95915662D01*
X177873800Y-95915665D01*
X178033330Y-96031572D01*
X178033335Y-96031574D01*
X178033337Y-96031576D01*
X178209053Y-96121108D01*
X178209058Y-96121109D01*
X178209061Y-96121111D01*
X178366783Y-96172357D01*
X178396612Y-96182049D01*
X178475891Y-96194605D01*
X178591394Y-96212900D01*
X178591395Y-96212900D01*
X178788605Y-96212900D01*
X178983388Y-96182049D01*
X179170947Y-96121108D01*
X179346663Y-96031576D01*
X179506209Y-95915658D01*
X179645658Y-95776209D01*
X179761576Y-95616663D01*
X179851108Y-95440947D01*
X179912049Y-95253388D01*
X179942900Y-95058605D01*
X179942900Y-94861395D01*
X179912049Y-94666612D01*
X179851108Y-94479053D01*
X179761576Y-94303337D01*
X179761574Y-94303335D01*
X179761572Y-94303330D01*
X179645665Y-94143800D01*
X179645662Y-94143796D01*
X179645658Y-94143791D01*
X179506209Y-94004342D01*
X179506203Y-94004338D01*
X179506199Y-94004334D01*
X179346669Y-93888427D01*
X179330060Y-93879964D01*
X179170947Y-93798892D01*
X179170944Y-93798891D01*
X179170942Y-93798890D01*
X179170938Y-93798888D01*
X178983396Y-93737953D01*
X178983380Y-93737949D01*
X178788606Y-93707100D01*
X178788605Y-93707100D01*
X178591395Y-93707100D01*
X178591394Y-93707100D01*
X178396619Y-93737949D01*
X178396603Y-93737953D01*
X178209061Y-93798888D01*
X178209057Y-93798890D01*
X178033330Y-93888427D01*
X177873800Y-94004334D01*
X177873784Y-94004348D01*
X177734348Y-94143784D01*
X177734334Y-94143800D01*
X177618427Y-94303330D01*
X177528890Y-94479057D01*
X177528888Y-94479061D01*
X177467953Y-94666603D01*
X177467949Y-94666619D01*
X177437100Y-94861394D01*
X145862900Y-94861394D01*
X145832049Y-94666612D01*
X145771108Y-94479053D01*
X145681576Y-94303337D01*
X145681574Y-94303335D01*
X145681572Y-94303330D01*
X145565665Y-94143800D01*
X145565662Y-94143796D01*
X145565658Y-94143791D01*
X145426209Y-94004342D01*
X145426203Y-94004338D01*
X145426199Y-94004334D01*
X145266669Y-93888427D01*
X145250060Y-93879964D01*
X145090947Y-93798892D01*
X145090944Y-93798891D01*
X145090942Y-93798890D01*
X145090938Y-93798888D01*
X144903396Y-93737953D01*
X144903380Y-93737949D01*
X144708606Y-93707100D01*
X144708605Y-93707100D01*
X144511395Y-93707100D01*
X144511394Y-93707100D01*
X144316619Y-93737949D01*
X144316603Y-93737953D01*
X144129061Y-93798888D01*
X144129057Y-93798890D01*
X143953330Y-93888427D01*
X143793800Y-94004334D01*
X143793784Y-94004348D01*
X143654348Y-94143784D01*
X143654334Y-94143800D01*
X143538427Y-94303330D01*
X143448890Y-94479057D01*
X143448888Y-94479061D01*
X143387953Y-94666603D01*
X143387949Y-94666619D01*
X143357100Y-94861394D01*
X143357100Y-95058605D01*
X143387949Y-95253380D01*
X143387953Y-95253396D01*
X143448888Y-95440938D01*
X143448890Y-95440942D01*
X143448892Y-95440947D01*
X143536736Y-95613350D01*
X143537438Y-95622277D01*
X143531623Y-95629086D01*
X143522695Y-95629788D01*
X143518038Y-95626934D01*
X132531210Y-84640106D01*
X132527783Y-84631833D01*
X132527783Y-77775640D01*
X132527782Y-77775636D01*
X132492893Y-77691408D01*
X132492892Y-77691406D01*
X123921886Y-69120400D01*
X124998815Y-69120400D01*
X124998815Y-69240999D01*
X125030025Y-69357481D01*
X125030027Y-69357485D01*
X125090322Y-69461918D01*
X125090324Y-69461921D01*
X125090325Y-69461922D01*
X125175598Y-69547195D01*
X125175599Y-69547196D01*
X125175601Y-69547197D01*
X125280034Y-69607492D01*
X125280038Y-69607494D01*
X125371903Y-69632108D01*
X125396520Y-69638704D01*
X125396522Y-69638705D01*
X125396523Y-69638705D01*
X125517118Y-69638705D01*
X125517118Y-69638704D01*
X125575360Y-69623099D01*
X125633601Y-69607494D01*
X125633605Y-69607492D01*
X125681335Y-69579935D01*
X125738042Y-69547195D01*
X125823315Y-69461922D01*
X125841166Y-69431003D01*
X125849987Y-69415726D01*
X125857091Y-69410275D01*
X125860119Y-69409876D01*
X127620926Y-69409876D01*
X127629199Y-69413303D01*
X149919570Y-91703674D01*
X149922997Y-91711947D01*
X149920763Y-91718824D01*
X149888425Y-91763335D01*
X149798890Y-91939057D01*
X149798888Y-91939061D01*
X149737953Y-92126603D01*
X149737949Y-92126619D01*
X149707100Y-92321394D01*
X149707100Y-92518605D01*
X149737949Y-92713380D01*
X149737953Y-92713396D01*
X149798888Y-92900938D01*
X149798890Y-92900942D01*
X149798892Y-92900947D01*
X149879964Y-93060060D01*
X149888427Y-93076669D01*
X150004334Y-93236199D01*
X150004338Y-93236203D01*
X150004342Y-93236209D01*
X150143791Y-93375658D01*
X150143796Y-93375662D01*
X150143800Y-93375665D01*
X150303330Y-93491572D01*
X150303335Y-93491574D01*
X150303337Y-93491576D01*
X150479053Y-93581108D01*
X150479058Y-93581109D01*
X150479061Y-93581111D01*
X150636783Y-93632357D01*
X150666612Y-93642049D01*
X150745891Y-93654605D01*
X150861394Y-93672900D01*
X150861395Y-93672900D01*
X151058605Y-93672900D01*
X151253388Y-93642049D01*
X151440947Y-93581108D01*
X151616663Y-93491576D01*
X151776209Y-93375658D01*
X151915658Y-93236209D01*
X152031576Y-93076663D01*
X152121108Y-92900947D01*
X152182049Y-92713388D01*
X152212900Y-92518605D01*
X152212900Y-92321395D01*
X152182049Y-92126612D01*
X152121108Y-91939053D01*
X152031576Y-91763337D01*
X152031574Y-91763335D01*
X152031572Y-91763330D01*
X151915665Y-91603800D01*
X151915662Y-91603796D01*
X151915658Y-91603791D01*
X151776209Y-91464342D01*
X151776203Y-91464338D01*
X151776199Y-91464334D01*
X151616669Y-91348427D01*
X151600060Y-91339964D01*
X151440947Y-91258892D01*
X151440944Y-91258891D01*
X151440942Y-91258890D01*
X151440938Y-91258888D01*
X151253396Y-91197953D01*
X151253380Y-91197949D01*
X151058606Y-91167100D01*
X151058605Y-91167100D01*
X150861395Y-91167100D01*
X150861394Y-91167100D01*
X150666619Y-91197949D01*
X150666603Y-91197953D01*
X150479061Y-91258888D01*
X150479057Y-91258890D01*
X150303335Y-91348425D01*
X150258824Y-91380763D01*
X150250116Y-91382853D01*
X150243674Y-91379570D01*
X148782809Y-89918705D01*
X163674600Y-89918705D01*
X163674600Y-90081294D01*
X163706319Y-90240760D01*
X163768539Y-90390972D01*
X163768543Y-90390980D01*
X163858868Y-90526160D01*
X163862472Y-90529763D01*
X164167734Y-90224500D01*
X164179920Y-90245606D01*
X164254394Y-90320080D01*
X164275497Y-90332264D01*
X163970235Y-90637526D01*
X163973839Y-90641131D01*
X164109019Y-90731456D01*
X164109027Y-90731460D01*
X164259239Y-90793680D01*
X164418706Y-90825400D01*
X164581294Y-90825400D01*
X164740760Y-90793680D01*
X164890972Y-90731460D01*
X164890980Y-90731456D01*
X165026162Y-90641130D01*
X165026164Y-90641128D01*
X165029764Y-90637527D01*
X165029764Y-90637526D01*
X164724501Y-90332264D01*
X164745606Y-90320080D01*
X164820080Y-90245606D01*
X164832264Y-90224501D01*
X165137526Y-90529764D01*
X165137527Y-90529764D01*
X165141128Y-90526164D01*
X165141130Y-90526162D01*
X165231456Y-90390980D01*
X165231460Y-90390972D01*
X165293680Y-90240760D01*
X165325400Y-90081294D01*
X165325400Y-89918704D01*
X165323242Y-89907855D01*
X165322902Y-89906148D01*
X166047100Y-89906148D01*
X166047100Y-90093851D01*
X166083719Y-90277951D01*
X166155550Y-90451366D01*
X166155554Y-90451374D01*
X166259833Y-90607438D01*
X166259836Y-90607442D01*
X166392557Y-90740163D01*
X166392561Y-90740166D01*
X166548625Y-90844445D01*
X166548629Y-90844447D01*
X166548632Y-90844449D01*
X166722049Y-90916281D01*
X166906148Y-90952900D01*
X166906149Y-90952900D01*
X167093851Y-90952900D01*
X167093852Y-90952900D01*
X167277951Y-90916281D01*
X167451368Y-90844449D01*
X167607439Y-90740166D01*
X167740166Y-90607439D01*
X167844449Y-90451368D01*
X167916281Y-90277951D01*
X167952900Y-90093852D01*
X167952900Y-89906148D01*
X167916281Y-89722049D01*
X167844449Y-89548632D01*
X167844447Y-89548629D01*
X167844445Y-89548625D01*
X167740166Y-89392561D01*
X167740163Y-89392557D01*
X167607442Y-89259836D01*
X167607438Y-89259833D01*
X167451374Y-89155554D01*
X167451366Y-89155550D01*
X167277951Y-89083719D01*
X167211066Y-89070415D01*
X167093852Y-89047100D01*
X166906148Y-89047100D01*
X166814098Y-89065409D01*
X166722048Y-89083719D01*
X166548633Y-89155550D01*
X166548625Y-89155554D01*
X166392561Y-89259833D01*
X166392557Y-89259836D01*
X166259836Y-89392557D01*
X166259833Y-89392561D01*
X166155554Y-89548625D01*
X166155550Y-89548633D01*
X166083719Y-89722048D01*
X166047100Y-89906148D01*
X165322902Y-89906148D01*
X165293680Y-89759239D01*
X165231460Y-89609027D01*
X165231456Y-89609019D01*
X165141131Y-89473839D01*
X165137526Y-89470235D01*
X164832264Y-89775497D01*
X164820080Y-89754394D01*
X164745606Y-89679920D01*
X164724500Y-89667734D01*
X165029764Y-89362472D01*
X165026160Y-89358868D01*
X164890980Y-89268543D01*
X164890972Y-89268539D01*
X164740760Y-89206319D01*
X164581294Y-89174600D01*
X164418706Y-89174600D01*
X164259239Y-89206319D01*
X164109027Y-89268539D01*
X164109019Y-89268543D01*
X163973841Y-89358867D01*
X163973836Y-89358871D01*
X163970235Y-89362471D01*
X164275498Y-89667735D01*
X164254394Y-89679920D01*
X164179920Y-89754394D01*
X164167735Y-89775498D01*
X163862472Y-89470235D01*
X163862471Y-89470235D01*
X163858871Y-89473836D01*
X163858867Y-89473841D01*
X163768543Y-89609019D01*
X163768539Y-89609027D01*
X163706319Y-89759239D01*
X163674600Y-89918705D01*
X148782809Y-89918705D01*
X127850519Y-68986415D01*
X127850518Y-68986414D01*
X127850516Y-68986413D01*
X127766288Y-68951524D01*
X127766286Y-68951524D01*
X125860119Y-68951524D01*
X125851846Y-68948097D01*
X125849987Y-68945674D01*
X125823317Y-68899481D01*
X125823313Y-68899476D01*
X125738043Y-68814206D01*
X125738038Y-68814202D01*
X125633605Y-68753907D01*
X125633601Y-68753905D01*
X125517119Y-68722695D01*
X125517117Y-68722695D01*
X125396523Y-68722695D01*
X125396520Y-68722695D01*
X125280038Y-68753905D01*
X125280034Y-68753907D01*
X125175601Y-68814202D01*
X125175596Y-68814206D01*
X125090326Y-68899476D01*
X125090322Y-68899481D01*
X125030027Y-69003914D01*
X125030025Y-69003918D01*
X124998815Y-69120400D01*
X123921886Y-69120400D01*
X121720660Y-66919174D01*
X121720659Y-66919173D01*
X121720657Y-66919172D01*
X121636429Y-66884283D01*
X121636427Y-66884283D01*
X121021506Y-66884283D01*
X121013233Y-66880856D01*
X120941799Y-66809422D01*
X120938372Y-66801149D01*
X120941799Y-66792876D01*
X120950072Y-66789449D01*
X120952348Y-66789673D01*
X121028896Y-66804900D01*
X121028897Y-66804900D01*
X121209115Y-66804900D01*
X121209116Y-66804900D01*
X121385873Y-66769741D01*
X121552374Y-66700774D01*
X121702221Y-66600649D01*
X121829655Y-66473215D01*
X121929780Y-66323368D01*
X121998747Y-66156867D01*
X122004371Y-66128593D01*
X122009346Y-66121148D01*
X122015846Y-66119176D01*
X122370887Y-66119176D01*
X122370889Y-66119176D01*
X122455121Y-66084286D01*
X122656058Y-65883349D01*
X125056954Y-65883349D01*
X125056954Y-66003948D01*
X125088164Y-66120430D01*
X125088166Y-66120434D01*
X125148461Y-66224867D01*
X125148463Y-66224870D01*
X125148464Y-66224871D01*
X125233737Y-66310144D01*
X125233738Y-66310145D01*
X125233740Y-66310146D01*
X125338173Y-66370441D01*
X125338177Y-66370443D01*
X125430042Y-66395057D01*
X125454659Y-66401653D01*
X125454661Y-66401654D01*
X125454662Y-66401654D01*
X125575256Y-66401654D01*
X125626780Y-66387847D01*
X125635658Y-66389015D01*
X125638081Y-66390875D01*
X134683073Y-75435866D01*
X134683076Y-75435870D01*
X134683743Y-75436537D01*
X134748211Y-75501005D01*
X134801326Y-75523006D01*
X134832440Y-75535894D01*
X134832441Y-75535894D01*
X134832443Y-75535895D01*
X134832444Y-75535895D01*
X134923615Y-75535895D01*
X143909657Y-75535895D01*
X143917930Y-75539322D01*
X143919789Y-75541745D01*
X143946458Y-75587937D01*
X143946460Y-75587940D01*
X143946461Y-75587941D01*
X144031734Y-75673214D01*
X144031735Y-75673215D01*
X144031737Y-75673216D01*
X144136170Y-75733511D01*
X144136174Y-75733513D01*
X144228039Y-75758127D01*
X144252656Y-75764723D01*
X144252658Y-75764724D01*
X144252659Y-75764724D01*
X144373254Y-75764724D01*
X144373254Y-75764723D01*
X144431496Y-75749118D01*
X144489737Y-75733513D01*
X144489741Y-75733511D01*
X144524552Y-75713412D01*
X144594178Y-75673214D01*
X144679451Y-75587941D01*
X144739749Y-75483502D01*
X144770961Y-75367016D01*
X144770961Y-75246422D01*
X144752524Y-75177612D01*
X144739750Y-75129937D01*
X144739748Y-75129933D01*
X144679453Y-75025500D01*
X144679449Y-75025495D01*
X144594179Y-74940225D01*
X144594174Y-74940221D01*
X144489741Y-74879926D01*
X144489737Y-74879924D01*
X144373255Y-74848714D01*
X144373253Y-74848714D01*
X144252659Y-74848714D01*
X144252656Y-74848714D01*
X144136174Y-74879924D01*
X144136170Y-74879926D01*
X144031737Y-74940221D01*
X144031732Y-74940225D01*
X143946462Y-75025495D01*
X143946458Y-75025500D01*
X143919789Y-75071693D01*
X143912685Y-75077144D01*
X143909657Y-75077543D01*
X134977802Y-75077543D01*
X134969529Y-75074116D01*
X126804335Y-66908921D01*
X126796637Y-66901223D01*
X142087100Y-66901223D01*
X142087100Y-67098777D01*
X142114395Y-67235999D01*
X142125641Y-67292535D01*
X142201240Y-67475049D01*
X142201244Y-67475057D01*
X142310995Y-67639311D01*
X142310998Y-67639315D01*
X142450684Y-67779001D01*
X142450688Y-67779004D01*
X142614942Y-67888755D01*
X142614946Y-67888757D01*
X142614949Y-67888759D01*
X142797465Y-67964359D01*
X142991223Y-68002900D01*
X142991224Y-68002900D01*
X143188776Y-68002900D01*
X143188777Y-68002900D01*
X143382535Y-67964359D01*
X143565051Y-67888759D01*
X143729312Y-67779004D01*
X143869004Y-67639312D01*
X143978759Y-67475051D01*
X144054359Y-67292535D01*
X144092900Y-67098777D01*
X144092900Y-66901223D01*
X144054359Y-66707465D01*
X143978759Y-66524949D01*
X143978757Y-66524946D01*
X143978755Y-66524942D01*
X143869004Y-66360688D01*
X143869001Y-66360684D01*
X143729315Y-66220998D01*
X143729311Y-66220995D01*
X143565057Y-66111244D01*
X143565049Y-66111240D01*
X143382535Y-66035641D01*
X143188777Y-65997100D01*
X142991223Y-65997100D01*
X142911047Y-66013048D01*
X142797464Y-66035641D01*
X142614950Y-66111240D01*
X142614942Y-66111244D01*
X142450688Y-66220995D01*
X142450684Y-66220998D01*
X142310998Y-66360684D01*
X142310995Y-66360688D01*
X142201244Y-66524942D01*
X142201240Y-66524950D01*
X142125641Y-66707464D01*
X142095520Y-66858892D01*
X142087100Y-66901223D01*
X126796637Y-66901223D01*
X125962185Y-66066771D01*
X125958758Y-66058498D01*
X125959156Y-66055474D01*
X125970526Y-66013046D01*
X125972964Y-66003947D01*
X125972964Y-65883351D01*
X125972963Y-65883349D01*
X125941753Y-65766867D01*
X125941751Y-65766863D01*
X125881456Y-65662430D01*
X125881452Y-65662425D01*
X125796182Y-65577155D01*
X125796177Y-65577151D01*
X125691744Y-65516856D01*
X125691740Y-65516854D01*
X125575258Y-65485644D01*
X125575256Y-65485644D01*
X125454662Y-65485644D01*
X125454659Y-65485644D01*
X125338177Y-65516854D01*
X125338173Y-65516856D01*
X125233740Y-65577151D01*
X125233735Y-65577155D01*
X125148465Y-65662425D01*
X125148461Y-65662430D01*
X125088166Y-65766863D01*
X125088164Y-65766867D01*
X125056954Y-65883349D01*
X122656058Y-65883349D01*
X123866449Y-64672959D01*
X123874722Y-64669532D01*
X141242312Y-64669532D01*
X141242314Y-64669532D01*
X141326546Y-64634642D01*
X142610104Y-63351081D01*
X142618377Y-63347655D01*
X143734616Y-63347655D01*
X143742889Y-63351082D01*
X143746316Y-63359355D01*
X143742889Y-63367628D01*
X143739928Y-63369780D01*
X143703330Y-63388427D01*
X143543800Y-63504334D01*
X143543784Y-63504348D01*
X143404348Y-63643784D01*
X143404334Y-63643800D01*
X143288427Y-63803330D01*
X143198890Y-63979057D01*
X143198888Y-63979061D01*
X143137953Y-64166603D01*
X143137949Y-64166619D01*
X143107100Y-64361394D01*
X143107100Y-64558605D01*
X143137949Y-64753380D01*
X143137953Y-64753396D01*
X143198888Y-64940938D01*
X143198890Y-64940942D01*
X143198892Y-64940947D01*
X143262089Y-65064977D01*
X143288427Y-65116669D01*
X143404334Y-65276199D01*
X143404338Y-65276203D01*
X143404342Y-65276209D01*
X143543791Y-65415658D01*
X143543796Y-65415662D01*
X143543800Y-65415665D01*
X143703330Y-65531572D01*
X143703335Y-65531574D01*
X143703337Y-65531576D01*
X143879053Y-65621108D01*
X143879058Y-65621109D01*
X143879061Y-65621111D01*
X144006215Y-65662425D01*
X144066612Y-65682049D01*
X144120955Y-65690656D01*
X144128589Y-65695334D01*
X144130824Y-65702211D01*
X144130824Y-66051891D01*
X144165713Y-66136119D01*
X144165715Y-66136122D01*
X144813843Y-66784250D01*
X144817270Y-66792523D01*
X144817270Y-76989477D01*
X144813843Y-76997750D01*
X144185713Y-77625880D01*
X144150824Y-77710108D01*
X144150824Y-78064415D01*
X144147397Y-78072688D01*
X144141407Y-78075890D01*
X144102048Y-78083719D01*
X143928633Y-78155550D01*
X143928625Y-78155554D01*
X143772561Y-78259833D01*
X143772557Y-78259836D01*
X143639836Y-78392557D01*
X143639833Y-78392561D01*
X143535554Y-78548625D01*
X143535550Y-78548633D01*
X143463719Y-78722048D01*
X143427100Y-78906148D01*
X143427100Y-79093851D01*
X143463719Y-79277951D01*
X143535550Y-79451366D01*
X143535554Y-79451374D01*
X143639833Y-79607438D01*
X143639836Y-79607442D01*
X143772557Y-79740163D01*
X143772561Y-79740166D01*
X143928625Y-79844445D01*
X143928629Y-79844447D01*
X143928632Y-79844449D01*
X144102049Y-79916281D01*
X144286148Y-79952900D01*
X144286149Y-79952900D01*
X144473851Y-79952900D01*
X144473852Y-79952900D01*
X144657951Y-79916281D01*
X144831368Y-79844449D01*
X144987439Y-79740166D01*
X145120166Y-79607439D01*
X145224449Y-79451368D01*
X145296281Y-79277951D01*
X145332900Y-79093852D01*
X145332900Y-78906148D01*
X145296281Y-78722049D01*
X145224449Y-78548632D01*
X145224447Y-78548629D01*
X145224445Y-78548625D01*
X145141395Y-78424332D01*
X145137358Y-78418291D01*
X151047100Y-78418291D01*
X151047100Y-79581708D01*
X151062042Y-79676053D01*
X151062042Y-79676054D01*
X151062043Y-79676055D01*
X151119984Y-79789771D01*
X151210229Y-79880016D01*
X151323945Y-79937957D01*
X151371118Y-79945428D01*
X151418291Y-79952900D01*
X151418292Y-79952900D01*
X152581708Y-79952900D01*
X152676055Y-79937957D01*
X152789771Y-79880016D01*
X152880016Y-79789771D01*
X152937957Y-79676055D01*
X152952900Y-79581708D01*
X152952900Y-79240876D01*
X152956327Y-79232603D01*
X152964600Y-79229176D01*
X153141529Y-79229176D01*
X153149802Y-79232603D01*
X157718905Y-83801706D01*
X157765024Y-83820809D01*
X157803134Y-83836595D01*
X157803135Y-83836595D01*
X157803137Y-83836596D01*
X157894309Y-83836596D01*
X182432520Y-83836596D01*
X182440793Y-83840023D01*
X182442652Y-83842446D01*
X182469321Y-83888638D01*
X182469323Y-83888641D01*
X182469324Y-83888642D01*
X182554597Y-83973915D01*
X182554598Y-83973916D01*
X182554600Y-83973917D01*
X182659033Y-84034212D01*
X182659037Y-84034214D01*
X182750902Y-84058828D01*
X182775519Y-84065424D01*
X182775521Y-84065425D01*
X182775522Y-84065425D01*
X182896117Y-84065425D01*
X182896117Y-84065424D01*
X182954359Y-84049819D01*
X183012600Y-84034214D01*
X183012604Y-84034212D01*
X183052382Y-84011246D01*
X183117041Y-83973915D01*
X183202314Y-83888642D01*
X183251142Y-83804070D01*
X183262611Y-83784205D01*
X183262613Y-83784201D01*
X183293823Y-83667719D01*
X183293824Y-83667718D01*
X183293824Y-83547122D01*
X183293823Y-83547120D01*
X183262613Y-83430638D01*
X183262611Y-83430634D01*
X183202316Y-83326201D01*
X183202312Y-83326196D01*
X183117042Y-83240926D01*
X183117037Y-83240922D01*
X183012604Y-83180627D01*
X183012600Y-83180625D01*
X182896118Y-83149415D01*
X182896116Y-83149415D01*
X182775522Y-83149415D01*
X182775519Y-83149415D01*
X182659037Y-83180625D01*
X182659033Y-83180627D01*
X182554600Y-83240922D01*
X182554595Y-83240926D01*
X182469325Y-83326196D01*
X182469321Y-83326201D01*
X182442652Y-83372394D01*
X182435548Y-83377845D01*
X182432520Y-83378244D01*
X157948497Y-83378244D01*
X157940224Y-83374817D01*
X153371122Y-78805715D01*
X153371121Y-78805714D01*
X153371119Y-78805713D01*
X153286891Y-78770824D01*
X153286889Y-78770824D01*
X152964600Y-78770824D01*
X152956327Y-78767397D01*
X152952900Y-78759124D01*
X152952900Y-78418291D01*
X152937957Y-78323946D01*
X152937957Y-78323945D01*
X152880016Y-78210229D01*
X152789771Y-78119984D01*
X152676055Y-78062043D01*
X152676054Y-78062042D01*
X152676053Y-78062042D01*
X152581709Y-78047100D01*
X152581708Y-78047100D01*
X151418292Y-78047100D01*
X151418291Y-78047100D01*
X151323946Y-78062042D01*
X151210228Y-78119984D01*
X151119984Y-78210228D01*
X151062042Y-78323946D01*
X151047100Y-78418291D01*
X145137358Y-78418291D01*
X145120166Y-78392561D01*
X145120163Y-78392557D01*
X144987442Y-78259836D01*
X144987438Y-78259833D01*
X144831374Y-78155554D01*
X144831366Y-78155550D01*
X144657951Y-78083719D01*
X144618593Y-78075890D01*
X144611148Y-78070915D01*
X144609176Y-78064415D01*
X144609176Y-77855471D01*
X144612603Y-77847198D01*
X145240731Y-77219070D01*
X145240732Y-77219069D01*
X145275622Y-77134837D01*
X145275622Y-77043665D01*
X145275622Y-66858892D01*
X146017100Y-66858892D01*
X146017100Y-67141108D01*
X146022684Y-67183528D01*
X146053936Y-67420909D01*
X146126979Y-67693510D01*
X146126983Y-67693521D01*
X146234977Y-67954241D01*
X146234980Y-67954246D01*
X146376081Y-68198641D01*
X146376087Y-68198649D01*
X146376089Y-68198653D01*
X146547891Y-68422551D01*
X146747449Y-68622109D01*
X146971347Y-68793911D01*
X146971352Y-68793914D01*
X146971358Y-68793918D01*
X147091660Y-68863374D01*
X147215754Y-68935020D01*
X147215756Y-68935020D01*
X147215758Y-68935022D01*
X147476478Y-69043016D01*
X147476488Y-69043020D01*
X147749089Y-69116063D01*
X148028892Y-69152900D01*
X148311108Y-69152900D01*
X148590911Y-69116063D01*
X148863512Y-69043020D01*
X149124246Y-68935020D01*
X149368653Y-68793911D01*
X149592551Y-68622109D01*
X149792109Y-68422551D01*
X149963911Y-68198653D01*
X150105020Y-67954246D01*
X150213020Y-67693512D01*
X150286063Y-67420911D01*
X150322900Y-67141108D01*
X150322900Y-66901223D01*
X152247100Y-66901223D01*
X152247100Y-67098777D01*
X152274395Y-67235999D01*
X152285641Y-67292535D01*
X152361240Y-67475049D01*
X152361244Y-67475057D01*
X152470995Y-67639311D01*
X152470998Y-67639315D01*
X152610684Y-67779001D01*
X152610688Y-67779004D01*
X152774942Y-67888755D01*
X152774946Y-67888757D01*
X152774949Y-67888759D01*
X152957465Y-67964359D01*
X153151223Y-68002900D01*
X153151224Y-68002900D01*
X153348776Y-68002900D01*
X153348777Y-68002900D01*
X153542535Y-67964359D01*
X153725051Y-67888759D01*
X153889312Y-67779004D01*
X154029004Y-67639312D01*
X154138759Y-67475051D01*
X154214359Y-67292535D01*
X154252900Y-67098777D01*
X154252900Y-66901223D01*
X154214359Y-66707465D01*
X154138759Y-66524949D01*
X154138757Y-66524946D01*
X154138755Y-66524942D01*
X154029004Y-66360688D01*
X154029001Y-66360684D01*
X153889315Y-66220998D01*
X153889311Y-66220995D01*
X153725057Y-66111244D01*
X153725049Y-66111240D01*
X153542535Y-66035641D01*
X153348777Y-65997100D01*
X153151223Y-65997100D01*
X153071047Y-66013048D01*
X152957464Y-66035641D01*
X152774950Y-66111240D01*
X152774942Y-66111244D01*
X152610688Y-66220995D01*
X152610684Y-66220998D01*
X152470998Y-66360684D01*
X152470995Y-66360688D01*
X152361244Y-66524942D01*
X152361240Y-66524950D01*
X152285641Y-66707464D01*
X152255520Y-66858892D01*
X152247100Y-66901223D01*
X150322900Y-66901223D01*
X150322900Y-66858892D01*
X150286063Y-66579089D01*
X150213020Y-66306488D01*
X150202664Y-66281486D01*
X150105022Y-66045758D01*
X150105019Y-66045753D01*
X150086137Y-66013049D01*
X150018884Y-65896563D01*
X149963918Y-65801358D01*
X149963914Y-65801352D01*
X149963911Y-65801347D01*
X149792109Y-65577449D01*
X149592551Y-65377891D01*
X149582366Y-65370076D01*
X149368661Y-65206095D01*
X149368658Y-65206093D01*
X149368653Y-65206089D01*
X149368649Y-65206087D01*
X149368641Y-65206081D01*
X149124246Y-65064980D01*
X149124241Y-65064977D01*
X148863521Y-64956983D01*
X148863510Y-64956979D01*
X148590909Y-64883936D01*
X148311108Y-64847100D01*
X148028892Y-64847100D01*
X147749090Y-64883936D01*
X147476489Y-64956979D01*
X147476478Y-64956983D01*
X147215758Y-65064977D01*
X147215753Y-65064980D01*
X146971358Y-65206081D01*
X146971338Y-65206095D01*
X146747457Y-65377884D01*
X146747443Y-65377896D01*
X146547896Y-65577443D01*
X146547884Y-65577457D01*
X146376095Y-65801338D01*
X146376081Y-65801358D01*
X146234980Y-66045753D01*
X146234977Y-66045758D01*
X146126983Y-66306478D01*
X146126979Y-66306489D01*
X146053936Y-66579090D01*
X146025791Y-66792876D01*
X146017100Y-66858892D01*
X145275622Y-66858892D01*
X145275622Y-66647163D01*
X145240732Y-66562931D01*
X145176264Y-66498463D01*
X144592603Y-65914802D01*
X144589176Y-65906529D01*
X144589176Y-65702211D01*
X144592603Y-65693938D01*
X144599043Y-65690656D01*
X144653388Y-65682049D01*
X144840947Y-65621108D01*
X145016663Y-65531576D01*
X145024575Y-65525828D01*
X145176199Y-65415665D01*
X145176209Y-65415658D01*
X145315658Y-65276209D01*
X145431576Y-65116663D01*
X145521108Y-64940947D01*
X145582049Y-64753388D01*
X145612900Y-64558605D01*
X145612900Y-64361395D01*
X145607260Y-64325789D01*
X145582050Y-64166619D01*
X145582049Y-64166612D01*
X145547619Y-64060646D01*
X145521111Y-63979061D01*
X145521109Y-63979057D01*
X145521108Y-63979053D01*
X145431576Y-63803337D01*
X145431574Y-63803335D01*
X145431572Y-63803330D01*
X145315665Y-63643800D01*
X145315662Y-63643796D01*
X145315658Y-63643791D01*
X145176209Y-63504342D01*
X145176203Y-63504338D01*
X145176199Y-63504334D01*
X145016669Y-63388427D01*
X144980072Y-63369780D01*
X144974257Y-63362970D01*
X144974959Y-63354043D01*
X144981769Y-63348228D01*
X144985384Y-63347655D01*
X149362453Y-63347655D01*
X149370726Y-63351082D01*
X150344765Y-64325120D01*
X150344768Y-64325124D01*
X150345435Y-64325791D01*
X150409903Y-64390259D01*
X150463018Y-64412260D01*
X150494132Y-64425148D01*
X150494133Y-64425148D01*
X150494135Y-64425149D01*
X150494136Y-64425149D01*
X150585307Y-64425149D01*
X164325680Y-64425149D01*
X164333953Y-64428576D01*
X167210707Y-67305330D01*
X167214134Y-67313603D01*
X167213735Y-67316631D01*
X167199930Y-67368154D01*
X167199930Y-67488753D01*
X167231140Y-67605235D01*
X167231142Y-67605239D01*
X167291437Y-67709672D01*
X167291439Y-67709675D01*
X167291440Y-67709676D01*
X167376713Y-67794949D01*
X167376714Y-67794950D01*
X167376716Y-67794951D01*
X167481149Y-67855246D01*
X167481153Y-67855248D01*
X167573018Y-67879862D01*
X167597635Y-67886458D01*
X167597637Y-67886459D01*
X167597638Y-67886459D01*
X167718233Y-67886459D01*
X167718233Y-67886458D01*
X167776475Y-67870853D01*
X167834716Y-67855248D01*
X167834720Y-67855246D01*
X167869531Y-67835147D01*
X167939157Y-67794949D01*
X168024430Y-67709676D01*
X168076650Y-67619229D01*
X168084727Y-67605239D01*
X168084729Y-67605235D01*
X168115939Y-67488753D01*
X168115940Y-67488752D01*
X168115940Y-67368156D01*
X168115939Y-67368154D01*
X168084729Y-67251672D01*
X168083834Y-67250123D01*
X168082664Y-67241245D01*
X168088115Y-67234140D01*
X168096993Y-67232970D01*
X168102239Y-67235999D01*
X179079600Y-78213360D01*
X179083027Y-78221633D01*
X179079600Y-78229906D01*
X179071327Y-78233333D01*
X179064827Y-78231361D01*
X178951374Y-78155554D01*
X178951366Y-78155550D01*
X178777951Y-78083719D01*
X178729175Y-78074017D01*
X178593852Y-78047100D01*
X178406148Y-78047100D01*
X178331023Y-78062043D01*
X178222048Y-78083719D01*
X178048633Y-78155550D01*
X178048625Y-78155554D01*
X177892561Y-78259833D01*
X177892557Y-78259836D01*
X177759836Y-78392557D01*
X177759833Y-78392561D01*
X177655554Y-78548625D01*
X177655550Y-78548633D01*
X177583719Y-78722048D01*
X177547100Y-78906148D01*
X177547100Y-79093851D01*
X177583719Y-79277951D01*
X177655550Y-79451366D01*
X177655554Y-79451374D01*
X177759833Y-79607438D01*
X177759836Y-79607442D01*
X177892557Y-79740163D01*
X177892561Y-79740166D01*
X178048625Y-79844445D01*
X178048629Y-79844447D01*
X178048632Y-79844449D01*
X178222049Y-79916281D01*
X178406148Y-79952900D01*
X178406149Y-79952900D01*
X178593851Y-79952900D01*
X178593852Y-79952900D01*
X178777951Y-79916281D01*
X178951368Y-79844449D01*
X179107439Y-79740166D01*
X179240166Y-79607439D01*
X179344449Y-79451368D01*
X179416281Y-79277951D01*
X179452900Y-79093852D01*
X179452900Y-78906148D01*
X179416281Y-78722049D01*
X179344449Y-78548632D01*
X179344447Y-78548629D01*
X179344445Y-78548625D01*
X179268638Y-78435172D01*
X179266891Y-78426389D01*
X179271866Y-78418944D01*
X179280649Y-78417197D01*
X179286639Y-78420399D01*
X184807397Y-83941157D01*
X184810824Y-83949430D01*
X184810824Y-91177787D01*
X184807397Y-91186060D01*
X184800955Y-91189343D01*
X184746617Y-91197950D01*
X184746603Y-91197953D01*
X184559061Y-91258888D01*
X184559057Y-91258890D01*
X184383330Y-91348427D01*
X184223800Y-91464334D01*
X184223784Y-91464348D01*
X184084348Y-91603784D01*
X184084334Y-91603800D01*
X183968427Y-91763330D01*
X183878890Y-91939057D01*
X183878888Y-91939061D01*
X183817953Y-92126603D01*
X183817949Y-92126619D01*
X183787100Y-92321394D01*
X183787100Y-92518605D01*
X183817949Y-92713380D01*
X183817953Y-92713396D01*
X183878888Y-92900938D01*
X183878890Y-92900942D01*
X183878892Y-92900947D01*
X183959964Y-93060060D01*
X183968427Y-93076669D01*
X184084334Y-93236199D01*
X184084338Y-93236203D01*
X184084342Y-93236209D01*
X184223791Y-93375658D01*
X184223796Y-93375662D01*
X184223800Y-93375665D01*
X184383330Y-93491572D01*
X184383335Y-93491574D01*
X184383337Y-93491576D01*
X184559053Y-93581108D01*
X184559058Y-93581109D01*
X184559061Y-93581111D01*
X184716783Y-93632357D01*
X184746612Y-93642049D01*
X184825891Y-93654605D01*
X184941394Y-93672900D01*
X184941395Y-93672900D01*
X185138605Y-93672900D01*
X185333388Y-93642049D01*
X185520947Y-93581108D01*
X185696663Y-93491576D01*
X185856209Y-93375658D01*
X185995658Y-93236209D01*
X186111576Y-93076663D01*
X186201108Y-92900947D01*
X186262049Y-92713388D01*
X186292900Y-92518605D01*
X186292900Y-92321395D01*
X186262049Y-92126612D01*
X186201108Y-91939053D01*
X186111576Y-91763337D01*
X186111574Y-91763335D01*
X186111572Y-91763330D01*
X185995665Y-91603800D01*
X185995662Y-91603796D01*
X185995658Y-91603791D01*
X185856209Y-91464342D01*
X185856203Y-91464338D01*
X185856199Y-91464334D01*
X185696669Y-91348427D01*
X185680060Y-91339964D01*
X185520947Y-91258892D01*
X185520944Y-91258891D01*
X185520942Y-91258890D01*
X185520938Y-91258888D01*
X185333396Y-91197953D01*
X185333390Y-91197951D01*
X185333388Y-91197951D01*
X185333382Y-91197950D01*
X185279045Y-91189343D01*
X185271410Y-91184664D01*
X185269176Y-91177787D01*
X185269176Y-83804071D01*
X185269175Y-83804067D01*
X185250606Y-83759239D01*
X185234286Y-83719838D01*
X185169818Y-83655370D01*
X179932739Y-78418291D01*
X185167100Y-78418291D01*
X185167100Y-79581708D01*
X185182042Y-79676053D01*
X185182042Y-79676054D01*
X185182043Y-79676055D01*
X185239984Y-79789771D01*
X185330229Y-79880016D01*
X185443945Y-79937957D01*
X185491118Y-79945428D01*
X185538291Y-79952900D01*
X185538292Y-79952900D01*
X186701708Y-79952900D01*
X186796055Y-79937957D01*
X186909771Y-79880016D01*
X187000016Y-79789771D01*
X187057957Y-79676055D01*
X187072900Y-79581708D01*
X187072900Y-78418292D01*
X187072581Y-78416281D01*
X187057957Y-78323946D01*
X187057957Y-78323945D01*
X187000016Y-78210229D01*
X186909771Y-78119984D01*
X186796055Y-78062043D01*
X186796054Y-78062042D01*
X186796053Y-78062042D01*
X186701709Y-78047100D01*
X186701708Y-78047100D01*
X185538292Y-78047100D01*
X185538291Y-78047100D01*
X185443946Y-78062042D01*
X185330228Y-78119984D01*
X185239984Y-78210228D01*
X185182042Y-78323946D01*
X185167100Y-78418291D01*
X179932739Y-78418291D01*
X168415671Y-66901223D01*
X176417100Y-66901223D01*
X176417100Y-67098777D01*
X176444395Y-67235999D01*
X176455641Y-67292535D01*
X176531240Y-67475049D01*
X176531244Y-67475057D01*
X176640995Y-67639311D01*
X176640998Y-67639315D01*
X176780684Y-67779001D01*
X176780688Y-67779004D01*
X176944942Y-67888755D01*
X176944946Y-67888757D01*
X176944949Y-67888759D01*
X177127465Y-67964359D01*
X177321223Y-68002900D01*
X177321224Y-68002900D01*
X177518776Y-68002900D01*
X177518777Y-68002900D01*
X177712535Y-67964359D01*
X177895051Y-67888759D01*
X178059312Y-67779004D01*
X178199004Y-67639312D01*
X178308759Y-67475051D01*
X178384359Y-67292535D01*
X178422900Y-67098777D01*
X178422900Y-66901223D01*
X178421326Y-66893310D01*
X178414858Y-66860791D01*
X178414480Y-66858892D01*
X180347100Y-66858892D01*
X180347100Y-67141108D01*
X180352684Y-67183528D01*
X180383936Y-67420909D01*
X180456979Y-67693510D01*
X180456983Y-67693521D01*
X180564977Y-67954241D01*
X180564980Y-67954246D01*
X180706081Y-68198641D01*
X180706087Y-68198649D01*
X180706089Y-68198653D01*
X180877891Y-68422551D01*
X181077449Y-68622109D01*
X181301347Y-68793911D01*
X181301352Y-68793914D01*
X181301358Y-68793918D01*
X181421660Y-68863374D01*
X181545754Y-68935020D01*
X181545756Y-68935020D01*
X181545758Y-68935022D01*
X181806478Y-69043016D01*
X181806488Y-69043020D01*
X182079089Y-69116063D01*
X182358892Y-69152900D01*
X182641108Y-69152900D01*
X182920911Y-69116063D01*
X183193512Y-69043020D01*
X183454246Y-68935020D01*
X183698653Y-68793911D01*
X183922551Y-68622109D01*
X184122109Y-68422551D01*
X184293911Y-68198653D01*
X184435020Y-67954246D01*
X184543020Y-67693512D01*
X184616063Y-67420911D01*
X184652900Y-67141108D01*
X184652900Y-66901223D01*
X186577100Y-66901223D01*
X186577100Y-67098777D01*
X186604395Y-67235999D01*
X186615641Y-67292535D01*
X186691240Y-67475049D01*
X186691244Y-67475057D01*
X186800995Y-67639311D01*
X186800998Y-67639315D01*
X186940684Y-67779001D01*
X186940688Y-67779004D01*
X187104942Y-67888755D01*
X187104946Y-67888757D01*
X187104949Y-67888759D01*
X187287465Y-67964359D01*
X187481223Y-68002900D01*
X187481224Y-68002900D01*
X187678776Y-68002900D01*
X187678777Y-68002900D01*
X187872535Y-67964359D01*
X188055051Y-67888759D01*
X188219312Y-67779004D01*
X188359004Y-67639312D01*
X188468759Y-67475051D01*
X188544359Y-67292535D01*
X188582900Y-67098777D01*
X188582900Y-66901223D01*
X188544359Y-66707465D01*
X188468759Y-66524949D01*
X188468757Y-66524946D01*
X188468755Y-66524942D01*
X188359004Y-66360688D01*
X188359001Y-66360684D01*
X188219315Y-66220998D01*
X188219311Y-66220995D01*
X188055057Y-66111244D01*
X188055049Y-66111240D01*
X187872535Y-66035641D01*
X187678777Y-65997100D01*
X187481223Y-65997100D01*
X187401047Y-66013048D01*
X187287464Y-66035641D01*
X187104950Y-66111240D01*
X187104942Y-66111244D01*
X186940688Y-66220995D01*
X186940684Y-66220998D01*
X186800998Y-66360684D01*
X186800995Y-66360688D01*
X186691244Y-66524942D01*
X186691240Y-66524950D01*
X186615641Y-66707464D01*
X186585520Y-66858892D01*
X186577100Y-66901223D01*
X184652900Y-66901223D01*
X184652900Y-66858892D01*
X184616063Y-66579089D01*
X184543020Y-66306488D01*
X184532664Y-66281486D01*
X184435022Y-66045758D01*
X184435019Y-66045753D01*
X184416137Y-66013049D01*
X184348884Y-65896563D01*
X184293918Y-65801358D01*
X184293914Y-65801352D01*
X184293911Y-65801347D01*
X184122109Y-65577449D01*
X183922551Y-65377891D01*
X183912366Y-65370076D01*
X183698661Y-65206095D01*
X183698658Y-65206093D01*
X183698653Y-65206089D01*
X183698649Y-65206087D01*
X183698641Y-65206081D01*
X183454246Y-65064980D01*
X183454241Y-65064977D01*
X183193521Y-64956983D01*
X183193510Y-64956979D01*
X182920909Y-64883936D01*
X182641108Y-64847100D01*
X182358892Y-64847100D01*
X182079090Y-64883936D01*
X181806489Y-64956979D01*
X181806478Y-64956983D01*
X181545758Y-65064977D01*
X181545753Y-65064980D01*
X181301358Y-65206081D01*
X181301338Y-65206095D01*
X181077457Y-65377884D01*
X181077443Y-65377896D01*
X180877896Y-65577443D01*
X180877884Y-65577457D01*
X180706095Y-65801338D01*
X180706081Y-65801358D01*
X180564980Y-66045753D01*
X180564977Y-66045758D01*
X180456983Y-66306478D01*
X180456979Y-66306489D01*
X180383936Y-66579090D01*
X180355791Y-66792876D01*
X180347100Y-66858892D01*
X178414480Y-66858892D01*
X178400314Y-66787677D01*
X178384359Y-66707465D01*
X178308759Y-66524949D01*
X178308757Y-66524946D01*
X178308755Y-66524942D01*
X178199004Y-66360688D01*
X178199001Y-66360684D01*
X178059315Y-66220998D01*
X178059311Y-66220995D01*
X177895057Y-66111244D01*
X177895049Y-66111240D01*
X177712535Y-66035641D01*
X177518777Y-65997100D01*
X177321223Y-65997100D01*
X177241047Y-66013048D01*
X177127464Y-66035641D01*
X176944950Y-66111240D01*
X176944942Y-66111244D01*
X176780688Y-66220995D01*
X176780684Y-66220998D01*
X176640998Y-66360684D01*
X176640995Y-66360688D01*
X176531244Y-66524942D01*
X176531240Y-66524950D01*
X176455641Y-66707464D01*
X176425520Y-66858892D01*
X176417100Y-66901223D01*
X168415671Y-66901223D01*
X165875842Y-64361394D01*
X177437100Y-64361394D01*
X177437100Y-64558605D01*
X177467949Y-64753380D01*
X177467953Y-64753396D01*
X177528888Y-64940938D01*
X177528890Y-64940942D01*
X177528892Y-64940947D01*
X177592089Y-65064977D01*
X177618427Y-65116669D01*
X177734334Y-65276199D01*
X177734338Y-65276203D01*
X177734342Y-65276209D01*
X177873791Y-65415658D01*
X177873796Y-65415662D01*
X177873800Y-65415665D01*
X178033330Y-65531572D01*
X178033335Y-65531574D01*
X178033337Y-65531576D01*
X178209053Y-65621108D01*
X178209058Y-65621109D01*
X178209061Y-65621111D01*
X178336215Y-65662425D01*
X178396612Y-65682049D01*
X178460822Y-65692219D01*
X178591394Y-65712900D01*
X178591395Y-65712900D01*
X178788605Y-65712900D01*
X178983388Y-65682049D01*
X179170947Y-65621108D01*
X179346663Y-65531576D01*
X179354575Y-65525828D01*
X179506199Y-65415665D01*
X179506209Y-65415658D01*
X179645658Y-65276209D01*
X179761576Y-65116663D01*
X179851108Y-64940947D01*
X179912049Y-64753388D01*
X179942900Y-64558605D01*
X179942900Y-64361395D01*
X179937260Y-64325789D01*
X179912050Y-64166619D01*
X179912049Y-64166612D01*
X179877619Y-64060646D01*
X179851111Y-63979061D01*
X179851109Y-63979057D01*
X179851108Y-63979053D01*
X179761576Y-63803337D01*
X179761574Y-63803335D01*
X179761572Y-63803330D01*
X179645665Y-63643800D01*
X179645662Y-63643796D01*
X179645658Y-63643791D01*
X179506209Y-63504342D01*
X179506203Y-63504338D01*
X179506199Y-63504334D01*
X179346669Y-63388427D01*
X179310072Y-63369780D01*
X179170947Y-63298892D01*
X179170944Y-63298891D01*
X179170942Y-63298890D01*
X179170938Y-63298888D01*
X178983396Y-63237953D01*
X178983380Y-63237949D01*
X178788606Y-63207100D01*
X178788605Y-63207100D01*
X178591395Y-63207100D01*
X178591394Y-63207100D01*
X178396619Y-63237949D01*
X178396603Y-63237953D01*
X178209061Y-63298888D01*
X178209057Y-63298890D01*
X178033330Y-63388427D01*
X177873800Y-63504334D01*
X177873784Y-63504348D01*
X177734348Y-63643784D01*
X177734334Y-63643800D01*
X177618427Y-63803330D01*
X177528890Y-63979057D01*
X177528888Y-63979061D01*
X177467953Y-64166603D01*
X177467949Y-64166619D01*
X177437100Y-64361394D01*
X165875842Y-64361394D01*
X163240162Y-61725714D01*
X163238197Y-61724900D01*
X163155932Y-61690824D01*
X163155930Y-61690824D01*
X152301889Y-61690824D01*
X151952212Y-61690824D01*
X151943939Y-61687397D01*
X151940656Y-61680954D01*
X151932050Y-61626619D01*
X151932049Y-61626612D01*
X151901736Y-61533316D01*
X151871111Y-61439061D01*
X151871109Y-61439057D01*
X151871108Y-61439053D01*
X151781576Y-61263337D01*
X151781574Y-61263335D01*
X151781572Y-61263330D01*
X151665665Y-61103800D01*
X151665662Y-61103796D01*
X151665658Y-61103791D01*
X151526209Y-60964342D01*
X151526203Y-60964338D01*
X151526199Y-60964334D01*
X151366669Y-60848427D01*
X151350060Y-60839964D01*
X151190947Y-60758892D01*
X151190944Y-60758891D01*
X151190942Y-60758890D01*
X151190938Y-60758888D01*
X151003396Y-60697953D01*
X151003380Y-60697949D01*
X150808606Y-60667100D01*
X150808605Y-60667100D01*
X150611395Y-60667100D01*
X150611394Y-60667100D01*
X150416619Y-60697949D01*
X150416603Y-60697953D01*
X150229061Y-60758888D01*
X150229057Y-60758890D01*
X150053330Y-60848427D01*
X149893800Y-60964334D01*
X149893784Y-60964348D01*
X149754348Y-61103784D01*
X149754334Y-61103800D01*
X149638427Y-61263330D01*
X149548890Y-61439057D01*
X149548888Y-61439061D01*
X149487953Y-61626603D01*
X149487949Y-61626619D01*
X149457100Y-61821394D01*
X149457100Y-62018605D01*
X149487949Y-62213380D01*
X149487953Y-62213396D01*
X149548888Y-62400938D01*
X149548890Y-62400942D01*
X149548892Y-62400947D01*
X149589977Y-62481581D01*
X149638427Y-62576669D01*
X149754334Y-62736199D01*
X149754338Y-62736203D01*
X149754342Y-62736209D01*
X149893791Y-62875658D01*
X149893796Y-62875662D01*
X149893800Y-62875665D01*
X150053330Y-62991572D01*
X150053335Y-62991574D01*
X150053337Y-62991576D01*
X150229053Y-63081108D01*
X150229058Y-63081109D01*
X150229061Y-63081111D01*
X150340574Y-63117343D01*
X150416612Y-63142049D01*
X150457689Y-63148555D01*
X150611394Y-63172900D01*
X150611395Y-63172900D01*
X150808605Y-63172900D01*
X151003388Y-63142049D01*
X151190947Y-63081108D01*
X151366663Y-62991576D01*
X151374575Y-62985828D01*
X151526199Y-62875665D01*
X151526209Y-62875658D01*
X151665658Y-62736209D01*
X151781576Y-62576663D01*
X151871108Y-62400947D01*
X151873291Y-62394230D01*
X151915683Y-62263758D01*
X151932049Y-62213388D01*
X151940656Y-62159046D01*
X151945335Y-62151410D01*
X151952212Y-62149176D01*
X152210717Y-62149176D01*
X163010570Y-62149176D01*
X163018843Y-62152603D01*
X167850389Y-66984149D01*
X167853816Y-66992422D01*
X167850389Y-67000695D01*
X167842116Y-67004122D01*
X167836266Y-67002555D01*
X167834718Y-67001661D01*
X167834717Y-67001660D01*
X167834714Y-67001659D01*
X167834716Y-67001659D01*
X167718234Y-66970449D01*
X167718232Y-66970449D01*
X167597638Y-66970449D01*
X167597635Y-66970449D01*
X167546112Y-66984254D01*
X167537234Y-66983085D01*
X167534811Y-66981226D01*
X164555273Y-64001688D01*
X164555272Y-64001687D01*
X164555270Y-64001686D01*
X164471042Y-63966797D01*
X164471040Y-63966797D01*
X150639494Y-63966797D01*
X150631221Y-63963370D01*
X149592045Y-62924193D01*
X149592043Y-62924192D01*
X149507815Y-62889303D01*
X149507813Y-62889303D01*
X143870899Y-62889303D01*
X143862626Y-62885876D01*
X143859199Y-62877603D01*
X143862626Y-62869330D01*
X145480355Y-61251601D01*
X148542298Y-58189656D01*
X148550571Y-58186230D01*
X164248921Y-58186230D01*
X164257194Y-58189657D01*
X164260621Y-58197930D01*
X164257194Y-58206203D01*
X164253398Y-58208739D01*
X164109027Y-58268539D01*
X164109019Y-58268543D01*
X163973841Y-58358867D01*
X163973836Y-58358871D01*
X163970235Y-58362471D01*
X164275498Y-58667735D01*
X164254394Y-58679920D01*
X164179920Y-58754394D01*
X164167735Y-58775498D01*
X163862472Y-58470235D01*
X163862471Y-58470235D01*
X163858871Y-58473836D01*
X163858867Y-58473841D01*
X163768543Y-58609019D01*
X163768539Y-58609027D01*
X163706319Y-58759239D01*
X163674600Y-58918705D01*
X163674600Y-59081294D01*
X163706319Y-59240760D01*
X163768539Y-59390972D01*
X163768543Y-59390980D01*
X163858868Y-59526160D01*
X163862472Y-59529763D01*
X164167734Y-59224500D01*
X164179920Y-59245606D01*
X164254394Y-59320080D01*
X164275497Y-59332264D01*
X163970235Y-59637526D01*
X163973839Y-59641131D01*
X164109019Y-59731456D01*
X164109027Y-59731460D01*
X164259239Y-59793680D01*
X164418706Y-59825400D01*
X164581294Y-59825400D01*
X164740760Y-59793680D01*
X164890972Y-59731460D01*
X164890980Y-59731456D01*
X165026162Y-59641130D01*
X165026164Y-59641128D01*
X165029764Y-59637527D01*
X165029764Y-59637526D01*
X164724501Y-59332264D01*
X164745606Y-59320080D01*
X164820080Y-59245606D01*
X164832264Y-59224501D01*
X165137526Y-59529764D01*
X165137527Y-59529764D01*
X165141128Y-59526164D01*
X165141130Y-59526162D01*
X165231456Y-59390980D01*
X165231460Y-59390972D01*
X165293680Y-59240760D01*
X165325400Y-59081294D01*
X165325400Y-58918705D01*
X165293680Y-58759239D01*
X165231460Y-58609027D01*
X165231456Y-58609019D01*
X165141131Y-58473839D01*
X165137526Y-58470235D01*
X164832264Y-58775497D01*
X164820080Y-58754394D01*
X164745606Y-58679920D01*
X164724500Y-58667734D01*
X165029764Y-58362472D01*
X165026160Y-58358868D01*
X164890980Y-58268543D01*
X164890972Y-58268539D01*
X164746602Y-58208739D01*
X164740270Y-58202407D01*
X164740270Y-58193453D01*
X164746602Y-58187121D01*
X164751079Y-58186230D01*
X166464148Y-58186230D01*
X166472421Y-58189657D01*
X166475848Y-58197930D01*
X166472421Y-58206203D01*
X166470648Y-58207658D01*
X166392561Y-58259833D01*
X166392557Y-58259836D01*
X166259836Y-58392557D01*
X166259833Y-58392561D01*
X166155554Y-58548625D01*
X166155550Y-58548633D01*
X166083719Y-58722048D01*
X166047100Y-58906148D01*
X166047100Y-59093851D01*
X166083719Y-59277951D01*
X166155550Y-59451366D01*
X166155554Y-59451374D01*
X166259833Y-59607438D01*
X166259836Y-59607442D01*
X166392557Y-59740163D01*
X166392561Y-59740166D01*
X166548625Y-59844445D01*
X166548629Y-59844447D01*
X166548632Y-59844449D01*
X166722049Y-59916281D01*
X166906148Y-59952900D01*
X166906149Y-59952900D01*
X167093851Y-59952900D01*
X167093852Y-59952900D01*
X167277951Y-59916281D01*
X167451368Y-59844449D01*
X167607439Y-59740166D01*
X167740166Y-59607439D01*
X167844449Y-59451368D01*
X167916281Y-59277951D01*
X167952900Y-59093852D01*
X167952900Y-58906148D01*
X167916281Y-58722049D01*
X167844449Y-58548632D01*
X167844447Y-58548629D01*
X167844445Y-58548625D01*
X167740166Y-58392561D01*
X167740163Y-58392557D01*
X167607442Y-58259836D01*
X167607438Y-58259833D01*
X167529352Y-58207658D01*
X167524377Y-58200213D01*
X167526124Y-58191430D01*
X167533569Y-58186455D01*
X167535852Y-58186230D01*
X179430977Y-58186230D01*
X179439250Y-58189657D01*
X183299411Y-62049818D01*
X183363879Y-62114286D01*
X183416994Y-62136287D01*
X183448108Y-62149175D01*
X183448109Y-62149175D01*
X183448111Y-62149176D01*
X183797788Y-62149176D01*
X183806061Y-62152603D01*
X183809344Y-62159046D01*
X183817949Y-62213380D01*
X183817953Y-62213396D01*
X183878888Y-62400938D01*
X183878890Y-62400942D01*
X183878892Y-62400947D01*
X183919977Y-62481581D01*
X183968427Y-62576669D01*
X184084334Y-62736199D01*
X184084338Y-62736203D01*
X184084342Y-62736209D01*
X184223791Y-62875658D01*
X184223796Y-62875662D01*
X184223800Y-62875665D01*
X184383330Y-62991572D01*
X184383335Y-62991574D01*
X184383337Y-62991576D01*
X184559053Y-63081108D01*
X184559058Y-63081109D01*
X184559061Y-63081111D01*
X184670574Y-63117343D01*
X184746612Y-63142049D01*
X184787689Y-63148555D01*
X184941394Y-63172900D01*
X184941395Y-63172900D01*
X185138605Y-63172900D01*
X185333388Y-63142049D01*
X185520947Y-63081108D01*
X185696663Y-62991576D01*
X185704575Y-62985828D01*
X185856199Y-62875665D01*
X185856209Y-62875658D01*
X185995658Y-62736209D01*
X186111576Y-62576663D01*
X186201108Y-62400947D01*
X186203291Y-62394230D01*
X186245683Y-62263758D01*
X186262049Y-62213388D01*
X186292900Y-62018605D01*
X186292900Y-61821395D01*
X186277616Y-61724900D01*
X186271865Y-61688590D01*
X186262049Y-61626612D01*
X186231736Y-61533316D01*
X186201111Y-61439061D01*
X186201109Y-61439057D01*
X186201108Y-61439053D01*
X186111576Y-61263337D01*
X186111574Y-61263335D01*
X186111572Y-61263330D01*
X185995665Y-61103800D01*
X185995662Y-61103796D01*
X185995658Y-61103791D01*
X185856209Y-60964342D01*
X185856203Y-60964338D01*
X185856199Y-60964334D01*
X185696669Y-60848427D01*
X185680060Y-60839964D01*
X185520947Y-60758892D01*
X185520944Y-60758891D01*
X185520942Y-60758890D01*
X185520938Y-60758888D01*
X185333396Y-60697953D01*
X185333380Y-60697949D01*
X185138606Y-60667100D01*
X185138605Y-60667100D01*
X184941395Y-60667100D01*
X184941394Y-60667100D01*
X184746619Y-60697949D01*
X184746603Y-60697953D01*
X184559061Y-60758888D01*
X184559057Y-60758890D01*
X184383330Y-60848427D01*
X184223800Y-60964334D01*
X184223784Y-60964348D01*
X184084348Y-61103784D01*
X184084334Y-61103800D01*
X183968427Y-61263330D01*
X183878890Y-61439057D01*
X183878888Y-61439061D01*
X183817953Y-61626603D01*
X183817949Y-61626619D01*
X183809344Y-61680954D01*
X183804665Y-61688590D01*
X183797788Y-61690824D01*
X183593471Y-61690824D01*
X183585198Y-61687397D01*
X179660570Y-57762769D01*
X179660569Y-57762768D01*
X179660567Y-57762767D01*
X179576339Y-57727878D01*
X179576337Y-57727878D01*
X148405212Y-57727878D01*
X148405209Y-57727878D01*
X148320981Y-57762767D01*
X143625800Y-62457948D01*
X143617527Y-62461375D01*
X128427991Y-62461375D01*
X128419718Y-62457948D01*
X128417859Y-62455525D01*
X128391189Y-62409332D01*
X128391185Y-62409327D01*
X128305915Y-62324057D01*
X128305910Y-62324053D01*
X128201477Y-62263758D01*
X128201473Y-62263756D01*
X128084991Y-62232546D01*
X128084989Y-62232546D01*
X127964395Y-62232546D01*
X127964392Y-62232546D01*
X127847910Y-62263756D01*
X127847906Y-62263758D01*
X127743473Y-62324053D01*
X127743468Y-62324057D01*
X127658198Y-62409327D01*
X127658194Y-62409332D01*
X127597899Y-62513765D01*
X127597897Y-62513769D01*
X127566687Y-62630251D01*
X127566687Y-62750850D01*
X127597897Y-62867332D01*
X127597899Y-62867336D01*
X127658194Y-62971769D01*
X127658196Y-62971772D01*
X127658197Y-62971773D01*
X127743470Y-63057046D01*
X127743471Y-63057047D01*
X127743473Y-63057048D01*
X127847906Y-63117343D01*
X127847910Y-63117345D01*
X127939775Y-63141959D01*
X127964392Y-63148555D01*
X127964394Y-63148556D01*
X127964395Y-63148556D01*
X128084990Y-63148556D01*
X128084990Y-63148555D01*
X128143232Y-63132950D01*
X128201473Y-63117345D01*
X128201477Y-63117343D01*
X128264237Y-63081108D01*
X128305914Y-63057046D01*
X128391187Y-62971773D01*
X128401082Y-62954633D01*
X128417859Y-62925577D01*
X128424963Y-62920126D01*
X128427991Y-62919727D01*
X142365006Y-62919727D01*
X142373279Y-62923154D01*
X142376706Y-62931427D01*
X142373279Y-62939700D01*
X141105227Y-64207753D01*
X141096954Y-64211180D01*
X123729359Y-64211180D01*
X123645131Y-64246069D01*
X123645128Y-64246071D01*
X122233802Y-65657397D01*
X122225529Y-65660824D01*
X122015846Y-65660824D01*
X122007573Y-65657397D01*
X122004371Y-65651407D01*
X122003405Y-65646551D01*
X121998747Y-65623133D01*
X121929780Y-65456632D01*
X121929778Y-65456629D01*
X121929776Y-65456625D01*
X121829655Y-65306785D01*
X121829652Y-65306781D01*
X121702224Y-65179353D01*
X121702220Y-65179350D01*
X121552380Y-65079229D01*
X121552372Y-65079225D01*
X121385873Y-65010259D01*
X121209116Y-64975100D01*
X121028896Y-64975100D01*
X120940517Y-64992679D01*
X120852138Y-65010259D01*
X120685639Y-65079225D01*
X120685631Y-65079229D01*
X120535791Y-65179350D01*
X120535787Y-65179353D01*
X120408359Y-65306781D01*
X120408356Y-65306785D01*
X120383644Y-65343769D01*
X120376198Y-65348744D01*
X120367416Y-65346997D01*
X120362441Y-65339551D01*
X120362216Y-65337269D01*
X120362216Y-63902729D01*
X120365643Y-63894456D01*
X120373916Y-63891029D01*
X120382189Y-63894456D01*
X120383644Y-63896229D01*
X120408356Y-63933214D01*
X120408359Y-63933218D01*
X120535787Y-64060646D01*
X120535791Y-64060649D01*
X120685631Y-64160770D01*
X120685635Y-64160772D01*
X120685638Y-64160774D01*
X120852139Y-64229741D01*
X121028896Y-64264900D01*
X121028897Y-64264900D01*
X121209115Y-64264900D01*
X121209116Y-64264900D01*
X121385873Y-64229741D01*
X121552374Y-64160774D01*
X121702221Y-64060649D01*
X121829655Y-63933215D01*
X121929780Y-63783368D01*
X121998747Y-63616867D01*
X122033906Y-63440110D01*
X122033906Y-63259890D01*
X121998747Y-63083133D01*
X121929780Y-62916632D01*
X121929778Y-62916629D01*
X121929776Y-62916625D01*
X121829655Y-62766785D01*
X121829652Y-62766781D01*
X121702224Y-62639353D01*
X121702220Y-62639350D01*
X121552380Y-62539229D01*
X121552372Y-62539225D01*
X121385873Y-62470259D01*
X121323981Y-62457948D01*
X121209116Y-62435100D01*
X121028896Y-62435100D01*
X120940517Y-62452679D01*
X120852138Y-62470259D01*
X120685639Y-62539225D01*
X120685631Y-62539229D01*
X120535791Y-62639350D01*
X120535787Y-62639353D01*
X120442211Y-62732929D01*
X120433938Y-62736356D01*
X120425665Y-62732929D01*
X120422238Y-62724656D01*
X120422602Y-62721761D01*
X120483642Y-62483145D01*
X120484159Y-62481595D01*
X120495042Y-62455323D01*
X120495042Y-62440057D01*
X120495407Y-62437157D01*
X120495933Y-62435100D01*
X120499190Y-62422369D01*
X120495160Y-62394230D01*
X120495042Y-62392571D01*
X120495042Y-61762907D01*
X120498468Y-61754635D01*
X120646893Y-61606209D01*
X120655165Y-61602783D01*
X120661664Y-61604754D01*
X120685638Y-61620774D01*
X120852139Y-61689741D01*
X121028896Y-61724900D01*
X121028897Y-61724900D01*
X121209115Y-61724900D01*
X121209116Y-61724900D01*
X121385873Y-61689741D01*
X121552374Y-61620774D01*
X121702221Y-61520649D01*
X121829655Y-61393215D01*
X121929780Y-61243368D01*
X121998747Y-61076867D01*
X122033906Y-60900110D01*
X122033906Y-60719890D01*
X121998747Y-60543133D01*
X121929780Y-60376632D01*
X121929778Y-60376629D01*
X121929776Y-60376625D01*
X121829655Y-60226785D01*
X121829652Y-60226781D01*
X121702224Y-60099353D01*
X121702220Y-60099350D01*
X121552380Y-59999229D01*
X121552372Y-59999225D01*
X121385873Y-59930259D01*
X121209116Y-59895100D01*
X121028896Y-59895100D01*
X120940517Y-59912679D01*
X120852138Y-59930259D01*
X120685639Y-59999225D01*
X120685631Y-59999229D01*
X120535791Y-60099350D01*
X120535787Y-60099353D01*
X120408359Y-60226781D01*
X120408356Y-60226785D01*
X120308235Y-60376625D01*
X120308231Y-60376633D01*
X120239265Y-60543132D01*
X120204106Y-60719890D01*
X120204106Y-60900110D01*
X120216884Y-60964348D01*
X120239265Y-61076867D01*
X120308231Y-61243366D01*
X120308235Y-61243374D01*
X120324244Y-61267332D01*
X120325991Y-61276114D01*
X120322789Y-61282105D01*
X120136048Y-61468848D01*
X120071879Y-61533017D01*
X120063606Y-61536444D01*
X120055333Y-61533017D01*
X120051906Y-61524744D01*
X120051906Y-61376274D01*
X120051906Y-61376266D01*
X120049065Y-61351779D01*
X120049064Y-61351777D01*
X120049064Y-61351775D01*
X120015656Y-61276114D01*
X120004834Y-61251604D01*
X120004833Y-61251603D01*
X120004832Y-61251601D01*
X119927404Y-61174173D01*
X119927402Y-61174172D01*
X119827230Y-61129941D01*
X119827223Y-61129940D01*
X119802750Y-61127101D01*
X119802747Y-61127100D01*
X119802740Y-61127100D01*
X119802732Y-61127100D01*
X119020200Y-61127100D01*
X119011927Y-61123673D01*
X119008500Y-61115400D01*
X119008500Y-60504600D01*
X119011927Y-60496327D01*
X119020200Y-60492900D01*
X119802732Y-60492900D01*
X119802740Y-60492900D01*
X119827227Y-60490059D01*
X119827228Y-60490058D01*
X119827230Y-60490058D01*
X119851778Y-60479218D01*
X119927402Y-60445828D01*
X120004834Y-60368396D01*
X120049065Y-60268221D01*
X120051906Y-60243734D01*
X120051906Y-58836266D01*
X120049065Y-58811779D01*
X120049064Y-58811777D01*
X120049064Y-58811775D01*
X120013599Y-58731456D01*
X120004834Y-58711604D01*
X120004833Y-58711603D01*
X120004832Y-58711601D01*
X119927404Y-58634173D01*
X119927402Y-58634172D01*
X119827230Y-58589941D01*
X119827223Y-58589940D01*
X119802750Y-58587101D01*
X119802747Y-58587100D01*
X119802740Y-58587100D01*
X119802732Y-58587100D01*
X119020200Y-58587100D01*
X119011927Y-58583673D01*
X119008500Y-58575400D01*
X119008500Y-58179890D01*
X120204106Y-58179890D01*
X120204106Y-58360110D01*
X120210560Y-58392557D01*
X120239265Y-58536867D01*
X120308231Y-58703366D01*
X120308235Y-58703374D01*
X120408356Y-58853214D01*
X120408359Y-58853218D01*
X120535787Y-58980646D01*
X120535791Y-58980649D01*
X120685631Y-59080770D01*
X120685635Y-59080772D01*
X120685638Y-59080774D01*
X120852139Y-59149741D01*
X121028896Y-59184900D01*
X121028897Y-59184900D01*
X121209115Y-59184900D01*
X121209116Y-59184900D01*
X121385873Y-59149741D01*
X121552374Y-59080774D01*
X121702221Y-58980649D01*
X121829655Y-58853215D01*
X121929780Y-58703368D01*
X121998747Y-58536867D01*
X122033906Y-58360110D01*
X122033906Y-58179890D01*
X121998747Y-58003133D01*
X121963776Y-57918705D01*
X130674600Y-57918705D01*
X130674600Y-58081294D01*
X130706319Y-58240760D01*
X130768539Y-58390972D01*
X130768543Y-58390980D01*
X130858868Y-58526160D01*
X130862472Y-58529763D01*
X131167734Y-58224500D01*
X131179920Y-58245606D01*
X131254394Y-58320080D01*
X131275497Y-58332264D01*
X130970235Y-58637526D01*
X130973839Y-58641131D01*
X131109019Y-58731456D01*
X131109027Y-58731460D01*
X131259239Y-58793680D01*
X131418706Y-58825400D01*
X131581294Y-58825400D01*
X131740760Y-58793680D01*
X131890972Y-58731460D01*
X131890980Y-58731456D01*
X132026162Y-58641130D01*
X132026164Y-58641128D01*
X132029764Y-58637527D01*
X132029764Y-58637526D01*
X131724501Y-58332264D01*
X131745606Y-58320080D01*
X131820080Y-58245606D01*
X131832264Y-58224501D01*
X132137526Y-58529764D01*
X132137527Y-58529764D01*
X132141128Y-58526164D01*
X132141130Y-58526162D01*
X132231456Y-58390980D01*
X132231460Y-58390972D01*
X132293680Y-58240760D01*
X132325400Y-58081294D01*
X132325400Y-57918705D01*
X132293680Y-57759239D01*
X132231460Y-57609027D01*
X132231456Y-57609019D01*
X132141131Y-57473839D01*
X132137526Y-57470235D01*
X131832264Y-57775497D01*
X131820080Y-57754394D01*
X131745606Y-57679920D01*
X131724500Y-57667734D01*
X132029764Y-57362472D01*
X132026160Y-57358868D01*
X131890980Y-57268543D01*
X131890972Y-57268539D01*
X131740760Y-57206319D01*
X131581294Y-57174600D01*
X131418706Y-57174600D01*
X131259239Y-57206319D01*
X131109027Y-57268539D01*
X131109019Y-57268543D01*
X130973841Y-57358867D01*
X130973836Y-57358871D01*
X130970235Y-57362471D01*
X131275498Y-57667735D01*
X131254394Y-57679920D01*
X131179920Y-57754394D01*
X131167735Y-57775498D01*
X130862472Y-57470235D01*
X130862471Y-57470235D01*
X130858871Y-57473836D01*
X130858867Y-57473841D01*
X130768543Y-57609019D01*
X130768539Y-57609027D01*
X130706319Y-57759239D01*
X130674600Y-57918705D01*
X121963776Y-57918705D01*
X121929780Y-57836632D01*
X121929778Y-57836629D01*
X121929776Y-57836625D01*
X121829655Y-57686785D01*
X121829652Y-57686781D01*
X121702224Y-57559353D01*
X121702220Y-57559350D01*
X121552380Y-57459229D01*
X121552372Y-57459225D01*
X121385873Y-57390259D01*
X121209116Y-57355100D01*
X121028896Y-57355100D01*
X120958518Y-57369099D01*
X120852138Y-57390259D01*
X120685639Y-57459225D01*
X120685631Y-57459229D01*
X120535791Y-57559350D01*
X120535787Y-57559353D01*
X120408359Y-57686781D01*
X120408356Y-57686785D01*
X120308235Y-57836625D01*
X120308231Y-57836633D01*
X120239265Y-58003132D01*
X120239265Y-58003133D01*
X120204106Y-58179890D01*
X119008500Y-58179890D01*
X119008500Y-57964600D01*
X119011927Y-57956327D01*
X119020200Y-57952900D01*
X119802732Y-57952900D01*
X119802740Y-57952900D01*
X119827227Y-57950059D01*
X119827228Y-57950058D01*
X119827230Y-57950058D01*
X119851778Y-57939218D01*
X119927402Y-57905828D01*
X120004834Y-57828396D01*
X120049065Y-57728221D01*
X120051906Y-57703734D01*
X120051906Y-56296266D01*
X120049065Y-56271779D01*
X120049064Y-56271777D01*
X120049064Y-56271775D01*
X120014601Y-56193725D01*
X120004834Y-56171604D01*
X120004833Y-56171603D01*
X120004832Y-56171601D01*
X119927404Y-56094173D01*
X119927402Y-56094172D01*
X119827230Y-56049941D01*
X119827223Y-56049940D01*
X119802750Y-56047101D01*
X119802747Y-56047100D01*
X119802740Y-56047100D01*
X119802732Y-56047100D01*
X119020200Y-56047100D01*
X119011927Y-56043673D01*
X119008500Y-56035400D01*
X119008500Y-55652448D01*
X120331606Y-55652448D01*
X120331606Y-55807551D01*
X120361865Y-55959676D01*
X120421220Y-56102972D01*
X120421224Y-56102980D01*
X120507391Y-56231937D01*
X120507394Y-56231941D01*
X120508347Y-56232894D01*
X120508348Y-56232894D01*
X120754164Y-55987077D01*
X120763317Y-56002930D01*
X120846076Y-56085689D01*
X120861927Y-56094840D01*
X120616111Y-56340657D01*
X120617064Y-56341611D01*
X120617068Y-56341614D01*
X120746025Y-56427781D01*
X120746033Y-56427785D01*
X120889329Y-56487140D01*
X121041455Y-56517400D01*
X121196557Y-56517400D01*
X121348682Y-56487140D01*
X121491978Y-56427785D01*
X121491986Y-56427781D01*
X121574042Y-56372953D01*
X121620945Y-56341613D01*
X121621900Y-56340657D01*
X121621900Y-56340656D01*
X121376084Y-56094840D01*
X121391936Y-56085689D01*
X121474695Y-56002930D01*
X121483846Y-55987078D01*
X121729662Y-56232894D01*
X121729663Y-56232894D01*
X121730619Y-56231939D01*
X121816787Y-56102980D01*
X121816791Y-56102972D01*
X121876146Y-55959676D01*
X121906406Y-55807551D01*
X121906406Y-55668705D01*
X124174600Y-55668705D01*
X124174600Y-55831294D01*
X124206319Y-55990760D01*
X124268539Y-56140972D01*
X124268543Y-56140980D01*
X124358868Y-56276160D01*
X124362472Y-56279763D01*
X124667734Y-55974500D01*
X124679920Y-55995606D01*
X124754394Y-56070080D01*
X124775497Y-56082264D01*
X124470235Y-56387526D01*
X124473839Y-56391131D01*
X124609019Y-56481456D01*
X124609027Y-56481460D01*
X124759239Y-56543680D01*
X124918706Y-56575400D01*
X125081294Y-56575400D01*
X125240760Y-56543680D01*
X125390972Y-56481460D01*
X125390980Y-56481456D01*
X125526162Y-56391130D01*
X125526164Y-56391128D01*
X125529764Y-56387527D01*
X125529764Y-56387526D01*
X125224501Y-56082264D01*
X125245606Y-56070080D01*
X125320080Y-55995606D01*
X125332264Y-55974501D01*
X125637526Y-56279764D01*
X125637527Y-56279764D01*
X125641128Y-56276164D01*
X125641130Y-56276162D01*
X125731456Y-56140980D01*
X125731460Y-56140972D01*
X125793680Y-55990760D01*
X125808013Y-55918705D01*
X137674600Y-55918705D01*
X137674600Y-56081294D01*
X137706319Y-56240760D01*
X137768539Y-56390972D01*
X137768543Y-56390980D01*
X137858868Y-56526160D01*
X137862472Y-56529763D01*
X138167734Y-56224500D01*
X138179920Y-56245606D01*
X138254394Y-56320080D01*
X138275497Y-56332264D01*
X137970235Y-56637526D01*
X137973839Y-56641131D01*
X138109019Y-56731456D01*
X138109027Y-56731460D01*
X138259239Y-56793680D01*
X138418706Y-56825400D01*
X138581294Y-56825400D01*
X138740760Y-56793680D01*
X138890972Y-56731460D01*
X138890980Y-56731456D01*
X139026162Y-56641130D01*
X139026164Y-56641128D01*
X139029764Y-56637527D01*
X139029764Y-56637526D01*
X138724501Y-56332264D01*
X138745606Y-56320080D01*
X138820080Y-56245606D01*
X138832264Y-56224501D01*
X139137526Y-56529764D01*
X139137527Y-56529764D01*
X139141128Y-56526164D01*
X139141130Y-56526162D01*
X139231456Y-56390980D01*
X139231460Y-56390972D01*
X139293680Y-56240760D01*
X139325400Y-56081294D01*
X139325400Y-55918705D01*
X139293680Y-55759239D01*
X139231460Y-55609027D01*
X139231456Y-55609019D01*
X139141131Y-55473839D01*
X139137526Y-55470235D01*
X138832264Y-55775497D01*
X138820080Y-55754394D01*
X138745606Y-55679920D01*
X138724500Y-55667734D01*
X139029764Y-55362472D01*
X139026160Y-55358868D01*
X138890980Y-55268543D01*
X138890972Y-55268539D01*
X138740760Y-55206319D01*
X138581294Y-55174600D01*
X138418706Y-55174600D01*
X138259239Y-55206319D01*
X138109027Y-55268539D01*
X138109019Y-55268543D01*
X137973841Y-55358867D01*
X137973836Y-55358871D01*
X137970235Y-55362471D01*
X138275498Y-55667735D01*
X138254394Y-55679920D01*
X138179920Y-55754394D01*
X138167735Y-55775498D01*
X137862472Y-55470235D01*
X137862471Y-55470235D01*
X137858871Y-55473836D01*
X137858867Y-55473841D01*
X137768543Y-55609019D01*
X137768539Y-55609027D01*
X137706319Y-55759239D01*
X137674600Y-55918705D01*
X125808013Y-55918705D01*
X125808582Y-55915847D01*
X125808582Y-55915846D01*
X125825400Y-55831295D01*
X125825400Y-55668705D01*
X125793680Y-55509239D01*
X125732734Y-55362101D01*
X125731458Y-55359024D01*
X125731456Y-55359019D01*
X125641131Y-55223839D01*
X125637526Y-55220235D01*
X125332264Y-55525497D01*
X125320080Y-55504394D01*
X125245606Y-55429920D01*
X125224500Y-55417734D01*
X125529764Y-55112472D01*
X125526160Y-55108868D01*
X125390980Y-55018543D01*
X125390972Y-55018539D01*
X125240760Y-54956319D01*
X125081294Y-54924600D01*
X124918706Y-54924600D01*
X124759239Y-54956319D01*
X124609027Y-55018539D01*
X124609019Y-55018543D01*
X124473841Y-55108867D01*
X124473836Y-55108871D01*
X124470235Y-55112471D01*
X124775498Y-55417735D01*
X124754394Y-55429920D01*
X124679920Y-55504394D01*
X124667735Y-55525498D01*
X124362472Y-55220235D01*
X124362471Y-55220235D01*
X124358871Y-55223836D01*
X124358867Y-55223841D01*
X124268543Y-55359019D01*
X124268539Y-55359027D01*
X124206319Y-55509239D01*
X124174600Y-55668705D01*
X121906406Y-55668705D01*
X121906406Y-55652448D01*
X121876146Y-55500323D01*
X121816791Y-55357027D01*
X121816787Y-55357019D01*
X121730620Y-55228062D01*
X121730617Y-55228058D01*
X121729664Y-55227105D01*
X121729663Y-55227105D01*
X121483846Y-55472921D01*
X121474695Y-55457070D01*
X121391936Y-55374311D01*
X121376083Y-55365158D01*
X121621900Y-55119342D01*
X121621900Y-55119341D01*
X121620947Y-55118388D01*
X121620943Y-55118385D01*
X121619397Y-55117352D01*
X121491986Y-55032218D01*
X121491978Y-55032214D01*
X121348682Y-54972859D01*
X121196557Y-54942600D01*
X121041455Y-54942600D01*
X120889329Y-54972859D01*
X120746033Y-55032214D01*
X120746025Y-55032218D01*
X120617073Y-55118381D01*
X120617064Y-55118388D01*
X120616110Y-55119341D01*
X120861927Y-55365158D01*
X120846076Y-55374311D01*
X120763317Y-55457070D01*
X120754164Y-55472921D01*
X120508347Y-55227104D01*
X120507394Y-55228058D01*
X120507387Y-55228067D01*
X120421224Y-55357019D01*
X120421220Y-55357027D01*
X120361865Y-55500323D01*
X120331606Y-55652448D01*
X119008500Y-55652448D01*
X119008500Y-53099890D01*
X120204106Y-53099890D01*
X120204106Y-53280109D01*
X120239265Y-53456867D01*
X120308231Y-53623366D01*
X120308235Y-53623374D01*
X120408356Y-53773214D01*
X120408359Y-53773218D01*
X120535787Y-53900646D01*
X120535791Y-53900649D01*
X120685631Y-54000770D01*
X120685635Y-54000772D01*
X120685638Y-54000774D01*
X120852139Y-54069741D01*
X121028896Y-54104900D01*
X121028897Y-54104900D01*
X121209115Y-54104900D01*
X121209116Y-54104900D01*
X121385873Y-54069741D01*
X121552374Y-54000774D01*
X121702221Y-53900649D01*
X121829655Y-53773215D01*
X121929780Y-53623368D01*
X121998747Y-53456867D01*
X122033906Y-53280110D01*
X122033906Y-53156148D01*
X124047100Y-53156148D01*
X124047100Y-53343851D01*
X124083719Y-53527951D01*
X124155550Y-53701366D01*
X124155554Y-53701374D01*
X124259833Y-53857438D01*
X124259836Y-53857442D01*
X124392557Y-53990163D01*
X124392561Y-53990166D01*
X124548625Y-54094445D01*
X124548629Y-54094447D01*
X124548632Y-54094449D01*
X124722049Y-54166281D01*
X124906148Y-54202900D01*
X124906149Y-54202900D01*
X125093851Y-54202900D01*
X125093852Y-54202900D01*
X125277951Y-54166281D01*
X125451368Y-54094449D01*
X125607439Y-53990166D01*
X125740166Y-53857439D01*
X125844449Y-53701368D01*
X125916281Y-53527951D01*
X125952900Y-53343852D01*
X125952900Y-53156148D01*
X125916281Y-52972049D01*
X125888984Y-52906148D01*
X130547100Y-52906148D01*
X130547100Y-53093851D01*
X130583719Y-53277951D01*
X130655550Y-53451366D01*
X130655554Y-53451374D01*
X130759833Y-53607438D01*
X130759836Y-53607442D01*
X130892557Y-53740163D01*
X130892561Y-53740166D01*
X131048625Y-53844445D01*
X131048629Y-53844447D01*
X131048632Y-53844449D01*
X131222049Y-53916281D01*
X131406148Y-53952900D01*
X131406149Y-53952900D01*
X131593851Y-53952900D01*
X131593852Y-53952900D01*
X131777951Y-53916281D01*
X131951368Y-53844449D01*
X132107439Y-53740166D01*
X132240166Y-53607439D01*
X132344449Y-53451368D01*
X132416281Y-53277951D01*
X132452900Y-53093852D01*
X132452900Y-52918291D01*
X137547100Y-52918291D01*
X137547100Y-54081708D01*
X137562042Y-54176053D01*
X137562042Y-54176054D01*
X137562043Y-54176055D01*
X137619984Y-54289771D01*
X137710229Y-54380016D01*
X137823945Y-54437957D01*
X137871118Y-54445428D01*
X137918291Y-54452900D01*
X137918292Y-54452900D01*
X139081708Y-54452900D01*
X139176055Y-54437957D01*
X139289771Y-54380016D01*
X139380016Y-54289771D01*
X139437957Y-54176055D01*
X139452900Y-54081708D01*
X139452900Y-52918292D01*
X139437957Y-52823945D01*
X139380016Y-52710229D01*
X139289771Y-52619984D01*
X139176055Y-52562043D01*
X139176054Y-52562042D01*
X139176053Y-52562042D01*
X139081709Y-52547100D01*
X139081708Y-52547100D01*
X137918292Y-52547100D01*
X137918291Y-52547100D01*
X137823946Y-52562042D01*
X137710228Y-52619984D01*
X137619984Y-52710228D01*
X137562042Y-52823946D01*
X137547100Y-52918291D01*
X132452900Y-52918291D01*
X132452900Y-52906148D01*
X132416281Y-52722049D01*
X132344449Y-52548632D01*
X132344447Y-52548629D01*
X132344445Y-52548625D01*
X132240166Y-52392561D01*
X132240163Y-52392557D01*
X132107442Y-52259836D01*
X132107438Y-52259833D01*
X131951374Y-52155554D01*
X131951366Y-52155550D01*
X131777951Y-52083719D01*
X131593852Y-52047100D01*
X131406148Y-52047100D01*
X131314098Y-52065409D01*
X131222048Y-52083719D01*
X131048633Y-52155550D01*
X131048625Y-52155554D01*
X130892561Y-52259833D01*
X130892557Y-52259836D01*
X130759836Y-52392557D01*
X130759833Y-52392561D01*
X130655554Y-52548625D01*
X130655550Y-52548633D01*
X130583719Y-52722048D01*
X130547100Y-52906148D01*
X125888984Y-52906148D01*
X125844449Y-52798632D01*
X125844447Y-52798629D01*
X125844445Y-52798625D01*
X125740166Y-52642561D01*
X125740163Y-52642557D01*
X125607442Y-52509836D01*
X125607438Y-52509833D01*
X125451374Y-52405554D01*
X125451366Y-52405550D01*
X125277951Y-52333719D01*
X125093852Y-52297100D01*
X124906148Y-52297100D01*
X124839992Y-52310259D01*
X124722048Y-52333719D01*
X124548633Y-52405550D01*
X124548625Y-52405554D01*
X124392561Y-52509833D01*
X124392557Y-52509836D01*
X124259836Y-52642557D01*
X124259833Y-52642561D01*
X124155554Y-52798625D01*
X124155550Y-52798633D01*
X124083719Y-52972048D01*
X124047100Y-53156148D01*
X122033906Y-53156148D01*
X122033906Y-53099890D01*
X121998747Y-52923133D01*
X121929780Y-52756632D01*
X121929778Y-52756629D01*
X121929776Y-52756625D01*
X121829655Y-52606785D01*
X121829652Y-52606781D01*
X121702224Y-52479353D01*
X121702220Y-52479350D01*
X121552380Y-52379229D01*
X121552372Y-52379225D01*
X121385873Y-52310259D01*
X121319718Y-52297100D01*
X121209116Y-52275100D01*
X121028896Y-52275100D01*
X120940517Y-52292679D01*
X120852138Y-52310259D01*
X120685639Y-52379225D01*
X120685631Y-52379229D01*
X120535791Y-52479350D01*
X120535787Y-52479353D01*
X120408359Y-52606781D01*
X120408356Y-52606785D01*
X120308235Y-52756625D01*
X120308231Y-52756633D01*
X120239265Y-52923132D01*
X120204106Y-53099890D01*
X119008500Y-53099890D01*
X119008500Y-50993054D01*
X119008499Y-50993052D01*
X118973848Y-50863727D01*
X118973846Y-50863723D01*
X118906903Y-50747777D01*
X118906899Y-50747772D01*
X118812227Y-50653100D01*
X118812222Y-50653096D01*
X118696276Y-50586153D01*
X118696272Y-50586151D01*
X118566947Y-50551500D01*
X118566945Y-50551500D01*
X118565951Y-50551500D01*
X108406945Y-50551500D01*
X108273055Y-50551500D01*
X108273052Y-50551500D01*
X108143727Y-50586151D01*
X108143723Y-50586153D01*
X108027777Y-50653096D01*
X108027772Y-50653100D01*
X107933100Y-50747772D01*
X107933096Y-50747777D01*
X107866153Y-50863723D01*
X107866151Y-50863727D01*
X107831500Y-50993052D01*
X107831500Y-56035400D01*
X107828073Y-56043673D01*
X107819800Y-56047100D01*
X107036266Y-56047100D01*
X107036259Y-56047100D01*
X107036255Y-56047101D01*
X107011782Y-56049940D01*
X107011775Y-56049941D01*
X106911603Y-56094172D01*
X106911601Y-56094173D01*
X106834173Y-56171601D01*
X106834172Y-56171603D01*
X106789941Y-56271775D01*
X106789940Y-56271782D01*
X106787101Y-56296255D01*
X106787100Y-56296274D01*
X106600975Y-56296274D01*
X106689780Y-56163368D01*
X106758747Y-55996867D01*
X106793906Y-55820110D01*
X106793906Y-55639890D01*
X106758747Y-55463133D01*
X106689780Y-55296632D01*
X106689778Y-55296629D01*
X106689776Y-55296625D01*
X106589655Y-55146785D01*
X106589652Y-55146781D01*
X106462224Y-55019353D01*
X106462220Y-55019350D01*
X106312380Y-54919229D01*
X106312372Y-54919225D01*
X106145873Y-54850259D01*
X105969116Y-54815100D01*
X105788896Y-54815100D01*
X105700517Y-54832679D01*
X105612138Y-54850259D01*
X105445639Y-54919225D01*
X105445631Y-54919229D01*
X105295791Y-55019350D01*
X105295787Y-55019353D01*
X105168359Y-55146781D01*
X105168356Y-55146785D01*
X105068235Y-55296625D01*
X105068231Y-55296633D01*
X104999265Y-55463132D01*
X104972915Y-55595606D01*
X104964106Y-55639890D01*
X100516131Y-55639890D01*
X100516131Y-53099890D01*
X104964106Y-53099890D01*
X104964106Y-53280109D01*
X104999265Y-53456867D01*
X105068231Y-53623366D01*
X105068235Y-53623374D01*
X105168356Y-53773214D01*
X105168359Y-53773218D01*
X105295787Y-53900646D01*
X105295791Y-53900649D01*
X105445631Y-54000770D01*
X105445635Y-54000772D01*
X105445638Y-54000774D01*
X105612139Y-54069741D01*
X105788896Y-54104900D01*
X105788897Y-54104900D01*
X105969115Y-54104900D01*
X105969116Y-54104900D01*
X106145873Y-54069741D01*
X106312374Y-54000774D01*
X106462221Y-53900649D01*
X106589655Y-53773215D01*
X106689780Y-53623368D01*
X106758747Y-53456867D01*
X106793906Y-53280110D01*
X106793906Y-53099890D01*
X106758747Y-52923133D01*
X106689780Y-52756632D01*
X106689778Y-52756629D01*
X106689776Y-52756625D01*
X106589655Y-52606785D01*
X106589652Y-52606781D01*
X106462224Y-52479353D01*
X106462220Y-52479350D01*
X106312380Y-52379229D01*
X106312372Y-52379225D01*
X106145873Y-52310259D01*
X106079718Y-52297100D01*
X105969116Y-52275100D01*
X105788896Y-52275100D01*
X105700517Y-52292679D01*
X105612138Y-52310259D01*
X105445639Y-52379225D01*
X105445631Y-52379229D01*
X105295791Y-52479350D01*
X105295787Y-52479353D01*
X105168359Y-52606781D01*
X105168356Y-52606785D01*
X105068235Y-52756625D01*
X105068231Y-52756633D01*
X104999265Y-52923132D01*
X104964106Y-53099890D01*
X100516131Y-53099890D01*
X100516131Y-50527831D01*
X100519558Y-50519558D01*
X100527831Y-50516131D01*
X199472169Y-50516131D01*
X199480442Y-50519558D01*
G37*
%TD.AperFunction*%
%TD*%
M02*
