M48
; DRILL file {KiCad 9.0.9-9.0.9~ubuntu25.10.1} date 2026-06-19T19:50:02-0400
; FORMAT={-:-/ absolute / metric / decimal}
; #@! TF.CreationDate,2026-06-19T19:50:02-04:00
; #@! TF.GenerationSoftware,Kicad,Pcbnew,9.0.9-9.0.9~ubuntu25.10.1
; #@! TF.FileFunction,Plated,1,2,PTH
FMAT,2
METRIC
; #@! TA.AperFunction,Plated,PTH,ViaDrill
T1C0.305
; #@! TA.AperFunction,Plated,PTH,ComponentDrill
T2C0.800
; #@! TA.AperFunction,Plated,PTH,ComponentDrill
T3C0.889
; #@! TA.AperFunction,Plated,PTH,ComponentDrill
T4C1.000
; #@! TA.AperFunction,Plated,PTH,ComponentDrill
T5C1.500
; #@! TA.AperFunction,Plated,PTH,ComponentDrill
T6C2.000
; #@! TA.AperFunction,Plated,PTH,ComponentDrill
T7C4.300
%
G90
G05
T1
X101.124Y-51.124
X101.124Y-76.269
X101.124Y-86.29
X101.124Y-96.311
X101.124Y-106.332
X101.124Y-116.353
X101.124Y-126.374
X101.124Y-136.395
X106.168Y-71.112
X108.686Y-148.876
X110.993Y-82.518
X111.335Y-125.803
X115.203Y-104.774
X115.627Y-116.496
X117.365Y-69.75
X117.694Y-56.081
X118.707Y-148.876
X119.372Y-134.556
X121.272Y-97.229
X122.979Y-71.977
X123.461Y-88.079
X124.409Y-81.196
X126.821Y-128.329
X127.019Y-114.858
X127.392Y-54.599
X128.728Y-148.876
X133.851Y-70.347
X133.859Y-84.527
X133.859Y-94.548
X133.859Y-104.569
X135.545Y-119.717
X137.498Y-103.574
X138.749Y-148.876
X138.916Y-130.991
X143.767Y-102.614
X144.575Y-69.615
X145.321Y-57.723
X145.641Y-69.726
X148.77Y-148.876
X149.07Y-74.143
X150.117Y-114.506
X150.639Y-127.446
X151.498Y-90.631
X152.877Y-140.17
X153.444Y-80.395
X154.22Y-62.763
X158.791Y-148.876
X162.124Y-71.77
X162.124Y-105.482
X162.124Y-115.503
X162.415Y-125.31
X163.184Y-58.151
X163.435Y-124.98
X164.029Y-129.387
X165.652Y-61.277
X166.111Y-104.937
X167.658Y-67.428
X168.54Y-89.705
X168.812Y-148.876
X172.42Y-70.238
X173.754Y-106.14
X173.754Y-116.161
X175.897Y-51.124
X178.834Y-148.876
X182.836Y-83.607
X183.932Y-70.061
X184.723Y-95.838
X185.117Y-139.095
X185.883Y-85.315
X185.919Y-51.124
X186.127Y-124.442
X186.773Y-61.222
X187.569Y-112.692
X188.855Y-148.876
X195.94Y-51.124
X198.876Y-68.23
X198.876Y-78.251
X198.876Y-88.272
X198.876Y-98.294
X198.876Y-108.315
X198.876Y-118.336
X198.876Y-128.357
X198.876Y-138.378
X198.876Y-148.876
T2
X104.88Y-77.5
X111.5Y-84.0
X112.5Y-77.5
X114.0Y-84.0
X118.5Y-84.0
X119.38Y-77.5
X121.387Y-118.649
X123.5Y-84.0
X124.031Y-55.811
X124.031Y-58.311
X127.0Y-77.5
X129.007Y-118.649
X131.0Y-83.0
X131.0Y-85.5
X131.5Y-53.0
X131.5Y-58.0
X138.5Y-53.5
X138.5Y-56.0
X143.69Y-140.0
X144.38Y-79.0
X144.38Y-109.5
X151.31Y-140.0
X152.0Y-79.0
X152.0Y-109.5
X164.5Y-59.0
X164.5Y-90.0
X164.5Y-121.0
X167.0Y-59.0
X167.0Y-90.0
X167.0Y-121.0
X178.5Y-79.0
X179.0Y-140.0
X179.19Y-109.5
X186.12Y-79.0
X186.62Y-140.0
X186.81Y-109.5
T3
X103.949Y-55.761
X103.949Y-58.301
X103.949Y-60.841
X103.949Y-63.381
X103.949Y-65.921
X103.949Y-68.461
X103.949Y-71.001
X106.41Y-59.571
X106.41Y-62.111
X106.41Y-64.651
X106.41Y-67.191
X110.569Y-68.955
X112.569Y-68.955
X116.57Y-59.571
X116.57Y-62.111
X116.57Y-64.651
X116.57Y-67.191
X119.189Y-55.761
X119.189Y-58.301
X119.189Y-60.841
X119.189Y-63.381
X119.189Y-65.921
X119.189Y-68.461
X119.189Y-71.001
T4
X106.406Y-130.436
X106.406Y-132.936
X106.406Y-135.436
X111.371Y-90.25
X113.911Y-90.25
X116.451Y-90.25
X118.991Y-90.25
X120.906Y-130.436
X120.906Y-135.436
T5
X144.11Y-125.46
X144.36Y-64.46
X144.61Y-94.96
X150.46Y-122.92
X150.71Y-61.92
X150.96Y-92.42
X178.69Y-64.46
X178.69Y-94.96
X178.69Y-125.46
X185.04Y-61.92
X185.04Y-92.42
X185.04Y-122.92
T6
X104.181Y-90.75
X104.181Y-112.75
X126.181Y-90.75
X126.181Y-112.75
T7
X114.997Y-120.97
X130.606Y-67.204
X194.148Y-56.325
X194.306Y-143.202
T5
G00X113.256Y-127.336
M15
G01X114.556Y-127.336
M16
G05
G00X113.256Y-138.536
M15
G01X114.556Y-138.536
M16
G05
M30
