M48
; DRILL file {KiCad 9.0.9-9.0.9~ubuntu25.10.1} date 2026-06-08T18:01:45-0400
; FORMAT={-:-/ absolute / metric / decimal}
; #@! TF.CreationDate,2026-06-08T18:01:45-04:00
; #@! TF.GenerationSoftware,Kicad,Pcbnew,9.0.9-9.0.9~ubuntu25.10.1
; #@! TF.FileFunction,Plated,1,2,PTH
FMAT,2
METRIC
; #@! TA.AperFunction,Plated,PTH,ViaDrill
T1C0.305
; #@! TA.AperFunction,Plated,PTH,ComponentDrill
T2C0.800
; #@! TA.AperFunction,Plated,PTH,ComponentDrill
T3C0.889
; #@! TA.AperFunction,Plated,PTH,ComponentDrill
T4C1.000
; #@! TA.AperFunction,Plated,PTH,ComponentDrill
T5C1.500
; #@! TA.AperFunction,Plated,PTH,ComponentDrill
T6C2.000
%
G90
G05
T1
X101.838Y-66.966
X103.449Y-66.073
X103.699Y-76.266
X104.328Y-122.418
X104.63Y-132.352
X106.259Y-148.876
X106.858Y-93.366
X106.858Y-103.387
X106.858Y-113.408
X107.216Y-52.444
X109.439Y-69.403
X111.764Y-140.078
X112.622Y-82.906
X116.28Y-148.876
X118.132Y-118.463
X118.5Y-67.509
X121.887Y-72.913
X121.962Y-76.578
X121.962Y-89.949
X121.962Y-99.97
X121.962Y-109.991
X122.73Y-132.42
X124.47Y-81.244
X125.457Y-69.181
X125.515Y-65.944
X126.301Y-148.876
X126.956Y-62.731
X127.551Y-52.403
X128.025Y-62.691
X129.816Y-125.334
X131.227Y-92.387
X131.227Y-102.408
X131.629Y-77.922
X131.953Y-71.19
X132.913Y-113.72
X133.141Y-82.779
X134.558Y-108.232
X136.322Y-148.876
X139.18Y-61.848
X142.299Y-98.738
X142.918Y-78.434
X143.003Y-135.077
X144.313Y-75.307
X145.954Y-52.653
X146.104Y-125.903
X146.343Y-148.876
X148.601Y-69.735
X150.117Y-109.386
X151.498Y-90.631
X153.888Y-78.455
X155.5Y-53.89
X156.364Y-148.876
X162.124Y-72.883
X162.124Y-98.033
X162.124Y-110.384
X162.124Y-120.405
X163.435Y-124.98
X164.029Y-129.387
X164.185Y-57.114
X165.652Y-61.277
X166.111Y-104.937
X166.385Y-148.876
X167.658Y-67.428
X168.54Y-89.705
X168.965Y-129.17
X172.278Y-69.896
X173.754Y-111.26
X174.207Y-57.114
X176.406Y-148.876
X177.847Y-134.319
X181.095Y-74.156
X181.095Y-94.413
X181.153Y-84.45
X182.836Y-83.607
X183.446Y-121.948
X184.006Y-109.13
X185.883Y-66.081
X186.427Y-148.876
X187.864Y-135.044
X188.823Y-51.124
X198.844Y-51.124
X198.876Y-61.113
X198.876Y-71.135
X198.876Y-81.156
X198.876Y-91.177
X198.876Y-101.198
X198.876Y-111.219
X198.876Y-121.24
X198.876Y-131.261
X198.876Y-141.282
T2
X104.88Y-77.5
X111.5Y-84.0
X112.5Y-77.5
X114.0Y-84.0
X118.5Y-84.0
X119.38Y-77.5
X121.387Y-118.649
X123.5Y-84.0
X125.0Y-53.25
X125.0Y-55.75
X127.0Y-77.5
X129.007Y-118.649
X131.0Y-83.0
X131.0Y-85.5
X131.5Y-53.0
X131.5Y-58.0
X138.5Y-53.5
X138.5Y-56.0
X143.69Y-140.0
X144.38Y-79.0
X144.38Y-109.5
X151.31Y-140.0
X152.0Y-79.0
X152.0Y-109.5
X164.5Y-59.0
X164.5Y-90.0
X164.5Y-121.0
X167.0Y-59.0
X167.0Y-90.0
X167.0Y-121.0
X178.5Y-79.0
X179.0Y-140.0
X179.19Y-109.5
X186.12Y-79.0
X186.62Y-140.0
X186.81Y-109.5
T3
X105.879Y-53.19
X105.879Y-55.73
X105.879Y-58.27
X105.879Y-60.81
X105.879Y-63.35
X105.879Y-65.89
X105.879Y-68.43
X108.34Y-57.0
X108.34Y-59.54
X108.34Y-62.08
X108.34Y-64.62
X112.499Y-66.385
X114.499Y-66.385
X118.5Y-57.0
X118.5Y-59.54
X118.5Y-62.08
X118.5Y-64.62
X121.119Y-53.19
X121.119Y-55.73
X121.119Y-58.27
X121.119Y-60.81
X121.119Y-63.35
X121.119Y-65.89
X121.119Y-68.43
T4
X106.406Y-130.436
X106.406Y-132.936
X106.406Y-135.436
X111.69Y-89.5
X114.23Y-89.5
X116.77Y-89.5
X119.31Y-89.5
X120.906Y-130.436
X120.906Y-135.436
T5
X144.11Y-125.46
X144.36Y-64.46
X144.61Y-94.96
X150.46Y-122.92
X150.71Y-61.92
X150.96Y-92.42
X178.69Y-64.46
X178.69Y-94.96
X178.69Y-125.46
X185.04Y-61.92
X185.04Y-92.42
X185.04Y-122.92
T6
X104.5Y-90.0
X104.5Y-112.0
X126.5Y-90.0
X126.5Y-112.0
T5
G00X113.256Y-127.336
M15
G01X114.556Y-127.336
M16
G05
G00X113.256Y-138.536
M15
G01X114.556Y-138.536
M16
G05
M30
